<svg id="Layer_1" data-name="Layer 1" xmlns="http://www.w3.org/2000/svg" xmlns:xlink="http://www.w3.org/1999/xlink" viewBox="0 0 611.66 401.63"><defs><style>.cls-1,.cls-29,.cls-30,.cls-32,.cls-33{fill:none;}.cls-2{fill:#8499ce;}.cls-3{fill:#9eb5de;}.cls-4{fill:#f4f3e9;stroke:#f2f2f3;}.cls-28,.cls-29,.cls-30,.cls-32,.cls-33,.cls-4{stroke-miterlimit:10;}.cls-5{fill:#543318;}.cls-6{fill:#d88ca9;}.cls-7{fill:#f9c6d7;}.cls-8{fill:#f171ab;}.cls-9{fill:#6fcbd3;}.cls-10{fill:#d0ecef;}.cls-11{fill:#fdde3c;}.cls-12{fill:#1999d6;}.cls-13{fill:#fcef40;}.cls-14{fill:#20ade4;}.cls-15{fill:#27c1e7;}.cls-16{fill:#e6e7e7;}.cls-17{fill:#ef5b9d;}.cls-18{fill:#f06ea9;}.cls-19{fill:#fff;}.cls-20{fill:#a4b5d8;}.cls-21{clip-path:url(#clip-path);}.cls-22{fill:#fdf385;}.cls-23{fill:#eb3c7c;}.cls-24{fill:#f9a472;}.cls-25{fill:#8cc542;}.cls-26{fill:#5ac3d5;}.cls-27{fill:#b088b5;}.cls-28{fill:#fcfcf1;stroke:#fefbe5;}.cls-29,.cls-32{stroke:#f3d0d3;}.cls-29,.cls-30{stroke-width:3.08px;}.cls-30,.cls-33{stroke:#37429a;}.cls-31{fill:#efd146;}.cls-32{stroke-width:2.87px;}.cls-33{stroke-width:3.67px;}</style><clipPath id="clip-path" transform="translate(-123.05 -44.78)"><path class="cls-1" d="M344.64,160.74,275,104l38.44,81.14a2.8,2.8,0,0,0,.42.78c2.47,3.15,11.51.2,20.19-6.6s13.7-14.87,11.23-18A2.68,2.68,0,0,0,344.64,160.74Z"/></clipPath></defs><title>icon uniform2</title><path class="cls-2" d="M560.12,247.76a31.75,31.75,0,0,0-25.24-17.48,24.93,24.93,0,0,0,1.06-8.48c-.39-7.69-3.66-13.3-8.41-16.74,5.2-9.48,5.58-21,0-32.48-6.78-13.84-24.2-17.41-37.83-13.51-14.24,4.08-24.95,15.72-26.65,30.43-.67,5.89,2,12.44,3.47,18,6.6,24.56,13,49.17,19.57,73.74,2.95,11,5.73,22.11,8.57,33.17,1.65,6.45,2.29,11.36,6.8,16.42,12.65,14.17,34.29,12.83,47-.2,12.5-12.79,7.8-29.12-3.85-39.58,4.55-1.34,9-2.46,12.93-5.74C568.74,275.94,566,259.17,560.12,247.76Z" transform="translate(-123.05 -44.78)"/><path class="cls-3" d="M492.75,166.17c7.79.69,15.73,3,21.38,8.7a20.63,20.63,0,0,1,5.49,9.58c1,4.22-.1,8.18.17,12.39a.93.93,0,0,0,1.72.47c4.7-7.18,1.08-18.06-4.25-23.88-6.16-6.71-15.6-9.62-24.51-8.73a.74.74,0,0,0,0,1.47Z" transform="translate(-123.05 -44.78)"/><path class="cls-3" d="M519.21,210.13a17.47,17.47,0,0,1,7.29,9.74c1.16,4.26-.3,7.21-1.34,11.19a.75.75,0,0,0,1.25.73c3.6-3,3.52-9,2.21-13a14.19,14.19,0,0,0-9.08-9.41c-.48-.17-.73.54-.33.8Z" transform="translate(-123.05 -44.78)"/><path class="cls-3" d="M531.36,240.27c9.24,2.8,16.45,11.23,18.67,20.51,1,4.19,1.06,8.8-1.4,12.53-2.92,4.43-7.86,5.21-12.33,7.29a.66.66,0,0,0,.16,1.2c11.34,1.63,18.43-9.52,16.71-19.61-1.82-10.67-10.9-20.68-21.59-22.73a.42.42,0,0,0-.22.81Z" transform="translate(-123.05 -44.78)"/><path class="cls-3" d="M532.57,294.35c9.16,2,16.42,9.5,14.65,19.36a16.2,16.2,0,0,1-6.17,10.15c-4,2.94-8.4,2.39-12.77,4-.5.18-.75,1-.17,1.26,9.63,4.59,20.1-6.37,21.21-15.23,1.34-10.72-6-19.2-16.36-20.92-.92-.15-1.33,1.21-.39,1.41Z" transform="translate(-123.05 -44.78)"/><path class="cls-3" d="M498.77,188.64c11.32,3.15,15.08,18.51,10.21,28a.31.31,0,0,0,.49.38c9.08-8.13-.43-26.78-10.4-29.45a.57.57,0,0,0-.3,1.09Z" transform="translate(-123.05 -44.78)"/><path class="cls-3" d="M512.11,235.36a9,9,0,0,1,9.11,6.51,8.72,8.72,0,0,1,0,5.62c-.69,1.88-2.28,2.92-3.39,4.49-.4.57.26,1.14.81,1.06,5.43-.84,6.31-8.37,4.71-12.49-1.85-4.78-6.28-7.86-11.42-6.76a.8.8,0,0,0,.21,1.57Z" transform="translate(-123.05 -44.78)"/><path class="cls-4" d="M463.4,157.59H338.58a21.24,21.24,0,0,0-21.24,21.23V421a21.24,21.24,0,0,0,21.24,21.24H507.35A21.24,21.24,0,0,0,528.59,421V222.77Z" transform="translate(-123.05 -44.78)"/><path class="cls-5" d="M368.69,222.66c3.25,6.05,9.26,9.27,16.13,8.13,6.57-1.09,14.1-6,15.49-12.94a1,1,0,0,0-1.67-1c-3.91,3.89-7.25,7.93-12.68,9.78-6.17,2.11-12,.58-15.62-5a1,1,0,0,0-1.65,1Z" transform="translate(-123.05 -44.78)"/><path class="cls-5" d="M380.11,229.06c0,4.07-.55,8.78.42,12.75a.48.48,0,0,0,.92,0c1-4,.4-8.68.42-12.75a.88.88,0,0,0-1.76,0Z" transform="translate(-123.05 -44.78)"/><path class="cls-5" d="M387.43,227.9c1.5,3.81,2.63,8.41,5,11.77.24.34.95.28.89-.24-.52-4.07-2.74-8.18-4.19-12-.4-1.06-2.12-.59-1.7.47Z" transform="translate(-123.05 -44.78)"/><path class="cls-5" d="M394.24,225.53l5,4.33a24.55,24.55,0,0,0,4.86,3.77c.4.19.94-.23.66-.66a24.54,24.54,0,0,0-4.34-4.3l-4.95-4.39c-.85-.75-2.11.51-1.25,1.25Z" transform="translate(-123.05 -44.78)"/><path class="cls-6" d="M290,219.44l-66.46,14.31a4.41,4.41,0,0,0-3.38,5.23l10.91,50.67a4.4,4.4,0,0,0,5.23,3.38l35.17-7.57,22.06,14.24a2.93,2.93,0,0,0,4.46-3.08l-3.47-16.13,8.24-1.77a4.4,4.4,0,0,0,3.38-5.23l-10.91-50.67A4.4,4.4,0,0,0,290,219.44Z" transform="translate(-123.05 -44.78)"/><path class="cls-7" d="M288.67,213.35l-66.46,14.32a4.4,4.4,0,0,0-3.38,5.22l10.91,50.67a4.4,4.4,0,0,0,5.23,3.38l36.35-7.83L292,292.43a2.93,2.93,0,0,0,4.46-3.08l-3.22-14.94,8.24-1.78a4.4,4.4,0,0,0,3.38-5.23L293.9,216.73A4.4,4.4,0,0,0,288.67,213.35Z" transform="translate(-123.05 -44.78)"/><path class="cls-8" d="M247.22,254.53a5.46,5.46,0,1,1-6.49-4.19A5.46,5.46,0,0,1,247.22,254.53Z" transform="translate(-123.05 -44.78)"/><path class="cls-8" d="M267.42,250.18a5.46,5.46,0,1,1-6.48-4.19A5.46,5.46,0,0,1,267.42,250.18Z" transform="translate(-123.05 -44.78)"/><path class="cls-8" d="M287.62,245.83a5.46,5.46,0,1,1-6.48-4.19A5.45,5.45,0,0,1,287.62,245.83Z" transform="translate(-123.05 -44.78)"/><path class="cls-9" d="M640.07,348.34l-63.53-24.22a4.41,4.41,0,0,0-5.68,2.55L552.4,375.1a4.4,4.4,0,0,0,2.54,5.68l7.89,3L557,399.2a2.93,2.93,0,0,0,3.94,3.72l24-10.74L618.47,405a4.39,4.39,0,0,0,5.68-2.54L642.62,354A4.41,4.41,0,0,0,640.07,348.34Z" transform="translate(-123.05 -44.78)"/><path class="cls-10" d="M642.29,342.52,578.76,318.3a4.41,4.41,0,0,0-5.68,2.55l-18.46,48.43a4.4,4.4,0,0,0,2.54,5.68l7.88,3-5.44,14.29a2.93,2.93,0,0,0,3.94,3.72l22.41-10,34.74,13.25a4.41,4.41,0,0,0,5.68-2.55l18.46-48.43A4.39,4.39,0,0,0,642.29,342.52Z" transform="translate(-123.05 -44.78)"/><path class="cls-11" d="M573.25,368.28h0l0,0Z" transform="translate(-123.05 -44.78)"/><path class="cls-11" d="M573.43,368.32h0Z" transform="translate(-123.05 -44.78)"/><path class="cls-11" d="M572.83,368.06v0l0,0Z" transform="translate(-123.05 -44.78)"/><path class="cls-12" d="M644.59,344.54a4.37,4.37,0,0,0-2.3-2l-18.51-7.06-42.12,18.87-9,12.11a1.18,1.18,0,0,0-.16.29,1.2,1.2,0,0,0,.21,1.2.12.12,0,0,1,0,.05l.07.06,0,0h0l0,0h0l0,0h0l.06,0,.06,0h0l0,0h0l.06,0h0l.07,0h.18l15,1.34,3.19-1.43,43-19.28,9.65-4.32Z" transform="translate(-123.05 -44.78)"/><path class="cls-11" d="M573.25,368.28l0,0,0,0Z" transform="translate(-123.05 -44.78)"/><path class="cls-11" d="M572.84,368.06l0,0h0l0,0Z" transform="translate(-123.05 -44.78)"/><path class="cls-11" d="M573.08,368.22l-.05,0,0,0Z" transform="translate(-123.05 -44.78)"/><rect class="cls-11" x="628.44" y="330.05" width="16.8" height="6.69" transform="translate(557.65 -428.89) rotate(65.86)"/><rect class="cls-13" x="633.09" y="330.05" width="7.51" height="6.69" transform="translate(557.65 -428.89) rotate(65.87)"/><path class="cls-14" d="M651.11,327h0a8.39,8.39,0,0,0-11.1-4.23l-3.55,1.58,6.87,15.34,3.55-1.59A8.4,8.4,0,0,0,651.11,327Z" transform="translate(-123.05 -44.78)"/><path class="cls-15" d="M651.11,327h0a3.89,3.89,0,0,0-5.14-2l-7.66,3.43,3.18,7.1,7.66-3.43A3.89,3.89,0,0,0,651.11,327Z" transform="translate(-123.05 -44.78)"/><path class="cls-16" d="M591,363.13l-6.87-15.34-9,12.11a1.19,1.19,0,0,0,.85,1.89Z" transform="translate(-123.05 -44.78)"/><path class="cls-17" d="M575.17,361.35a1.16,1.16,0,0,0,.82.44A1.16,1.16,0,0,1,575.17,361.35Z" transform="translate(-123.05 -44.78)"/><path class="cls-17" d="M574.92,360.8a1.28,1.28,0,0,1,.06-.61A1.28,1.28,0,0,0,574.92,360.8Z" transform="translate(-123.05 -44.78)"/><rect class="cls-17" x="585.37" y="336.71" width="50.63" height="16.8" transform="translate(-210.77 235.08) rotate(-24.13)"/><rect class="cls-18" x="585.37" y="341.22" width="50.63" height="7.78" transform="translate(-210.77 235.08) rotate(-24.13)"/><path class="cls-19" d="M589.18,359l-3.18-7.1-10.63,8.5c-.65.52-.43,1,.39.87Z" transform="translate(-123.05 -44.78)"/><path class="cls-17" d="M578.12,355.9l-3,4a1.19,1.19,0,0,0,.85,1.89l5,.44Z" transform="translate(-123.05 -44.78)"/><rect class="cls-19" x="277.3" y="247.58" width="84.75" height="10.26"/><rect class="cls-19" x="277.3" y="277.09" width="84.75" height="10.26"/><rect class="cls-19" x="277.3" y="306.6" width="84.75" height="10.26"/><path class="cls-19" d="M371.61,302.63h-4.18a3.82,3.82,0,0,1-3.82-3.82v-2.63a3.81,3.81,0,0,1,3.82-3.81h4.18a3.81,3.81,0,0,1,3.81,3.81v2.63A3.82,3.82,0,0,1,371.61,302.63Z" transform="translate(-123.05 -44.78)"/><path class="cls-19" d="M371.61,332.14h-4.18a3.82,3.82,0,0,1-3.82-3.82v-2.63a3.81,3.81,0,0,1,3.82-3.81h4.18a3.81,3.81,0,0,1,3.81,3.81v2.63A3.82,3.82,0,0,1,371.61,332.14Z" transform="translate(-123.05 -44.78)"/><path class="cls-19" d="M371.61,361.64h-4.18a3.81,3.81,0,0,1-3.82-3.81V355.2a3.82,3.82,0,0,1,3.82-3.82h4.18a3.82,3.82,0,0,1,3.81,3.82v2.63A3.81,3.81,0,0,1,371.61,361.64Z" transform="translate(-123.05 -44.78)"/><path class="cls-20" d="M490.48,233.21h50.4l-74.76-74.76v50.41A24.35,24.35,0,0,0,490.48,233.21Z" transform="translate(-123.05 -44.78)"/><g class="cls-21"><path class="cls-22" d="M344.64,160.74,275,104l38.44,81.14a2.8,2.8,0,0,0,.42.78c2.47,3.15,11.51.2,20.19-6.6s13.7-14.87,11.23-18A2.68,2.68,0,0,0,344.64,160.74Z" transform="translate(-123.05 -44.78)"/><path class="cls-23" d="M297.39,188.83c16.12,5.19,30.32-.64,42.94-11.16,10.29-8.57,26.24-25.32,22.54-40.24-1.12-4.52-6.47-7.87-10.61-4.3s-7.11,8.15-10,12.64A109.32,109.32,0,0,1,330,161.46c-6.66,7.16-19.35,17-29.81,16.54-6.05-.29-9.18,8.76-2.75,10.83Z" transform="translate(-123.05 -44.78)"/><path class="cls-24" d="M283.84,183c13.87,2.33,27.42-4.35,40.11-14.77,10.35-8.49,26.83-24.56,25.38-36.62-.44-3.65-4.84-5.79-9-2.28s-7.44,7.75-10.57,11.88a143,143,0,0,1-13.11,14.72c-6.9,6.85-19.58,16.75-28.95,17.64-5.42.51-9.37,8.5-3.84,9.43Z" transform="translate(-123.05 -44.78)"/><path class="cls-25" d="M260.34,160.09c16.11,5.18,30.32-.65,42.94-11.16,10.29-8.57,26.23-25.33,22.54-40.25-1.12-4.51-6.48-7.87-10.61-4.3s-7.11,8.16-10,12.65a109.25,109.25,0,0,1-12.34,15.69c-6.66,7.16-19.35,17.05-29.81,16.54-6.06-.29-9.18,8.76-2.75,10.83Z" transform="translate(-123.05 -44.78)"/><path class="cls-26" d="M246.42,148c16.12,5.18,30.33-.65,43-11.16,10.29-8.57,26.23-25.33,22.53-40.25-1.11-4.51-6.47-7.87-10.61-4.3s-7.11,8.16-10,12.65A110,110,0,0,1,279,120.65c-6.66,7.16-19.35,17-29.81,16.54-6.06-.29-9.18,8.76-2.76,10.83Z" transform="translate(-123.05 -44.78)"/><path class="cls-27" d="M230.07,138.54c16.12,5.19,30.33-.65,42.95-11.16,10.28-8.57,26.23-25.32,22.53-40.25-1.12-4.51-6.47-7.87-10.61-4.29S277.83,91,275,95.48a109.32,109.32,0,0,1-12.35,15.69c-6.66,7.16-19.35,17-29.81,16.54-6-.29-9.18,8.76-2.75,10.83Z" transform="translate(-123.05 -44.78)"/></g><path class="cls-2" d="M458.66,132.77c1.15-33.27,45.9-25.24,32.13,2.3Z" transform="translate(-123.05 -44.78)"/><path class="cls-28" d="M528.17,113.61a6.31,6.31,0,0,0-5.51-5.17c-4.21-.6-9,.28-13.08,1.28C501,111.82,493,116.24,486,121.63c-10.74,8.29-18.95,22-14.13,35.4a20.73,20.73,0,0,0-9.13,2.71c-4.51,2.82-4,8.55,0,11.47,8.69,6.3,23.6,1.1,32.3-2.9,12.3-5.66,22-18.54,27.91-30.33C525.18,133.6,530,120.88,528.17,113.61Z" transform="translate(-123.05 -44.78)"/><path class="cls-2" d="M479,145.54c-.75-7.13-5.46-14.83-15.59-22.93A127.26,127.26,0,0,0,430.09,103a44.85,44.85,0,0,0-32.87.77c-8.77,3.83-13,12.72-14,21.77-15.77,4.07-30.45,13.51-35.89,29.6-10.74,31.8,30.73,36.9,52.57,35.8C424.66,189.67,482.72,180.9,479,145.54Z" transform="translate(-123.05 -44.78)"/><path class="cls-3" d="M381.55,134.88c-13.82,2.63-29.67,20.66-19.21,34.55,3.91,5.21,11.21,7.43,17.38,8.26,4.7.64,16.08,1.73,19.57-2.47.43-.52.37-1.54-.45-1.68-1.95-.35-3.86.51-5.8.84a43.75,43.75,0,0,1-9.29.49c-5.63-.27-12.05-1.16-16.73-4.58-6.38-4.67-6.26-13.49-2.82-19.95A27.33,27.33,0,0,1,382,136.69c1.19-.26.68-2-.49-1.81Z" transform="translate(-123.05 -44.78)"/><path class="cls-3" d="M397.94,118.1c7.6-5.15,15.1-7.27,24.23-5a38.53,38.53,0,0,1,10.95,4.55c3,1.83,5.69,5.36,9.11,6.06a.86.86,0,0,0,1-1c-.62-3.68-5.37-6.31-8.39-8A38.64,38.64,0,0,0,421.43,110c-8.33-1.18-18.42.62-24,7.45-.3.36.09,1,.54.7Z" transform="translate(-123.05 -44.78)"/><path class="cls-3" d="M462.48,138.3c5.21,7.85,5.88,16.61-2.56,22.34-6.66,4.51-13.85,4.2-21.12,6.62a.83.83,0,0,0,0,1.58c8,2.41,19.85-2.1,25.45-7.93,6.74-7,4.55-16-.51-23.34-.53-.76-1.78,0-1.26.73Z" transform="translate(-123.05 -44.78)"/><path class="cls-3" d="M466.69,122.6c2-6.68,12.54-11.08,18.26-6.5,1.35,1.07,3.27-.78,1.93-1.93-6.69-5.68-19.93-.4-21.32,8.12a.59.59,0,0,0,1.13.31Z" transform="translate(-123.05 -44.78)"/><path class="cls-3" d="M428.83,136.86c5.36-.33,11.37,2.17,11.92,8.2.57,6.31-4.93,7.75-9.35,10.13-.43.23-.39,1,.14,1.12,6.27.91,11.88-5.32,11.19-11.38-.79-7-7.55-10.09-13.9-9.35-.79.09-.83,1.33,0,1.28Z" transform="translate(-123.05 -44.78)"/><path class="cls-3" d="M513.85,125.64A3.23,3.23,0,0,0,511,123a18.51,18.51,0,0,0-6.7.65,32.76,32.76,0,0,0-12.07,6.11c-6.57,5.08-7.18,12.58-8.81,20.07-2.24,10.27,8.15,6.28,13.44,3.84,6.3-2.9,11.27-9.5,14.3-15.53C512.32,135.88,514.81,129.37,513.85,125.64Z" transform="translate(-123.05 -44.78)"/><circle class="cls-7" cx="504.62" cy="240.1" r="24.22"/><circle class="cls-19" cx="504.44" cy="239.92" r="21.16"/><polygon class="cls-29" points="92.14 2.04 58.43 46.99 107.13 76.95 141.77 32.01 92.14 2.04"/><polygon class="cls-30" points="2.95 178.67 41.47 172.07 30.46 210.59 2.95 178.67"/><path class="cls-31" d="M242.78,155.22c.86,4.28,1.44,8.59,1.91,12.9s.81,8.62,1.1,12.95l.31,6.48c.05,2.17.16,4.33.15,6.5.05,4.34,0,8.68-.35,13-.86-4.29-1.44-8.59-1.91-12.9-.26-2.15-.42-4.31-.63-6.47l-.47-6.48c-.23-4.32-.42-8.65-.45-13S242.44,159.57,242.78,155.22Z" transform="translate(-123.05 -44.78)"/><path class="cls-31" d="M270.28,182.65c-4.35.35-8.7.41-13,.38s-8.67-.21-13-.43l-6.48-.45c-2.16-.2-4.32-.35-6.47-.61-4.32-.46-8.62-1-12.91-1.88,4.36-.35,8.7-.42,13-.38,2.17,0,4.33.08,6.5.13l6.49.3c4.32.27,8.64.58,12.95,1.06S266,181.8,270.28,182.65Z" transform="translate(-123.05 -44.78)"/><path class="cls-31" d="M260,168.91a87.24,87.24,0,0,1-7.13,7q-3.72,3.32-7.64,6.38t-8,5.86a82.78,82.78,0,0,1-8.53,5.23,87.39,87.39,0,0,1,7.14-7c2.48-2.21,5-4.34,7.63-6.37s5.29-4,8-5.86A85.63,85.63,0,0,1,260,168.91Z" transform="translate(-123.05 -44.78)"/><path class="cls-31" d="M231.64,166.38a84.38,84.38,0,0,1,7.21,6.65c2.27,2.33,4.48,4.71,6.59,7.18s4.15,5,6.11,7.59a80.77,80.77,0,0,1,5.49,8.12,81.13,81.13,0,0,1-7.2-6.64c-2.28-2.33-4.49-4.71-6.6-7.18s-4.15-5-6.1-7.6A82.58,82.58,0,0,1,231.64,166.38Z" transform="translate(-123.05 -44.78)"/><path class="cls-32" d="M609.7,103.51a11.33,11.33,0,0,0-14.56,2.83l-19.35,25.8a9,9,0,0,0,2.51,13.24l28.25,17.39a11.39,11.39,0,0,0,14.62-2.68l20-26A8.74,8.74,0,0,0,638.73,121Z" transform="translate(-123.05 -44.78)"/><polygon class="cls-33" points="468.01 191.35 513.84 183.49 500.75 229.32 468.01 191.35"/><path class="cls-31" d="M689.09,221.56c1.42,7.11,2.37,14.25,3.16,21.4s1.39,14.31,1.83,21.48.71,14.35.76,21.54,0,14.4-.58,21.63c-1.43-7.11-2.38-14.25-3.17-21.4s-1.38-14.31-1.82-21.48-.71-14.35-.76-21.55S688.53,228.79,689.09,221.56Z" transform="translate(-123.05 -44.78)"/><path class="cls-31" d="M734.71,267.06c-7.23.58-14.44.69-21.63.63s-14.37-.3-21.54-.71-14.34-1-21.49-1.76-14.29-1.7-21.41-3.12c7.23-.58,14.43-.69,21.63-.63s14.37.3,21.54.71,14.34,1,21.49,1.77S727.59,265.65,734.71,267.06Z" transform="translate(-123.05 -44.78)"/><path class="cls-31" d="M717.65,244.28a149.21,149.21,0,0,1-11.83,11.64q-6.17,5.49-12.66,10.56c-4.33,3.38-8.76,6.64-13.31,9.74a145.72,145.72,0,0,1-14.15,8.66,149.09,149.09,0,0,1,11.82-11.64q6.16-5.49,12.67-10.55c4.33-3.38,8.76-6.64,13.31-9.74A149.85,149.85,0,0,1,717.65,244.28Z" transform="translate(-123.05 -44.78)"/><path class="cls-31" d="M670.6,240.08a142.44,142.44,0,0,1,12,11C686.35,255,690,258.93,693.5,263s6.9,8.28,10.14,12.59a142.81,142.81,0,0,1,9.11,13.49,141,141,0,0,1-12-11q-5.67-5.79-10.93-11.92t-10.14-12.59A144,144,0,0,1,670.6,240.08Z" transform="translate(-123.05 -44.78)"/><path class="cls-31" d="M260.58,360.36c1.42,7.12,2.37,14.26,3.16,21.4s1.39,14.32,1.83,21.49.71,14.35.76,21.54,0,14.39-.58,21.62c-1.43-7.11-2.38-14.25-3.17-21.4s-1.38-14.31-1.82-21.48-.71-14.35-.76-21.54S260,367.6,260.58,360.36Z" transform="translate(-123.05 -44.78)"/><path class="cls-31" d="M306.2,405.87c-7.23.58-14.43.68-21.63.63s-14.37-.31-21.54-.71-14.34-1-21.49-1.76-14.29-1.7-21.41-3.12c7.23-.59,14.43-.69,21.63-.63s14.37.3,21.54.71,14.34,1,21.49,1.77S299.08,404.46,306.2,405.87Z" transform="translate(-123.05 -44.78)"/><path class="cls-31" d="M289.14,383.09a151,151,0,0,1-11.83,11.64q-6.17,5.49-12.66,10.56T251.34,415a147.72,147.72,0,0,1-14.15,8.66A147.39,147.39,0,0,1,249,412.05q6.17-5.49,12.67-10.56T275,391.75A147.72,147.72,0,0,1,289.14,383.09Z" transform="translate(-123.05 -44.78)"/><path class="cls-31" d="M242.09,378.89a140.91,140.91,0,0,1,12,11q5.67,5.77,10.93,11.91t10.15,12.59a142.57,142.57,0,0,1,9.1,13.48,137.81,137.81,0,0,1-12-11Q266.6,411.1,261.34,405T251.2,392.37A144,144,0,0,1,242.09,378.89Z" transform="translate(-123.05 -44.78)"/></svg>