<svg id="Layer_1" data-name="Layer 1" xmlns="http://www.w3.org/2000/svg" viewBox="0 0 502 502"><defs><style>.cls-1{fill:#a9efff;}.cls-2{fill:#ffbb64;}.cls-3{fill:#6e563d;}.cls-4{fill:#ff3d43;}.cls-5{fill:#d72e2e;}.cls-6{fill:#f78819;}.cls-7{fill:#ffad47;}</style></defs><title>Animal1</title><circle class="cls-1" cx="251" cy="251" r="251"/><path class="cls-2" d="M1140.36,519.23c-2.5-3.2-4.66-6-5.79-7.57-4.72-6.74-20.19-9.86-30.23-11.21V470.82a5.63,5.63,0,0,0-6.64-5.55c-1.52.27-36.41,6.92-47.94,40.18-7.14,3.36-26,14.73-32.78,43.06-1.07,4.48-2,9.39-2.87,14.59-5.84,32.78-13.83,77.68-85.3,107.65-48.91,20.51-65.57,70-61.28,111.16-23.11-11.56-36.89-30.8-41-57.28-5.25-33.9,2.54-60,23.16-77.43A86.15,86.15,0,0,1,883.77,630a17.81,17.81,0,1,0-6.57-35,120.25,120.25,0,0,0-49.57,24.26c-21.32,17.66-44.92,51.21-36.3,110.79,4.18,28.87,17.48,55.71,37.45,75.56,18.37,18.25,40.71,29.41,63.14,31.58C901,845.57,911.81,850,923.37,850h126.82a5.64,5.64,0,0,0,5.63-5.27c0-.63.92-15.66-9.26-26.54-6-6.44-14.42-10-25-10.58,12.57-6.91,20.74-16.75,24.15-29l19.87,56.16A22.93,22.93,0,0,0,1087.15,850h42.12a5.64,5.64,0,0,0,5.64-5.64c0-11.71-6.09-21.63-17.63-28.69a60.27,60.27,0,0,0-12.24-5.62V747c15.35-19.47,22.63-40.91,21.64-63.75-.91-21-8.62-35.43-10.16-38.12l-.68-1.17c-3.59-6.23-13.14-22.77-8.79-31.87,1.83-3.83,6.4-6.34,13.59-7.46,16.43-2.58,28.42-12,34.65-27.29a69.94,69.94,0,0,0,4.74-26.49C1160,545.32,1154,536.62,1140.36,519.23Z" transform="translate(-739 -407)"/><path class="cls-3" d="M1115,545.14a8.21,8.21,0,1,1,8.2-8.2A8.21,8.21,0,0,1,1115,545.14Z" transform="translate(-739 -407)"/><path class="cls-4" d="M1111,635c-5.17-10.74-5.43-17-4.73-20.41a5.64,5.64,0,0,0-5.4-6.78c-29.68-.66-49.75-9.18-61.36-16.21-12.56-7.6-18.22-15.15-18.27-15.21a5.64,5.64,0,0,0-10.07,2.11A138.88,138.88,0,0,1,1002.8,605a5.64,5.64,0,0,0,1.77,6.77A154.53,154.53,0,0,0,1098,643.29c3,0,5.78-.09,8.26-.24A5.64,5.64,0,0,0,1111,635Z" transform="translate(-739 -407)"/><path class="cls-5" d="M1106.25,614.56a5.64,5.64,0,0,0-5.4-6.78c-5.26-.12-10.21-.48-14.87-1a11.56,11.56,0,0,0-6.09,5.38c-4.13,8.64,4.27,24,8.2,30.84,3.52.23,6.83.33,9.87.33s5.78-.09,8.26-.24A5.64,5.64,0,0,0,1111,635C1105.81,624.23,1105.55,618,1106.25,614.56Z" transform="translate(-739 -407)"/><path class="cls-6" d="M1158.15,568.27a76.86,76.86,0,0,0,1.89-17.39c0-3.31-2.15-7.72-6.74-14.4-4.11,2.81-9.56,10.25-9.56,14.4,0,1.3,0,4.36,7.13,11.48A35,35,0,0,0,1158.15,568.27Z" transform="translate(-739 -407)"/><path class="cls-7" d="M1110.76,640.28a5.6,5.6,0,0,1-4.54,2.77c-2.48.15-5.25.24-8.26.24s-6.35-.1-9.87-.33l.59,1,.68,1.17c1.53,2.69,9.25,17.16,10.16,38.11,1,22.85-6.29,44.29-21.64,63.76v63a60.27,60.27,0,0,1,12.24,5.62c11.54,7.06,17.63,17,17.63,28.68a5.64,5.64,0,0,1-5.64,5.65h27.16a5.65,5.65,0,0,0,5.65-5.65c0-11.71-6.1-21.62-17.64-28.68a60,60,0,0,0-12.24-5.62V747c15.35-19.47,22.63-40.91,21.64-63.76-.91-20.95-8.62-35.42-10.16-38.11l-.67-1.17a109.62,109.62,0,0,1-6.93-13.7c.58,1.46,1.26,3,2.06,4.68A5.62,5.62,0,0,1,1110.76,640.28Z" transform="translate(-739 -407)"/><path class="cls-7" d="M1055.82,844.73c0-.63.92-15.66-9.26-26.55-6-6.43-14.42-10-25-10.57H999.7s36.77,16.83,22.84,41.79c-.08.15.35.36.83.6h26.82A5.65,5.65,0,0,0,1055.82,844.73Z" transform="translate(-739 -407)"/></svg>