<svg id="Layer_1" data-name="Layer 1" xmlns="http://www.w3.org/2000/svg" viewBox="0 0 502 502"><defs><style>.cls-1{fill:#ffd9d9;}.cls-2{fill:#6e563d;}.cls-3{fill:#604b35;}.cls-4{fill:#a58260;}.cls-5{fill:#85684a;}.cls-6{fill:#464649;}.cls-7{fill:#ffdf65;}.cls-8{fill:#ffcd2c;}</style></defs><title>Animal2</title><circle class="cls-1" cx="251" cy="251" r="251"/><path class="cls-2" d="M1110,803.79V706.15a5.34,5.34,0,0,0-9.12-3.76,39.94,39.94,0,0,1-28.5,11.85,5.33,5.33,0,0,0-5.34,5.33v99.15a5.34,5.34,0,0,0,5.34,5.34c10,0,16.77,4,20.25,11.85a5.34,5.34,0,0,0,4.88,3.18h34.79a5.35,5.35,0,0,0,5.33-5.52C1137.58,833.28,1136.31,806.94,1110,803.79Z" transform="translate(-739 -407)"/><path class="cls-3" d="M1110,724.8V706.15a5.34,5.34,0,0,0-9.12-3.76,39.94,39.94,0,0,1-28.5,11.85,5.33,5.33,0,0,0-5.34,5.33v20.5C1086.13,738.9,1100.62,732.1,1110,724.8Z" transform="translate(-739 -407)"/><path class="cls-2" d="M1017,715.62a5.32,5.32,0,0,0-4.83-3.08H946a5.35,5.35,0,0,0-4.59,2.61c-6.55,11-17.19,21.25-31.61,30.33a5.32,5.32,0,0,0-2.49,4.51v61.54a27.59,27.59,0,0,0,27.56,27.56H979a5.35,5.35,0,0,0,5.34-5.52c0-.29-1.28-26.63-27.63-29.78V760.35c10.47-3.83,40.37-16.26,59.53-39.05A5.32,5.32,0,0,0,1017,715.62Z" transform="translate(-739 -407)"/><path class="cls-3" d="M1012.14,712.54H946a5.32,5.32,0,0,0-4.58,2.61,81.91,81.91,0,0,1-18.9,21.23h77.94a106.29,106.29,0,0,0,15.78-15.08,5.33,5.33,0,0,0-4.08-8.76Z" transform="translate(-739 -407)"/><path class="cls-4" d="M1190,543.12l-42-17.52-12.71-16.81a59.67,59.67,0,0,0-47.35-23.56,46.52,46.52,0,0,0-43,28.6l-35.56,84.79h-74.1a69.07,69.07,0,0,0-35.45,9.74c-12.84-8.1-22-18.56-27.21-31.13-13.59-32.71,2.31-71.16,2.46-71.52a14.68,14.68,0,0,0-27-11.63l-.12.28a163.88,163.88,0,0,0-11.07,34.37c-4.85,23.88-3.5,45.19,4,63.34a115,115,0,0,0,32.48,44.67,67.57,67.57,0,0,0-7,34.56q.08,1,.15,2.07c1.5,18.36-10.53,42.32-21.28,57.26a58.36,58.36,0,0,0-11.13,34.29v56.52A27.59,27.59,0,0,0,861.61,849h44.13a5.33,5.33,0,0,0,3.84-1.63,5.28,5.28,0,0,0,1.49-3.89c0-.29-1.27-26.63-27.63-29.78V770.27c11.67-4.27,47.33-19.14,65.5-47.06h79.33v98.23A27.6,27.6,0,0,0,1055.83,849H1100a5.33,5.33,0,0,0,5.33-5.52c0-.29-1.28-26.63-27.63-29.78V724.63A51,51,0,0,0,1123.23,674V597.27h20.16a50.31,50.31,0,0,0,38-16.9,47.74,47.74,0,0,0,11.9-32.33A5.34,5.34,0,0,0,1190,543.12Z" transform="translate(-739 -407)"/><path class="cls-5" d="M859.27,770.27v48.12c26.35,3.14,27.61,24.8,27.62,25.09a5.28,5.28,0,0,1-1.49,3.89,5.33,5.33,0,0,1-3.84,1.63h24.12a5.21,5.21,0,0,0,2-.36,5.34,5.34,0,0,0,3.39-5.16c0-.29-1.27-26.63-27.63-29.78V770.27c11.67-4.27,47.33-19.14,65.5-47.06H932.1a14.21,14.21,0,0,0-11.23,5.45C901.9,753.08,870.15,766.28,859.27,770.27Z" transform="translate(-739 -407)"/><path class="cls-5" d="M1119.21,597.27h-8.06a12.09,12.09,0,0,0-12.09,12.09V674a51,51,0,0,1-37.78,49.18,10.37,10.37,0,0,0-7.79,10v85.22c26.36,3.14,27.62,24.8,27.63,25.09a5.33,5.33,0,0,1-5.33,5.52h24.12a5.28,5.28,0,0,0,2-.36,5.35,5.35,0,0,0,3.39-5.16c0-.29-1.27-26.63-27.63-29.78V724.63A51,51,0,0,0,1123.23,674V597.27l-.11-.16C1121.83,597.2,1120.53,597.27,1119.21,597.27Z" transform="translate(-739 -407)"/><path class="cls-3" d="M1091.08,590a5.21,5.21,0,0,1-1.41-.19c-1.18-.33-29-8.31-34.74-39.83a5.34,5.34,0,0,1,10.5-1.91,40.45,40.45,0,0,0,23.94,30.28c11.7-16.24,4.09-41.25,4-41.52a5.33,5.33,0,1,1,10.18-3.18,77.86,77.86,0,0,1,3,19.24c.42,14.57-3.56,26.81-11.51,35.4A5.31,5.31,0,0,1,1091.08,590Z" transform="translate(-739 -407)"/><path class="cls-6" d="M1018,597.05a5.34,5.34,0,0,1-3.81-1.6L915.62,494.79a5.33,5.33,0,0,1,7.62-7.46L1021.81,588a5.34,5.34,0,0,1-3.81,9.07Z" transform="translate(-739 -407)"/><path class="cls-7" d="M1119.78,612.41l-95.61-35.93a5.32,5.32,0,0,0-6.79,2.93L1008,601.89A5.34,5.34,0,0,0,1011,609l105,38.63a5.33,5.33,0,0,0,7.17-5V617.4A5.32,5.32,0,0,0,1119.78,612.41Z" transform="translate(-739 -407)"/><path class="cls-8" d="M1119.78,612.41l-21.08-7.92v36.72l17.36,6.38a5.33,5.33,0,0,0,7.17-5V617.4A5.32,5.32,0,0,0,1119.78,612.41Z" transform="translate(-739 -407)"/><path class="cls-3" d="M1121.35,544.57a7.65,7.65,0,1,1,7.65-7.64A7.65,7.65,0,0,1,1121.35,544.57Z" transform="translate(-739 -407)"/><path class="cls-3" d="M1190,543.12l-19.16-8c-2.5,11.74,6.5,23,13.5,27.07a5.54,5.54,0,0,0,1.23.52,14.53,14.53,0,0,0,3.85.54,11.38,11.38,0,0,0,1.66-.12,51,51,0,0,0,2.21-15.1A5.34,5.34,0,0,0,1190,543.12Z" transform="translate(-739 -407)"/></svg>