<svg id="Layer_1" data-name="Layer 1" xmlns="http://www.w3.org/2000/svg" viewBox="0 0 502 502"><defs><style>.cls-1{fill:#7a64ff;}.cls-2{fill:#60d4fd;}.cls-3{fill:#33aee5;}.cls-4{fill:#ffd84b;}.cls-5{fill:#ffc200;}.cls-6{fill:#ff7225;}.cls-7{fill:#f50;}</style></defs><title>Animal4</title><circle class="cls-1" cx="251" cy="251" r="251"/><path class="cls-2" d="M581.16,281.65V247.27a11.46,11.46,0,0,0-11.47-11.46H546.75a57.39,57.39,0,0,0-57.35,57.3v19.75a280,280,0,0,1,18.5,34.5,7.7,7.7,0,0,1,0,6.12,277,277,0,0,1-18.49,34.6v19.63A57.4,57.4,0,0,0,546.75,465h22.94a11.46,11.46,0,0,0,11.47-11.46V419.17a80.23,80.23,0,0,0-39-68.76A80.24,80.24,0,0,0,581.16,281.65Z" transform="translate(-135 -104)"/><path class="cls-3" d="M581.16,419.17v34.38A11.47,11.47,0,0,1,569.69,465H546.75a57.39,57.39,0,0,1-57.35-57.3V388.09a278.42,278.42,0,0,0,18.49-34.61,7.65,7.65,0,0,0,.64-3.07h33.66A80.24,80.24,0,0,1,581.16,419.17Z" transform="translate(-135 -104)"/><path class="cls-3" d="M351.18,484.1a129.42,129.42,0,0,1-43.71-7.54A84,84,0,0,0,386.94,533h45.11a11.47,11.47,0,0,0,11.47-11.46V443.71C414.27,470.15,382.45,484.1,351.18,484.1Z" transform="translate(-135 -104)"/><path class="cls-2" d="M433,144.89H365.69c-48.11,0-86.45,41.5-82.68,90.72,21.38-12.56,44.2-18.9,68.17-18.9,36,0,67.61,17.52,93.29,41.16V156.35A11.47,11.47,0,0,0,433,144.89Z" transform="translate(-135 -104)"/><path class="cls-4" d="M511.39,345.81c-24-54.1-83-132.92-160.21-132.92C278,212.89,222.35,271.53,193.72,339c-5,11.67-4.94,11.39,0,22.92,28.56,66.38,83.93,126.05,157.43,126.05,75.46,0,135-76,160.21-132.91A11.42,11.42,0,0,0,511.39,345.81Z" transform="translate(-135 -104)"/><path class="cls-5" d="M190,350.41a15.75,15.75,0,0,0,1.06,5c.49,1.36,1.25,3.14,1.63,4,29.73,68.63,83.91,128.5,158.48,128.5,71.42,0,132.13-69.55,160.21-132.91a11.38,11.38,0,0,0,1-4.6Z" transform="translate(-135 -104)"/><path class="cls-6" d="M260,350.41a11.48,11.48,0,0,1-11.48,11.46H193.75c-5-11.66-5-11.33,0-22.92h54.81A11.47,11.47,0,0,1,260,350.41Z" transform="translate(-135 -104)"/><path class="cls-7" d="M260,350.41a11.48,11.48,0,0,1-11.48,11.46H193.75l-.74-1.75-.31-.7c-.41-1-.77-1.82-1.09-2.62-.2-.5-.37-1-.54-1.41,0,0,0,0,0-.05-.25-.69-.46-1.32-.62-1.92-.05-.19-.1-.38-.14-.58s-.06-.24-.08-.36-.05-.27-.07-.4a8,8,0,0,1-.11-.84,7.81,7.81,0,0,1,0-.83Z" transform="translate(-135 -104)"/><path class="cls-6" d="M305.88,304.57A11.47,11.47,0,1,0,294.42,316,11.46,11.46,0,0,0,305.88,304.57Z" transform="translate(-135 -104)"/><path class="cls-2" d="M364,419.17a11.47,11.47,0,0,1-11.47-11.46V293.11a11.47,11.47,0,0,1,22.94,0v114.6A11.47,11.47,0,0,1,364,419.17Z" transform="translate(-135 -104)"/><path class="cls-3" d="M375.47,350.41v57.3a11.47,11.47,0,0,1-22.94,0v-57.3Z" transform="translate(-135 -104)"/><path class="cls-2" d="M409.11,411.53a11.47,11.47,0,0,1-11.47-11.46V300.75a11.47,11.47,0,0,1,22.94,0v99.32A11.46,11.46,0,0,1,409.11,411.53Z" transform="translate(-135 -104)"/><path class="cls-3" d="M420.58,350.41v49.66a11.47,11.47,0,0,1-22.94,0V350.41Z" transform="translate(-135 -104)"/></svg>