<svg id="Layer_1" data-name="Layer 1" xmlns="http://www.w3.org/2000/svg" viewBox="0 0 502 502"><defs><style>.cls-1{fill:#fce5ca;}.cls-2{fill:#fd6f71;}.cls-3{fill:#e34b4c;}.cls-4{fill:#3a484a;}</style></defs><title>Animal3</title><circle class="cls-1" cx="251" cy="251" r="251"/><path class="cls-2" d="M864.6,628.56a37.62,37.62,0,0,1-.6-20l5.13-21a12.34,12.34,0,1,0-24-5.86l-5.13,21a62.41,62.41,0,0,0,.27,30.67l13.57,5.47Z" transform="translate(-739 -407)"/><path class="cls-2" d="M1121.94,628.56a37.62,37.62,0,0,0,.6-20l-5.13-21a12.34,12.34,0,1,1,24-5.86l5.14,21a62.52,62.52,0,0,1-.28,30.67l-13.57,5.47Z" transform="translate(-739 -407)"/><path class="cls-3" d="M894.88,672a12.34,12.34,0,0,1-12.35,12.34c-5.86,0-8.33-2.74-15.67-10.89-3.26-3.62-7.69-8.63-13.17-14.89a62.39,62.39,0,0,1-13.4-25.26,22.58,22.58,0,0,1,24.31-4.77,37.67,37.67,0,0,0,7.67,13.77c12.86,14.7,16.71,18.82,17.84,19.95A12.31,12.31,0,0,1,894.88,672Z" transform="translate(-739 -407)"/><path class="cls-3" d="M1091.67,672A12.33,12.33,0,0,0,1104,684.37c5.87,0,8.34-2.74,15.67-10.89,3.26-3.62,7.7-8.63,13.18-14.89a62.49,62.49,0,0,0,13.39-25.26,22.58,22.58,0,0,0-24.31-4.77,37.64,37.64,0,0,1-7.66,13.77c-12.87,14.7-16.72,18.82-17.85,19.95A12.33,12.33,0,0,0,1091.67,672Z" transform="translate(-739 -407)"/><path class="cls-2" d="M870.64,741.81c-3.57,7-2.8,15-.24,22.31a66.15,66.15,0,0,0,5.7,12l.14.22a8,8,0,0,1-13.37,8.86,80.5,80.5,0,0,1-8.63-14.48c-5.92-12.88-7.15-27-.86-40.09.38-.79.78-1.56,1.22-2.31h12.86Z" transform="translate(-739 -407)"/><path class="cls-3" d="M905.86,713l-12.21,8.88c-7.61,5.52-17,10-22.11,18.28a18.26,18.26,0,0,0-.9,1.61,22.58,22.58,0,0,1-16-13.5c5.72-10,15.79-17.35,24.3-24.83l11.34-10a12.52,12.52,0,0,1,17.66,1.14A12.7,12.7,0,0,1,905.86,713Z" transform="translate(-739 -407)"/><path class="cls-2" d="M921,765.34c-1.63,7.69,1.18,15.2,5.56,21.6a66.41,66.41,0,0,0,8.62,10.1l.19.18a8,8,0,0,1-10.61,12,81.41,81.41,0,0,1-12.1-11.74c-9.06-10.91-13.92-24.26-11.25-38.49.17-.86.36-1.71.58-2.55l12.42-3.34Z" transform="translate(-739 -407)"/><path class="cls-3" d="M947.49,728.4,938,740.15c-5.92,7.31-13.82,14.11-16.61,23.4a17.11,17.11,0,0,0-.44,1.78,22.6,22.6,0,0,1-19-8.86c2.92-11.17,10.75-20.85,17-30.29,5-7.55,8.36-12.57,8.36-12.57a12.52,12.52,0,0,1,17.35-3.5A12.7,12.7,0,0,1,947.49,728.4Z" transform="translate(-739 -407)"/><path class="cls-2" d="M1115.9,741.81c3.57,7,2.81,15,.25,22.31a66.87,66.87,0,0,1-5.71,12l-.13.22a8,8,0,0,0,13.36,8.86,81.13,81.13,0,0,0,8.64-14.48c5.91-12.88,7.14-27,.86-40.09-.38-.79-.79-1.56-1.22-2.31h-12.87Z" transform="translate(-739 -407)"/><path class="cls-3" d="M1080.68,713l12.21,8.88c7.61,5.52,17,10,22.11,18.28a16,16,0,0,1,.9,1.61,22.62,22.62,0,0,0,16-13.5c-5.72-10-15.8-17.35-24.31-24.83l-11.34-10a12.52,12.52,0,0,0-17.66,1.14A12.7,12.7,0,0,0,1080.68,713Z" transform="translate(-739 -407)"/><path class="cls-2" d="M1065.59,765.34c1.62,7.69-1.19,15.2-5.56,21.6a66.47,66.47,0,0,1-8.63,10.1l-.19.18a8,8,0,0,0,10.61,12,81.41,81.41,0,0,0,12.1-11.74c9.06-10.91,13.93-24.26,11.25-38.49-.17-.86-.35-1.71-.58-2.55l-12.42-3.34Z" transform="translate(-739 -407)"/><path class="cls-3" d="M1039.06,728.4l9.48,11.75c5.91,7.31,13.82,14.11,16.6,23.4.18.6.33,1.19.45,1.78a22.59,22.59,0,0,0,19-8.86c-2.92-11.17-10.74-20.85-17-30.29-5-7.55-8.36-12.57-8.36-12.57a12.52,12.52,0,0,0-17.35-3.5A12.7,12.7,0,0,0,1039.06,728.4Z" transform="translate(-739 -407)"/><path class="cls-2" d="M993.27,722.44a176.36,176.36,0,0,1,48.23,6.43c8.87,2.5,17.81,6.21,27.12,6.14,28.67-.22,49.91-25.57,48.2-54.94C1113,614.39,1049.65,574.7,993.27,574.7S873.55,614.39,869.72,680.07C868,709.44,889.26,734.79,917.93,735c9.3.07,18.25-3.64,27.11-6.14A176.46,176.46,0,0,1,993.27,722.44Z" transform="translate(-739 -407)"/><path class="cls-4" d="M936.4,703.38a5,5,0,0,1-5-5V688a5,5,0,0,1,10.09,0v10.3A5,5,0,0,1,936.4,703.38Z" transform="translate(-739 -407)"/><path class="cls-4" d="M1050.14,703.38a5,5,0,0,1-5-5V688a5,5,0,0,1,10.08,0v10.3A5,5,0,0,1,1050.14,703.38Z" transform="translate(-739 -407)"/><path class="cls-4" d="M993.27,708.88a23.63,23.63,0,0,1-17.83-7.94A5,5,0,1,1,983,694.3a13.94,13.94,0,0,0,20.48,0,5,5,0,1,1,7.59,6.64A23.6,23.6,0,0,1,993.27,708.88Z" transform="translate(-739 -407)"/><path class="cls-3" d="M912.69,547.39a3.14,3.14,0,0,0-5.66-1.63c-4.88,6.69-12.13,11.75-18,15.08a6.64,6.64,0,0,1-9.89-6.35c1.52-17.36,11.38-30.15,15.94-35.22a3.16,3.16,0,0,0-.48-4.64,42,42,0,0,0-25.13-8.35c-24,0-43.38,20.21-43.38,45.14s19.42,45.14,43.38,45.14,43.37-20.21,43.37-45.14C912.86,550.06,912.81,548.72,912.69,547.39Z" transform="translate(-739 -407)"/><path class="cls-3" d="M1073.85,547.39a3.14,3.14,0,0,1,5.66-1.63c4.88,6.69,12.13,11.75,18,15.08a6.64,6.64,0,0,0,9.9-6.35c-1.53-17.36-11.38-30.15-15.94-35.22a3.15,3.15,0,0,1,.47-4.64,42,42,0,0,1,25.14-8.35c24,0,43.37,20.21,43.37,45.14s-19.42,45.14-43.37,45.14-43.38-20.21-43.38-45.14C1073.68,550.06,1073.74,548.72,1073.85,547.39Z" transform="translate(-739 -407)"/></svg>