<svg id="Layer_1" data-name="Layer 1" xmlns="http://www.w3.org/2000/svg" viewBox="0 0 294.45 294.45"><defs><style>.cls-1{fill:#66baed;}.cls-2{fill:#3d4159;}.cls-3{fill:#f2f0ec;}.cls-4{fill:#713775;}.cls-5{fill:#f74f4f;}.cls-6{fill:#3fb777;}.cls-7{fill:#dde8ed;}.cls-8{fill:#bfd5de;}.cls-9{fill:#eab599;}.cls-10{fill:#f6caae;}.cls-11{fill:#fff;}.cls-12{fill:#e8c934;}.cls-13{fill:#ffe152;}</style></defs><title>Face3</title><path class="cls-1" d="M376.72,376.77A147.23,147.23,0,1,1,229.49,229.55,147.23,147.23,0,0,1,376.72,376.77Z" transform="translate(-82.27 -229.55)"/><path class="cls-2" d="M171,229.55H358.27A18.45,18.45,0,0,1,376.72,248v176.6A18.45,18.45,0,0,1,358.27,443H171a18.44,18.44,0,0,1-18.44-18.45V248A18.44,18.44,0,0,1,171,229.55Z" transform="translate(-82.27 -229.55)"/><path class="cls-3" d="M171,431a6.43,6.43,0,0,1-6.43-6.43V248a6.44,6.44,0,0,1,6.43-6.42H358.27A6.43,6.43,0,0,1,364.7,248v176.6a6.43,6.43,0,0,1-6.43,6.43Z" transform="translate(-82.27 -229.55)"/><path class="cls-4" d="M187.81,391.28H353.5v16.9H187.81Z" transform="translate(-82.27 -229.55)"/><path class="cls-4" d="M197.39,256h19.16v120.6H197.39Z" transform="translate(-82.27 -229.55)"/><path class="cls-5" d="M239.85,276.94H259v99.68H239.85Z" transform="translate(-82.27 -229.55)"/><path class="cls-1" d="M282.3,256h19.17v120.6H282.3Z" transform="translate(-82.27 -229.55)"/><path class="cls-6" d="M324.76,301.1h19.16v75.52H324.76Z" transform="translate(-82.27 -229.55)"/><path class="cls-7" d="M298.35,474.77v32.16a145,145,0,0,1-18,8q-6.19,2.29-12.66,4V474.77Z" transform="translate(-82.27 -229.55)"/><path class="cls-8" d="M280.37,474.77V515q-6.19,2.29-12.66,4V474.77Z" transform="translate(-82.27 -229.55)"/><path class="cls-9" d="M326.84,465.91a8.85,8.85,0,0,1-8.85,8.86H267.71v-8.86a8.85,8.85,0,0,1,8.85-8.85H318a8.84,8.84,0,0,1,6.26,2.59,8.93,8.93,0,0,1,2,3A8.78,8.78,0,0,1,326.84,465.91Z" transform="translate(-82.27 -229.55)"/><path class="cls-10" d="M326.21,462.63a8.85,8.85,0,0,1-8.22,5.58H267.71v-2.3a8.85,8.85,0,0,1,8.85-8.85H318a8.84,8.84,0,0,1,6.26,2.59A8.93,8.93,0,0,1,326.21,462.63Z" transform="translate(-82.27 -229.55)"/><path class="cls-8" d="M258.76,488.1v16.82a146.33,146.33,0,0,1-50.92,17.5,146.61,146.61,0,0,1-66.2-27.49,148.24,148.24,0,0,1-25.23-23.88,54.74,54.74,0,0,1,47.52-37.48c1.48-.12,3-.18,4.48-.18H204a54.64,54.64,0,0,1,54.72,54.71Z" transform="translate(-82.27 -229.55)"/><path class="cls-7" d="M258.76,488.1v33a147.6,147.6,0,0,1-117.12-26.16V488.1a54.72,54.72,0,0,1,54.72-54.71H204A54.71,54.71,0,0,1,258.76,488.1Z" transform="translate(-82.27 -229.55)"/><path class="cls-5" d="M200.91,453.13l-14.69,23.56-14.68-23.56" transform="translate(-82.27 -229.55)"/><path class="cls-5" d="M199.14,520.86a146.61,146.61,0,0,1-24-7.21l11.07-43.09Z" transform="translate(-82.27 -229.55)"/><path class="cls-8" d="M186.22,455.79l-24.63,13.69-7.49-34.85,15.3-9" transform="translate(-82.27 -229.55)"/><path class="cls-8" d="M186.22,455.79l24.63,13.69,7.49-34.85-15.3-9" transform="translate(-82.27 -229.55)"/><path class="cls-8" d="M208.46,486.3h29.45v9H208.46Z" transform="translate(-82.27 -229.55)"/><path class="cls-9" d="M205.76,412.32v23.95a19.52,19.52,0,1,1-39,0V412.32Z" transform="translate(-82.27 -229.55)"/><path class="cls-10" d="M205.76,434.75v1.52A19.53,19.53,0,0,1,192,454.92a19.52,19.52,0,0,1-13.59-16.11c1.3.08,2.62.12,3.93.12a66.63,66.63,0,0,0,10.84-.87A65.83,65.83,0,0,0,205.76,434.75Z" transform="translate(-82.27 -229.55)"/><path class="cls-10" d="M132.69,373.06A18.16,18.16,0,0,1,117.44,391a18.41,18.41,0,0,1-2.9.23,18.16,18.16,0,1,1,0-36.31,17.28,17.28,0,0,1,2.9.24A18.15,18.15,0,0,1,132.69,373.06Z" transform="translate(-82.27 -229.55)"/><path class="cls-9" d="M132.69,373.06A18.16,18.16,0,0,1,117.44,391a67.83,67.83,0,0,1,0-35.84A18.15,18.15,0,0,1,132.69,373.06Z" transform="translate(-82.27 -229.55)"/><path class="cls-9" d="M121,373.06a6.49,6.49,0,1,1-6.48-6.49A6.48,6.48,0,0,1,121,373.06Z" transform="translate(-82.27 -229.55)"/><path class="cls-10" d="M239.78,373.06A18.17,18.17,0,0,0,255,391a18.44,18.44,0,0,0,2.91.23,18.16,18.16,0,0,0,0-36.31,17.32,17.32,0,0,0-2.91.24A18.16,18.16,0,0,0,239.78,373.06Z" transform="translate(-82.27 -229.55)"/><path class="cls-9" d="M239.78,373.06A18.17,18.17,0,0,0,255,391a67.83,67.83,0,0,0,0-35.84A18.16,18.16,0,0,0,239.78,373.06Z" transform="translate(-82.27 -229.55)"/><path class="cls-9" d="M253.78,337.69v25.72a67.54,67.54,0,0,1-56.71,66.66l-.33.06a66,66,0,0,1-10.51.82,67.53,67.53,0,0,1-67.53-67.54V337.69a67.47,67.47,0,0,1,67.53-67.54h0a67.44,67.44,0,0,1,67.54,67.54Z" transform="translate(-82.27 -229.55)"/><path class="cls-9" d="M264.42,373.06a6.49,6.49,0,1,1-6.48-6.49A6.48,6.48,0,0,1,264.42,373.06Z" transform="translate(-82.27 -229.55)"/><path class="cls-10" d="M253.78,337.69v25.72a67.54,67.54,0,0,1-56.71,66.66l-.33.06a67.55,67.55,0,0,1-57-66.72V337.69a67.55,67.55,0,0,1,57-66.73A67.56,67.56,0,0,1,253.78,337.69Z" transform="translate(-82.27 -229.55)"/><path class="cls-2" d="M171.85,359.48a7.66,7.66,0,1,1-7.66-7.67A7.66,7.66,0,0,1,171.85,359.48Z" transform="translate(-82.27 -229.55)"/><path class="cls-2" d="M216,359.48a7.67,7.67,0,1,1-7.67-7.67A7.67,7.67,0,0,1,216,359.48Z" transform="translate(-82.27 -229.55)"/><path class="cls-11" d="M170.29,358.12a3.28,3.28,0,1,1-3.28-3.28A3.28,3.28,0,0,1,170.29,358.12Z" transform="translate(-82.27 -229.55)"/><path class="cls-11" d="M214.76,358.12a3.29,3.29,0,1,1-3.28-3.28A3.28,3.28,0,0,1,214.76,358.12Z" transform="translate(-82.27 -229.55)"/><path class="cls-9" d="M193.9,375.76H178.57a3.31,3.31,0,0,1,0-6.61H193.9a3.31,3.31,0,0,1,0,6.61Z" transform="translate(-82.27 -229.55)"/><path class="cls-9" d="M186.24,396.67a34.08,34.08,0,0,1-16.47-4.25,3,3,0,1,1,2.89-5.27,28,28,0,0,0,27.15,0,3,3,0,1,1,2.89,5.27A34,34,0,0,1,186.24,396.67Z" transform="translate(-82.27 -229.55)"/><path class="cls-12" d="M253.78,314.35v26.34H241.21V320.06L150.47,303.2l-19.2-3.57v41.06H118.7V314.35A54.37,54.37,0,0,1,173.07,260h26.34c.71,0,1.43,0,2.14,0A54.37,54.37,0,0,1,253.78,314.35Z" transform="translate(-82.27 -229.55)"/><path class="cls-13" d="M253.78,314.35v26.34H241.21V320.06L150.47,303.2A54.37,54.37,0,0,1,201.55,260,54.37,54.37,0,0,1,253.78,314.35Z" transform="translate(-82.27 -229.55)"/></svg>