<svg id="Layer_1" data-name="Layer 1" xmlns="http://www.w3.org/2000/svg" viewBox="0 0 294.45 294.45"><defs><style>.cls-1{fill:#66baed;}.cls-2{fill:#bfd5de;}.cls-3{fill:#dde8ed;}.cls-4{fill:#6dc5ef;}.cls-5{fill:#d3a489;}.cls-6{fill:#f74f4f;}.cls-7{fill:#bf8e75;}.cls-8{fill:#3d4159;}.cls-9{fill:#fff;}.cls-10{fill:#2a2f4f;}.cls-11{fill:#dd3033;}.cls-12{fill:#eab599;}.cls-13{fill:#f6caae;}.cls-14{fill:#e8c934;}.cls-15{fill:#ffe152;}.cls-16{fill:#fff0aa;}</style></defs><title>Face2</title><path class="cls-1" d="M355,213.79A147.24,147.24,0,0,1,287.3,337.68a143.92,143.92,0,0,1-16.3,9.08,145.59,145.59,0,0,1-24.64,9.13A144,144,0,0,1,225,360a147.53,147.53,0,0,1-77.65-11.88q-5.8-2.62-11.33-5.71l-1.79-1q-5.94-3.44-11.53-7.4c-1.63-1.15-3.24-2.33-4.81-3.55A147.23,147.23,0,1,1,355,213.79Z" transform="translate(-60.5 -66.57)"/><path class="cls-2" d="M248.19,289.06v25.05a63.84,63.84,0,0,1-82.93,0V289.06A63.84,63.84,0,0,0,248.19,289.06Z" transform="translate(-60.5 -66.57)"/><path class="cls-3" d="M248.19,289.06v8.83a63.86,63.86,0,0,1-82.93,0v-8.83A63.84,63.84,0,0,0,248.19,289.06Z" transform="translate(-60.5 -66.57)"/><path class="cls-4" d="M309.77,114.43a102,102,0,1,1-204.09,0q0-3.51.24-7a147.09,147.09,0,0,1,203.62,0Q309.77,110.91,309.77,114.43Z" transform="translate(-60.5 -66.57)"/><path class="cls-2" d="M327,300.11a147.36,147.36,0,0,1-80.65,55.78A144,144,0,0,1,225,360V325.64A41.75,41.75,0,0,1,263.38,284c1.13-.09,2.26-.13,3.41-.13H294a41.52,41.52,0,0,1,33,16.21Z" transform="translate(-60.5 -66.57)"/><path class="cls-3" d="M327,300.11a147.36,147.36,0,0,1-80.65,55.78V325.64a41.75,41.75,0,0,1,41.76-41.74H294A41.67,41.67,0,0,1,327,300.11Z" transform="translate(-60.5 -66.57)"/><path class="cls-5" d="M239.53,237.85a13.86,13.86,0,0,1-11.64,13.68,14.67,14.67,0,0,1-2.22.18,13.86,13.86,0,0,1,0-27.71,13.48,13.48,0,0,1,2.22.18A13.85,13.85,0,0,1,239.53,237.85Z" transform="translate(-60.5 -66.57)"/><path class="cls-6" d="M291.59,299l-11.2,18-11.21-18" transform="translate(-60.5 -66.57)"/><path class="cls-6" d="M287.3,337.68a143.92,143.92,0,0,1-16.3,9.08l9.39-34.5Z" transform="translate(-60.5 -66.57)"/><path class="cls-7" d="M239.53,237.85a13.86,13.86,0,0,1-11.64,13.68,52,52,0,0,1,0-27.35A13.85,13.85,0,0,1,239.53,237.85Z" transform="translate(-60.5 -66.57)"/><path class="cls-7" d="M230.62,237.85a4.95,4.95,0,1,1-5-4.95A4.94,4.94,0,0,1,230.62,237.85Z" transform="translate(-60.5 -66.57)"/><path class="cls-2" d="M280.38,301l-18.79,10.45-5.72-26.6L267.55,278" transform="translate(-60.5 -66.57)"/><path class="cls-2" d="M280.38,301l18.8,10.45,5.72-26.6L293.22,278" transform="translate(-60.5 -66.57)"/><path class="cls-5" d="M321.24,237.85a13.86,13.86,0,0,0,11.64,13.68,14.67,14.67,0,0,0,2.22.18,13.86,13.86,0,0,0,0-27.71,13.48,13.48,0,0,0-2.22.18A13.85,13.85,0,0,0,321.24,237.85Z" transform="translate(-60.5 -66.57)"/><path class="cls-7" d="M321.24,237.85a13.86,13.86,0,0,0,11.64,13.68,52,52,0,0,0,0-27.35A13.85,13.85,0,0,0,321.24,237.85Z" transform="translate(-60.5 -66.57)"/><path class="cls-7" d="M340.05,237.85a5,5,0,1,1-4.95-4.95A4.95,4.95,0,0,1,340.05,237.85Z" transform="translate(-60.5 -66.57)"/><path class="cls-7" d="M331.92,230.49a51.53,51.53,0,0,1-43.26,50.87,50.19,50.19,0,0,1-8.28.67,51.53,51.53,0,0,1-51.53-51.54c0-13.47,4.67-33.68,13.13-42.87,9.42-10.22,23.41-8.67,38.4-8.67a51.54,51.54,0,0,1,51.54,51.54Z" transform="translate(-60.5 -66.57)"/><path class="cls-7" d="M295.28,267.81v18.28a14.9,14.9,0,0,1-29.79,0V267.81Z" transform="translate(-60.5 -66.57)"/><path class="cls-5" d="M295.28,284.93v1.16a14.9,14.9,0,0,1-10.49,14.23A14.89,14.89,0,0,1,274.42,288q1.5.09,3,.09a51,51,0,0,0,17.86-3.19Z" transform="translate(-60.5 -66.57)"/><path class="cls-5" d="M331.92,230.49a51.53,51.53,0,0,1-43.26,50.87,51.54,51.54,0,0,1,0-101.74,51.45,51.45,0,0,1,43.26,50.87Z" transform="translate(-60.5 -66.57)"/><path class="cls-7" d="M280.38,255.88a26.07,26.07,0,0,1-12.56-3.25,2.29,2.29,0,0,1,2.21-4,21.36,21.36,0,0,0,20.71,0,2.29,2.29,0,0,1,2.21,4A26.08,26.08,0,0,1,280.38,255.88Z" transform="translate(-60.5 -66.57)"/><path class="cls-8" d="M269.41,227.49a5.85,5.85,0,1,1-5.85-5.84A5.85,5.85,0,0,1,269.41,227.49Z" transform="translate(-60.5 -66.57)"/><path class="cls-8" d="M303.05,227.49a5.85,5.85,0,1,1-5.84-5.84A5.84,5.84,0,0,1,303.05,227.49Z" transform="translate(-60.5 -66.57)"/><path class="cls-9" d="M268.22,226.46a2.51,2.51,0,1,1-2.51-2.51A2.5,2.5,0,0,1,268.22,226.46Z" transform="translate(-60.5 -66.57)"/><path class="cls-9" d="M302.15,226.46a2.51,2.51,0,1,1-2.51-2.51A2.5,2.5,0,0,1,302.15,226.46Z" transform="translate(-60.5 -66.57)"/><path class="cls-7" d="M286.23,242.21H274.54a2.52,2.52,0,0,1,0-5h11.69a2.52,2.52,0,0,1,0,5Z" transform="translate(-60.5 -66.57)"/><path class="cls-10" d="M277.37,164.23a31.24,31.24,0,0,1,28.94,29.6l.15,3h9L320.28,229,332,225.35l-1.57-31.52a31.24,31.24,0,0,0-31.32-29.68Z" transform="translate(-60.5 -66.57)"/><path class="cls-8" d="M329.43,151.79a31.83,31.83,0,1,1-45,45Z" transform="translate(-60.5 -66.57)"/><path class="cls-8" d="M284.41,196.81H245.33L240.5,229l-11.72-3.63,1.57-31.52a31.24,31.24,0,0,1,31.32-29.68l56.43.21,7.46,13.43" transform="translate(-60.5 -66.57)"/><path class="cls-10" d="M283.4,164.23a31.24,31.24,0,0,0-28.94,29.6l-.15,3h-9L240.49,229l-11.71-3.63,1.57-31.52a31.24,31.24,0,0,1,31.32-29.68Z" transform="translate(-60.5 -66.57)"/><path class="cls-8" d="M182.28,320.86v38a147.21,147.21,0,0,1-95.66-61.3,39,39,0,0,1,21.14-14.34c.61-.17,1.22-.32,1.85-.45a38.21,38.21,0,0,1,5.07-.74c1-.09,2.11-.14,3.19-.14h25.4a38.81,38.81,0,0,1,8.27.88l.46.1c.45.11.9.21,1.34.33l0,0a38.53,38.53,0,0,1,12.11,5.62A39,39,0,0,1,182.28,320.86Z" transform="translate(-60.5 -66.57)"/><path class="cls-6" d="M153.47,282.73l-.09.45L140.94,341c-.64.06-1.29.11-1.94.15-.91.06-1.83.12-2.75.15l-2,.08q-5.94-3.44-11.53-7.4c-1.63-1.15-3.24-2.33-4.81-3.55l-10.17-47.28-.09-.45Z" transform="translate(-60.5 -66.57)"/><path class="cls-3" d="M141,295.93l-10.47,16.79L120.1,295.93" transform="translate(-60.5 -66.57)"/><path class="cls-3" d="M138.15,343.56c.39-1.47.69-2.37.85-2.38l-8.43-32.83-6.78,26.4Z" transform="translate(-60.5 -66.57)"/><path class="cls-11" d="M130.57,297.82,113,307.58l-5.34-24.85,10.91-6.42" transform="translate(-60.5 -66.57)"/><path class="cls-11" d="M130.57,297.82l17.56,9.76,5.34-24.85-10.91-6.42" transform="translate(-60.5 -66.57)"/><path class="cls-10" d="M154.13,316.26h5.58l-12.32,31.87q-5.8-2.62-11.33-5.71l17.28-59.26.13-.43,12,3.93Z" transform="translate(-60.5 -66.57)"/><path class="cls-10" d="M122.74,334A147.43,147.43,0,0,1,102,316.26h4.86l-11.36-29.6,12-3.93.13.43Z" transform="translate(-60.5 -66.57)"/><path class="cls-12" d="M144.49,266.83v17.08a13.92,13.92,0,0,1-27.84,0V266.83Z" transform="translate(-60.5 -66.57)"/><path class="cls-13" d="M144.49,282.83v1.08a13.93,13.93,0,0,1-9.8,13.29A13.91,13.91,0,0,1,125,285.72c.93.06,1.86.09,2.8.09a48.64,48.64,0,0,0,16.69-3Z" transform="translate(-60.5 -66.57)"/><path class="cls-13" d="M92.4,238.84a13,13,0,0,1-10.87,12.78,14.24,14.24,0,0,1-2.08.16,12.94,12.94,0,0,1,0-25.88,14.24,14.24,0,0,1,2.08.16A13,13,0,0,1,92.4,238.84Z" transform="translate(-60.5 -66.57)"/><path class="cls-12" d="M92.4,238.84a13,13,0,0,1-10.87,12.78,48.34,48.34,0,0,1,0-25.56A13,13,0,0,1,92.4,238.84Z" transform="translate(-60.5 -66.57)"/><path class="cls-12" d="M84.08,238.84a4.63,4.63,0,1,1-4.63-4.63A4.63,4.63,0,0,1,84.08,238.84Z" transform="translate(-60.5 -66.57)"/><path class="cls-13" d="M168.74,238.84a13,13,0,0,0,10.87,12.78,14.21,14.21,0,0,0,2.07.16,12.94,12.94,0,1,0,0-25.88,14.21,14.21,0,0,0-2.07.16A13,13,0,0,0,168.74,238.84Z" transform="translate(-60.5 -66.57)"/><path class="cls-12" d="M168.74,238.84a13,13,0,0,0,10.87,12.78,48.34,48.34,0,0,0,0-25.56A13,13,0,0,0,168.74,238.84Z" transform="translate(-60.5 -66.57)"/><path class="cls-12" d="M178.72,213.63V232a48.16,48.16,0,0,1-40.42,47.53l-.24,0a47.42,47.42,0,0,1-7.49.58A48.15,48.15,0,0,1,82.42,232V213.63a48.13,48.13,0,0,1,48.15-48.16h0a47.54,47.54,0,0,1,7.5.59A48.15,48.15,0,0,1,178.72,213.63Z" transform="translate(-60.5 -66.57)"/><path class="cls-12" d="M186.31,238.84a4.63,4.63,0,1,1-4.63-4.63A4.63,4.63,0,0,1,186.31,238.84Z" transform="translate(-60.5 -66.57)"/><path class="cls-13" d="M178.72,213.63V232a48.16,48.16,0,0,1-40.42,47.53l-.24,0A48.16,48.16,0,0,1,97.41,232V213.63a48.15,48.15,0,0,1,40.66-47.57A48.15,48.15,0,0,1,178.72,213.63Z" transform="translate(-60.5 -66.57)"/><path class="cls-8" d="M120.32,229.16a5.47,5.47,0,1,1-5.47-5.46A5.47,5.47,0,0,1,120.32,229.16Z" transform="translate(-60.5 -66.57)"/><path class="cls-8" d="M151.75,229.16a5.47,5.47,0,1,1-5.46-5.46A5.47,5.47,0,0,1,151.75,229.16Z" transform="translate(-60.5 -66.57)"/><path class="cls-9" d="M119.2,228.19a2.34,2.34,0,1,1-2.34-2.33A2.34,2.34,0,0,1,119.2,228.19Z" transform="translate(-60.5 -66.57)"/><path class="cls-9" d="M150.9,228.19a2.34,2.34,0,1,1-2.34-2.33A2.33,2.33,0,0,1,150.9,228.19Z" transform="translate(-60.5 -66.57)"/><path class="cls-12" d="M136,240.77H125.11a2.36,2.36,0,1,1,0-4.71H136a2.36,2.36,0,1,1,0,4.71Z" transform="translate(-60.5 -66.57)"/><path class="cls-12" d="M130.57,255.68a24.36,24.36,0,0,1-11.74-3,2.14,2.14,0,0,1,2.06-3.76,20,20,0,0,0,19.36,0,2.14,2.14,0,0,1,2.06,3.76A24.36,24.36,0,0,1,130.57,255.68Z" transform="translate(-60.5 -66.57)"/><path class="cls-14" d="M178.72,197v18.78h-9V201.06l-64.69-12-13.69-2.55v29.28h-9V197a38.76,38.76,0,0,1,38.76-38.77H140q.76,0,1.53,0A38.75,38.75,0,0,1,178.72,197Z" transform="translate(-60.5 -66.57)"/><path class="cls-15" d="M178.72,197v18.78h-9V201.06l-64.69-12a38.77,38.77,0,0,1,36.42-30.79A38.75,38.75,0,0,1,178.72,197Z" transform="translate(-60.5 -66.57)"/><path class="cls-3" d="M265.78,114.44a58,58,0,0,1-45.45,56.67,57.44,57.44,0,0,1-12.6,1.38A58,58,0,0,1,168.19,71.93a148.52,148.52,0,0,1,79.08,0A57.89,57.89,0,0,1,265.78,114.44Z" transform="translate(-60.5 -66.57)"/><path class="cls-16" d="M242.34,114.44a34.59,34.59,0,1,1-27.1-33.79A34.62,34.62,0,0,1,242.34,114.44Z" transform="translate(-60.5 -66.57)"/><path class="cls-15" d="M242.34,114.44a34.62,34.62,0,0,1-27.1,33.79,34.62,34.62,0,0,1,0-67.58A34.61,34.61,0,0,1,242.34,114.44Z" transform="translate(-60.5 -66.57)"/><path class="cls-9" d="M207.73,129a21.7,21.7,0,0,1-21.68-21.67h6.69a15,15,0,0,0,30,0h6.69A21.7,21.7,0,0,1,207.73,129Z" transform="translate(-60.5 -66.57)"/><path class="cls-9" d="M204.39,125.62h6.68v31.54h-6.68Z" transform="translate(-60.5 -66.57)"/><path class="cls-10" d="M225.66,144.39v12.5a9,9,0,0,1-9,9h-17.8a9,9,0,0,1-9-9v-12.5Z" transform="translate(-60.5 -66.57)"/><path class="cls-8" d="M225.66,144.39v12.5a9,9,0,0,1-9,9H209a9,9,0,0,1-9-9v-12.5Z" transform="translate(-60.5 -66.57)"/><path class="cls-7" d="M182.38,295.13a7.62,7.62,0,0,1-10,3.95l-14.86-6.45a7.61,7.61,0,0,1,6.05-14l14.87,6.45a7.58,7.58,0,0,1,4.05,4.19,7.45,7.45,0,0,1,.53,2.6A7.65,7.65,0,0,1,182.38,295.13Z" transform="translate(-60.5 -66.57)"/><path class="cls-5" d="M183,291.9a7.6,7.6,0,0,1-8.09,1.3L160,286.75a7.58,7.58,0,0,1-4-4.18,7.5,7.5,0,0,1-.53-2.61,7.61,7.61,0,0,1,8.08-1.3l14.87,6.45a7.58,7.58,0,0,1,4.05,4.19A7.45,7.45,0,0,1,183,291.9Z" transform="translate(-60.5 -66.57)"/></svg>