<svg id="Layer_1" data-name="Layer 1" xmlns="http://www.w3.org/2000/svg" viewBox="0 0 314 314"><defs><style>.cls-1{fill:#ffe171;}.cls-2{fill:#ffd300;}.cls-3{fill:#b26d3c;}.cls-4{fill:#7a3d06;}.cls-5{fill:#f95858;}.cls-6{fill:#ea1b5f;}.cls-7{fill:#dcf3ff;}.cls-8{fill:#b0e2fa;}</style></defs><title>Face1</title><path class="cls-1" d="M411,310a157,157,0,1,1-46-111A156,156,0,0,1,411,310Z" transform="translate(-97 -153)"/><path class="cls-2" d="M411,310A157,157,0,0,1,254,467V153A157,157,0,0,1,411,310Z" transform="translate(-97 -153)"/><path class="cls-3" d="M236.54,269.73h-18.4a15.74,15.74,0,1,0-31.48,0h-18.4a34.14,34.14,0,1,1,68.28,0Z" transform="translate(-97 -153)"/><path class="cls-4" d="M339.74,269.73h-18.4a15.74,15.74,0,1,0-31.48,0h-18.4a34.14,34.14,0,1,1,68.28,0Z" transform="translate(-97 -153)"/><path class="cls-5" d="M305.6,318.41s47.57,20.47,44.62,29.93a100.77,100.77,0,0,1-192.34.3c-3-9.55,44.52-30.23,44.52-30.23Z" transform="translate(-97 -153)"/><path class="cls-6" d="M305.6,318.41s47.57,20.47,44.62,29.93A100.94,100.94,0,0,1,254,419.16V318.41Z" transform="translate(-97 -153)"/><path class="cls-7" d="M354.76,309.21v9.2a100.38,100.38,0,0,1-4.64,30.23H157.88a100.38,100.38,0,0,1-4.64-30.23v-9.2Z" transform="translate(-97 -153)"/><path class="cls-8" d="M354.76,309.21v9.2a100.38,100.38,0,0,1-4.64,30.23H254V309.21Z" transform="translate(-97 -153)"/></svg>