<svg id="Layer_1" data-name="Layer 1" xmlns="http://www.w3.org/2000/svg" viewBox="0 0 532 532"><defs><style>.cls-1{fill:#ffd05b;}.cls-2{fill:#fff;}.cls-3{fill:#e6e9ee;}.cls-4{fill:#ff7058;}.cls-5{fill:#4cdbc4;}.cls-6{fill:#2b3b4e;}.cls-7{fill:#324a5e;}.cls-8{fill:#54c0eb;}</style></defs><title>File1</title><circle class="cls-1" cx="266" cy="266" r="266"/><polygon class="cls-2" points="188.99 90.7 188.99 147.17 132.63 147.17 132.63 441.3 399.37 441.3 399.37 90.7 188.99 90.7"/><polygon class="cls-3" points="188.99 90.7 132.63 147.17 188.99 147.17 188.99 90.7"/><path class="cls-4" d="M338.09,411.54a57.33,57.33,0,0,1-.63,8.54,53.88,53.88,0,0,1-47.41,45,52,52,0,0,1-5.79.32,53.84,53.84,0,0,1-14.33-105.77,53.93,53.93,0,0,1,68.16,51.93Z" transform="translate(-72.09 -56)"/><path class="cls-1" d="M321.23,372.36l-37,39.18-14.33-51.93a54.23,54.23,0,0,1,51.3,12.75Z" transform="translate(-72.09 -56)"/><path class="cls-3" d="M338.09,411.54a57.33,57.33,0,0,1-.63,8.54l-53.2-8.54,37-39.08A53.07,53.07,0,0,1,338.09,411.54Z" transform="translate(-72.09 -56)"/><path class="cls-5" d="M337.46,420.08a53.88,53.88,0,0,1-47.41,45l-5.79-53.52Z" transform="translate(-72.09 -56)"/><rect class="cls-1" x="282.64" y="315.93" width="16.22" height="14.33"/><rect class="cls-5" x="282.64" y="348.28" width="16.22" height="14.33"/><rect class="cls-4" x="282.64" y="380.72" width="16.22" height="14.33"/><rect class="cls-3" x="310.25" y="315.93" width="65.21" height="14.33"/><rect class="cls-3" x="310.25" y="348.28" width="65.21" height="14.33"/><rect class="cls-3" x="310.25" y="380.72" width="65.21" height="14.33"/><rect class="cls-6" x="428.86" y="269.71" width="18.75" height="52.78" transform="translate(-153.11 340.61) rotate(-45)"/><circle class="cls-7" cx="316.46" cy="190.36" r="71.42"/><circle class="cls-3" cx="316.46" cy="190.36" r="54.04"/><path class="cls-4" d="M442,324.42l24.55-24.54a1.72,1.72,0,0,1,2.53,0l45.4,45.4a1.72,1.72,0,0,1,0,2.53l-24.55,24.55a1.72,1.72,0,0,1-2.52,0L442,327A1.93,1.93,0,0,1,442,324.42Z" transform="translate(-72.09 -56)"/><rect class="cls-3" x="459.11" y="316.34" width="38.24" height="39.5" transform="translate(-169.67 380.6) rotate(-45)"/><rect class="cls-8" x="158.23" y="179.41" width="16.75" height="65"/><rect class="cls-8" x="184.15" y="202.16" width="16.75" height="42.24"/><rect class="cls-8" x="210.06" y="220.6" width="16.75" height="23.81"/></svg>