<svg id="Layer_1" data-name="Layer 1" xmlns="http://www.w3.org/2000/svg" xmlns:xlink="http://www.w3.org/1999/xlink" viewBox="0 0 556.91 556.91"><defs><style>.cls-1{fill:url(#linear-gradient);}.cls-2{fill:url(#linear-gradient-2);}.cls-3{fill:url(#linear-gradient-3);}.cls-4{fill:url(#linear-gradient-4);}.cls-5{fill:url(#linear-gradient-5);}.cls-6{fill:url(#linear-gradient-6);}.cls-7{fill:url(#linear-gradient-7);}.cls-8{fill:url(#linear-gradient-8);}.cls-9{fill:url(#linear-gradient-9);}.cls-10{fill:url(#linear-gradient-10);}.cls-11{fill:url(#linear-gradient-11);}.cls-12{fill:url(#linear-gradient-12);}.cls-13{fill:#f2f2fc;}</style><linearGradient id="linear-gradient" x1="188.97" y1="1622.36" x2="582.77" y2="1228.56" gradientTransform="matrix(1, 0, 0, -1, 0, 1802)" gradientUnits="userSpaceOnUse"><stop offset="0" stop-color="#ffda2d"/><stop offset="1" stop-color="#fdbf00"/></linearGradient><linearGradient id="linear-gradient-2" x1="249.52" y1="1525.61" x2="522.23" y2="1252.9" gradientTransform="matrix(1, 0, 0, -1, 0, 1802)" gradientUnits="userSpaceOnUse"><stop offset="0" stop-color="#f2f2fc"/><stop offset="1" stop-color="#d8d8fc"/></linearGradient><linearGradient id="linear-gradient-3" x1="419.96" y1="1495.75" x2="488.14" y2="1427.57" gradientTransform="matrix(1, 0, 0, -1, 0, 1802)" gradientUnits="userSpaceOnUse"><stop offset="0" stop-color="#d8d8fc"/><stop offset="1" stop-color="#a3a3d1"/></linearGradient><linearGradient id="linear-gradient-4" x1="419.96" y1="1459.55" x2="488.14" y2="1391.37" xlink:href="#linear-gradient-3"/><linearGradient id="linear-gradient-5" x1="317.69" y1="1457.43" x2="454.05" y2="1321.08" xlink:href="#linear-gradient-3"/><linearGradient id="linear-gradient-6" x1="283.61" y1="1387.14" x2="351.78" y2="1318.97" xlink:href="#linear-gradient-3"/><linearGradient id="linear-gradient-7" x1="283.61" y1="1350.94" x2="351.78" y2="1282.77" xlink:href="#linear-gradient-3"/><linearGradient id="linear-gradient-8" x1="410.91" y1="1378.09" x2="497.19" y2="1291.82" xlink:href="#linear-gradient-3"/><linearGradient id="linear-gradient-9" x1="274.55" y1="1486.7" x2="360.83" y2="1400.42" xlink:href="#linear-gradient-3"/><linearGradient id="linear-gradient-10" x1="453.9" y1="1584.59" x2="535.65" y2="1502.84" gradientTransform="matrix(1, 0, 0, -1, 0, 1802)" gradientUnits="userSpaceOnUse"><stop offset="0" stop-color="#47568c"/><stop offset="1" stop-color="#2c3b73"/></linearGradient><linearGradient id="linear-gradient-11" x1="267.77" y1="1616.26" x2="412.87" y2="1471.16" gradientTransform="matrix(1, 0, 0, -1, 0, 1802)" gradientUnits="userSpaceOnUse"><stop offset="0" stop-color="#4bb9ec"/><stop offset="1" stop-color="#0095ff"/></linearGradient><linearGradient id="linear-gradient-12" x1="383.61" y1="1577.65" x2="451.49" y2="1509.77" xlink:href="#linear-gradient-11"/></defs><title>File2</title><path class="cls-1" d="M664.33,376.54C664.33,530.33,539.66,655,385.87,655S107.42,530.33,107.42,376.54,232.08,98.09,385.87,98.09,664.33,222.75,664.33,376.54Z" transform="translate(-107.42 -98.09)"/><path class="cls-2" d="M516.62,276.39H255.13l-23.71,18.1V531H540.33V294.49Z" transform="translate(-107.42 -98.09)"/><path class="cls-3" d="M394.92,331.29H513.18v18.1H394.92Z" transform="translate(-107.42 -98.09)"/><path class="cls-4" d="M394.92,367.49H513.18v18.1H394.92Z" transform="translate(-107.42 -98.09)"/><path class="cls-5" d="M258.57,403.69v18.1H513.18v-18.1Z" transform="translate(-107.42 -98.09)"/><path class="cls-6" d="M258.57,439.89H376.82V458H258.57Z" transform="translate(-107.42 -98.09)"/><path class="cls-7" d="M258.57,476.1H376.82v18.1H258.57Z" transform="translate(-107.42 -98.09)"/><path class="cls-8" d="M394.92,439.89H513.18V494.2H394.92Z" transform="translate(-107.42 -98.09)"/><path class="cls-9" d="M258.57,331.29H376.82v54.3H258.57Z" transform="translate(-107.42 -98.09)"/><path class="cls-10" d="M540.33,222.09H449.22l-18.1,41.85,18.1,30.55h91.11Z" transform="translate(-107.42 -98.09)"/><path class="cls-11" d="M231.42,222.09h217.8v72.4H231.42Z" transform="translate(-107.42 -98.09)"/><path class="cls-12" d="M385.87,222.09h63.35v72.4H385.87Z" transform="translate(-107.42 -98.09)"/><path class="cls-13" d="M267.62,249.24h18.1v18.1h-18.1Z" transform="translate(-107.42 -98.09)"/><path class="cls-13" d="M304.42,249.24h18.1v18.1h-18.1Z" transform="translate(-107.42 -98.09)"/><path class="cls-13" d="M340.62,249.24h18.1v18.1h-18.1Z" transform="translate(-107.42 -98.09)"/></svg>