<svg id="Layer_1" data-name="Layer 1" xmlns="http://www.w3.org/2000/svg" viewBox="0 0 491.43 491.43"><defs><style>.cls-1{fill:#ffd400;}.cls-2{fill:#ffb000;}.cls-3{fill:#4a7aff;}.cls-4{fill:#2864f0;}.cls-5{fill:#a3d4ff;}.cls-6{fill:#87c7ff;}.cls-7{fill:#fff;}.cls-8{fill:#f2f6fc;}.cls-9{fill:#dce1eb;}.cls-10{fill:#cdd2e1;}.cls-11{fill:#bec3d2;}.cls-12{fill:#0053bf;}</style></defs><title>File4</title><circle class="cls-1" cx="245.72" cy="245.72" r="245.72"/><path class="cls-2" d="M717,377.51a247.4,247.4,0,0,0-2-31.81L577.13,207.88l-240.53,270L392,533.29l-26.59,17.59,69.69,69.69a247.69,247.69,0,0,0,36.15,2.65C607,623.22,717,513.21,717,377.51Z" transform="translate(-225.57 -131.79)"/><rect class="cls-3" x="139.87" y="76.09" width="211.69" height="343"/><rect class="cls-4" x="245.3" y="76.09" width="106.25" height="343"/><rect class="cls-5" x="167.29" y="108.03" width="156.86" height="256.17"/><rect class="cls-6" x="245.3" y="108.03" width="78.84" height="256.17"/><polygon class="cls-7" points="230.6 126.08 111.03 126.08 111.03 346.07 280.34 346.07 280.34 175.81 230.6 126.08"/><polygon class="cls-8" points="280.34 175.81 230.6 126.08 195.03 126.08 195.03 346.07 280.34 346.07 280.34 175.81"/><polygon class="cls-9" points="230.6 175.81 280.34 175.81 230.6 126.08 230.6 175.81"/><rect class="cls-10" x="136.09" y="192.93" width="119.17" height="19.2"/><rect class="cls-11" x="195.03" y="192.93" width="60.24" height="19.2"/><rect class="cls-10" x="136.09" y="230.36" width="119.17" height="19.2"/><rect class="cls-11" x="195.03" y="230.36" width="60.24" height="19.2"/><rect class="cls-10" x="136.09" y="267.79" width="119.17" height="19.2"/><rect class="cls-11" x="195.03" y="267.79" width="60.24" height="19.2"/><circle class="cls-4" cx="245.72" cy="392.89" r="18.24"/><path class="cls-12" d="M471.28,506.44l-.41,0V542.9l.41,0a18.24,18.24,0,1,0,0-36.48Z" transform="translate(-225.57 -131.79)"/></svg>