<svg id="Layer_1" data-name="Layer 1" xmlns="http://www.w3.org/2000/svg" viewBox="0 0 514.67 514.67"><defs><style>.cls-1{fill:#273b7a;}.cls-2{fill:#121149;}.cls-3{fill:#7248bd;}.cls-4{fill:#fff;}.cls-5{fill:#b8a3de;}</style></defs><title>File3</title><circle class="cls-1" cx="257.33" cy="257.33" r="257.33"/><path class="cls-2" d="M439.38,617.22c110.58-8.58,201.55-87,228.8-191.28L525.39,283.14,405.64,416.41l48.08,48.08L317.31,495.14Z" transform="translate(-161.88 -103.33)"/><path class="cls-3" d="M459.86,217.62H334.38A21.34,21.34,0,0,0,313,239V482.37a21.34,21.34,0,0,0,21.34,21.34H504a21.34,21.34,0,0,0,21.35-21.34V283.14Z" transform="translate(-161.88 -103.33)"/><rect class="cls-4" x="234.6" y="249.76" width="85.19" height="10.31"/><rect class="cls-4" x="234.6" y="279.43" width="85.19" height="10.31"/><rect class="cls-4" x="234.6" y="309.1" width="85.19" height="10.31"/><path class="cls-4" d="M367.58,363.41h-4.19a3.83,3.83,0,0,1-3.84-3.83v-2.65a3.84,3.84,0,0,1,3.84-3.83h4.19a3.83,3.83,0,0,1,3.84,3.83v2.65A3.83,3.83,0,0,1,367.58,363.41Z" transform="translate(-161.88 -103.33)"/><path class="cls-4" d="M367.58,393.08h-4.19a3.84,3.84,0,0,1-3.84-3.84V386.6a3.84,3.84,0,0,1,3.84-3.84h4.19a3.84,3.84,0,0,1,3.84,3.84v2.64A3.84,3.84,0,0,1,367.58,393.08Z" transform="translate(-161.88 -103.33)"/><path class="cls-4" d="M367.58,422.74h-4.19a3.84,3.84,0,0,1-3.84-3.84v-2.64a3.84,3.84,0,0,1,3.84-3.84h4.19a3.84,3.84,0,0,1,3.84,3.84v2.64A3.84,3.84,0,0,1,367.58,422.74Z" transform="translate(-161.88 -103.33)"/><path class="cls-5" d="M481.21,283.14h44.18l-65.53-65.52V261.8A21.35,21.35,0,0,0,481.21,283.14Z" transform="translate(-161.88 -103.33)"/></svg>