<svg id="Layer_1" data-name="Layer 1" xmlns="http://www.w3.org/2000/svg" viewBox="0 0 502 502"><defs><style>.cls-1{fill:#cafffc;}.cls-2{fill:#3d7606;}.cls-3{fill:#5fa819;}.cls-4{fill:#589c17;}</style></defs><title>Food1</title><circle class="cls-1" cx="251" cy="251" r="251"/><path class="cls-2" d="M599.28,383.82,540.35,363.2a92.08,92.08,0,0,0-118.23,59.18L406.71,471.2l-15.18,11.38v-102a40.53,40.53,0,0,1,18.09-33.81L401.76,335a54.67,54.67,0,0,0-24.4,45.59v14l-9.16-9.16-10,10,19.18,19.18v155.6l-14.17-7.08V548.63A110.85,110.85,0,0,0,217.28,443.48l-33.41,11.13a7.09,7.09,0,0,0,0,13.46l7.59,2.53a324,324,0,0,1,100.19,54.48l60,48a7.21,7.21,0,0,0,1.31.71l-.05.09,24.42,12.22V603h14.17V500.29L417,481.17l-.07-.1a8,8,0,0,0,.83-.56,286.25,286.25,0,0,1,166.1-81.24l13.94-1.74a7.08,7.08,0,0,0,1.46-13.71Z" transform="translate(-135 -104)"/><path class="cls-3" d="M451.51,238l-3.32-53.34a7.08,7.08,0,0,0-13.73-1.94l-22.91,64.11a221.33,221.33,0,0,0-12.94,74.64v19.46a7.08,7.08,0,0,0,12.09,5A140.31,140.31,0,0,0,451.51,238Z" transform="translate(-135 -104)"/><path class="cls-3" d="M284.8,271.9l-46.87-15.58a7.08,7.08,0,0,0-9.16,8.26l7.8,35.14a124.28,124.28,0,0,0,122.05,97.87h4.57a7.1,7.1,0,0,0,7.09-7.09A124.89,124.89,0,0,0,284.8,271.9Z" transform="translate(-135 -104)"/><path class="cls-4" d="M319.63,366.42a181,181,0,0,1-64.51-68.34l-22.34-41.5a6.93,6.93,0,0,0-4,8l7.8,35.15a124.28,124.28,0,0,0,122.05,97.9h4.57a7,7,0,0,0,4.39-1.66Z" transform="translate(-135 -104)"/><path class="cls-4" d="M471,416.71a102.59,102.59,0,0,0-34.16,41.87L433.54,466a286.41,286.41,0,0,1,150.34-66.69l13.5-1.67H530.7A102.7,102.7,0,0,0,471,416.71Z" transform="translate(-135 -104)"/><path class="cls-4" d="M359.82,577.36l-.14-.78A153.29,153.29,0,0,0,196.57,451.2l-3.29.27-9.41,3.13a7.09,7.09,0,0,0,0,13.46l7.59,2.53a323.8,323.8,0,0,1,100.19,54.49l60,48a7.21,7.21,0,0,0,1.31.71l-.05.09Z" transform="translate(-135 -104)"/></svg>