<svg id="Layer_1" data-name="Layer 1" xmlns="http://www.w3.org/2000/svg" viewBox="0 0 403 403"><defs><style>.cls-1{fill:#ffc2c2;}.cls-2{fill:#f4c647;}.cls-3{fill:#f9e295;}.cls-4{fill:#eeaf4b;}.cls-5{fill:#fcdf76;}</style></defs><title>Food7</title><circle class="cls-1" cx="201.5" cy="201.5" r="201.5"/><path class="cls-2" d="M463.84,308.43v31L490.71,343v-64.1c-.44-17.87-62.95-37.94-140-37.94S211.1,261,210.67,278.86l0,102.72c0,17.95,60.4,40,137.74,40l2.92,0V319.69l-26.47-40.64Z" transform="translate(-173 -143)"/><path class="cls-3" d="M351.31,376V319.69l-26.47-40.64,139,29.38v31l-78.77-8.49v56.27S351.19,375.81,351.31,376Z" transform="translate(-173 -143)"/><path class="cls-4" d="M350.68,240.92c-77.34,0-140,20.18-140,38.13s60.4,40.64,137.74,40.64l2.9,0-26.45-40.62,140.92,29.38c15.72-5.25,25-22.5,25-29.38C490.72,261.1,428,240.92,350.68,240.92Z" transform="translate(-173 -143)"/><path class="cls-2" d="M413.2,361.59v110c46.49-.22,88-5.7,112.8-14v-110L385.07,329.08Z" transform="translate(-173 -143)"/><path class="cls-4" d="M385.34,329.08l28.11,32.49c46.3-.28,87.61-5.77,112.21-14.05Z" transform="translate(-173 -143)"/><polygon class="cls-5" points="240.2 218.59 240.2 328.6 212.07 294.85 212.07 186.08 240.2 218.59"/></svg>