<svg id="Layer_1" data-name="Layer 1" xmlns="http://www.w3.org/2000/svg" viewBox="0 0 403 403"><defs><style>.cls-1{fill:#cafffb;}.cls-2{fill:#dc9628;}.cls-3{fill:#f1b501;}.cls-4{fill:#e6e6e6;}.cls-5{fill:#f4c44e;}.cls-6{fill:#d2d5d7;}.cls-7{fill:#659c35;}.cls-8{fill:#ed3f32;}</style></defs><title>Food4</title><circle class="cls-1" cx="201.5" cy="201.5" r="201.5"/><path class="cls-2" d="M485.67,198.47a22.15,22.15,0,0,0-14.74,7.9c-15.09,18.3-36.27,30.14-59.49,35a57.76,57.76,0,0,0-33.08,20.13c-19.34,23.69-16.7,59.36,6,79.88a58.19,58.19,0,0,0,97.1-38.29c2-24.08,12.12-46.76,27.49-65.4C508.92,237.69,525.53,205.26,485.67,198.47Z" transform="translate(-165 -133)"/><path class="cls-3" d="M270,261.68c10.27-15.76,22.5-38.66,21.43-57.18a9.41,9.41,0,0,1,14.19-8.71c28,16.63,64.43,55.93-8.62,131.78-29.71,30.85-51.63,14.42-54-7.13C240.69,299.83,258.65,279,270,261.68Z" transform="translate(-165 -133)"/><path class="cls-4" d="M506.05,451H229.7a38.14,38.14,0,0,1-31-16l-15.26-21.37a6.27,6.27,0,0,1,5.1-9.92H547.26a6.27,6.27,0,0,1,5.1,9.92L537.1,435A38.17,38.17,0,0,1,506.05,451Z" transform="translate(-165 -133)"/><path class="cls-5" d="M502.84,245.72c1.93-2.75,3.94-5.44,6.08-8,0,0,16.61-32.43-23.25-39.23a22.15,22.15,0,0,0-14.74,7.9,96.71,96.71,0,0,1-10.58,10.83C432,208,397.3,213.44,359.59,245.76c-4.17,3.58-11.25,11.14-21.09,14.84-3.76,18.22-15.88,40.34-41.52,67-29.71,30.86-51.63,14.42-54-7.13-2.28-20.6,15.68-41.4,27-58.76a180,180,0,0,0,14.75-27.09,25.22,25.22,0,0,0-13.82-4.24c-42.6,0-61.7,29.36-61.7,65.56a55.61,55.61,0,0,0,1.1,11c2.06,10.24,2.68,20.68.55,30.9a78.22,78.22,0,0,0-1.65,15.93,47.34,47.34,0,0,0,10.42,30.45,40.4,40.4,0,0,1,61.49,19.56h4.71a40.45,40.45,0,0,1,76.31,0h4.71a40.45,40.45,0,0,1,76.31,0h4.71a40.31,40.31,0,0,1,68.38-13.25c19.29-13.15,32.72-30.43,37.29-52.18C559.38,310.48,526.9,272.53,502.84,245.72Z" transform="translate(-165 -133)"/><path class="cls-6" d="M563.46,154.23a15.84,15.84,0,0,0-8.92-5.55,6.53,6.53,0,0,1-4.61-3.79,15.78,15.78,0,0,0-7.16-7.7,16.37,16.37,0,0,0-18.89,2.66,16.11,16.11,0,0,0-4.76,13.93c.81,5.53-.27,11.17-3.83,15.48l-24.95,30.28c14.46,3.65,20,11.15,21.49,18.6l25.39-30.8c3.56-4.31,8.88-6.45,14.47-6.72a16.09,16.09,0,0,0,12.77-7.33A16.41,16.41,0,0,0,563.46,154.23Z" transform="translate(-165 -133)"/><path class="cls-2" d="M485.67,198.47a22.15,22.15,0,0,0-14.74,7.9c-15.09,18.3-36.27,30.14-59.49,35a57.76,57.76,0,0,0-33.08,20.13c-19.34,23.69-16.7,59.36,6,79.88a58.19,58.19,0,0,0,97.1-38.29c2-24.08,12.12-46.76,27.49-65.4C508.92,237.69,525.53,205.26,485.67,198.47Z" transform="translate(-165 -133)"/><path class="cls-4" d="M506.05,451H229.7a38.14,38.14,0,0,1-31-16l-15.26-21.37a6.27,6.27,0,0,1,5.1-9.92H547.26a6.27,6.27,0,0,1,5.1,9.92L537.1,435A38.17,38.17,0,0,1,506.05,451Z" transform="translate(-165 -133)"/><path class="cls-4" d="M506.05,451H229.7a38.14,38.14,0,0,1-31-16l-15.26-21.37a6.27,6.27,0,0,1,5.1-9.92H547.26a6.27,6.27,0,0,1,5.1,9.92L537.1,435A38.17,38.17,0,0,1,506.05,451Z" transform="translate(-165 -133)"/><path class="cls-4" d="M506.05,451H229.7a38.14,38.14,0,0,1-31-16l-15.26-21.37a6.27,6.27,0,0,1,5.1-9.92H547.26a6.27,6.27,0,0,1,5.1,9.92L537.1,435A38.17,38.17,0,0,1,506.05,451Z" transform="translate(-165 -133)"/><path class="cls-7" d="M362.14,403.74a40.45,40.45,0,0,0-76.31,0Z" transform="translate(-165 -133)"/><path class="cls-8" d="M281.12,403.74a40.45,40.45,0,0,0-76.3,0Z" transform="translate(-165 -133)"/><path class="cls-8" d="M443.16,403.74a40.45,40.45,0,0,0-76.31,0Z" transform="translate(-165 -133)"/><path class="cls-7" d="M524.17,403.74a40.45,40.45,0,0,0-76.3,0Z" transform="translate(-165 -133)"/><path class="cls-4" d="M506.05,451H229.7a38.14,38.14,0,0,1-31-16l-15.26-21.37a6.27,6.27,0,0,1,5.1-9.92H547.26a6.27,6.27,0,0,1,5.1,9.92L537.1,435A38.17,38.17,0,0,1,506.05,451Z" transform="translate(-165 -133)"/><path class="cls-4" d="M506.05,451H229.7a38.14,38.14,0,0,1-31-16l-15.26-21.37a6.27,6.27,0,0,1,5.1-9.92H547.26a6.27,6.27,0,0,1,5.1,9.92L537.1,435A38.17,38.17,0,0,1,506.05,451Z" transform="translate(-165 -133)"/></svg>