<svg id="Layer_1" data-name="Layer 1" xmlns="http://www.w3.org/2000/svg" viewBox="0 0 502 502"><defs><style>.cls-1{fill:#a4e869;}.cls-2{fill:#fbd490;}.cls-3{fill:#d85c81;}.cls-4{fill:#fff;}.cls-5{fill:#48a0dc;}.cls-6{fill:#d75a4a;}.cls-7{fill:none;}</style></defs><title>Food3</title><circle class="cls-1" cx="251" cy="251" r="251"/><path class="cls-2" d="M572,360.09h-.5c0-70.43-81.35-127.52-181.71-127.52S208.56,289.66,208.56,360.09c0,0,.1,60.16.1,60.18C208.66,490.7,289.42,545,389.79,545S572,488.11,572,417.68ZM393.46,392c-28.85,0-53.19-11.5-61.06-27.27,17-7.66,38.12-12.26,61.06-12.26s44,4.6,61.06,12.26C446.65,380.47,422.3,392,393.46,392Z" transform="translate(-140 -133)"/><path class="cls-3" d="M208.56,360.09s0,24.4.07,42.13a9.51,9.51,0,0,0,19,.34l.1.11v30.74a9.57,9.57,0,0,0,19.13,0v25.5a9.57,9.57,0,1,0,19.13,0V446.16a9.57,9.57,0,0,0,19.13,0V478a9.57,9.57,0,0,0,19.13,0V465.29a9.56,9.56,0,1,0,19.12,0V487.6a12.76,12.76,0,1,0,25.51,0V478A9.57,9.57,0,0,0,368,478v22.32a12.75,12.75,0,0,0,25.5,0V474.85a12.75,12.75,0,0,0,25.5,0v9.57a9.57,9.57,0,0,0,19.13,0V462.1a12.75,12.75,0,0,0,25.5,0v22.32a9.57,9.57,0,0,0,19.13,0V452.54a9.57,9.57,0,0,0,19.13,0v6.37a9.57,9.57,0,1,0,19.13,0v-25.5a9.57,9.57,0,0,0,19.13,0V414.28a9.46,9.46,0,0,0,9.56,9.56c18.66-.73,22.09-24.78,22.33-43.49v-5.84c-.12-6.56-.51-11.91-.51-14.43,0-70.42-81.35-127.51-181.71-127.51S208.56,289.66,208.56,360.09Zm184.9-7.65c22.93,0,44,4.6,61.06,12.26C446.65,380.47,422.3,392,393.46,392s-53.19-11.5-61.06-27.27C349.43,357,370.52,352.44,393.46,352.44Z" transform="translate(-140 -133)"/><path class="cls-2" d="M394,315.46c-35.21,0-63.76,17.13-63.76,38.26A24.39,24.39,0,0,0,333,364.67c17-7.65,38.09-12.23,61-12.23s44,4.58,61,12.23a24.39,24.39,0,0,0,2.77-10.95C457.78,332.59,429.23,315.46,394,315.46Z" transform="translate(-140 -133)"/><path class="cls-1" d="M288.1,389.32a6.38,6.38,0,0,1-1.66-12.53L314,369.34a6.38,6.38,0,1,1,3.34,12.31l-27.53,7.45A6.44,6.44,0,0,1,288.1,389.32Z" transform="translate(-140 -133)"/><path class="cls-4" d="M389,437.06a6.19,6.19,0,0,1-2-.34l-19.13-6.37a6.38,6.38,0,0,1,4-12.1L391,424.63a6.38,6.38,0,0,1-2,12.43Z" transform="translate(-140 -133)"/><path class="cls-1" d="M512.27,391.33A6.37,6.37,0,0,1,505.9,385V359.45a6.38,6.38,0,0,1,12.75,0V385A6.38,6.38,0,0,1,512.27,391.33Z" transform="translate(-140 -133)"/><path class="cls-5" d="M361.85,286.83a6.34,6.34,0,0,1-4.75-2.12l-13.48-15a6.38,6.38,0,0,1,9.49-8.52l13.47,15a6.36,6.36,0,0,1-4.73,10.63Z" transform="translate(-140 -133)"/><path class="cls-5" d="M526.51,325a6.18,6.18,0,0,1-2-.33l-19.13-6.37a6.38,6.38,0,0,1,4-12.1l19.12,6.38a6.37,6.37,0,0,1-2,12.42Z" transform="translate(-140 -133)"/><path class="cls-1" d="M437.63,419.12h-.39a6.37,6.37,0,0,1-6-6.74l.52-9a6.38,6.38,0,1,1,12.73.75l-.53,9A6.37,6.37,0,0,1,437.63,419.12Z" transform="translate(-140 -133)"/><path class="cls-6" d="M487.83,433.87a6.39,6.39,0,0,1-4.51-1.87L477,425.62a6.37,6.37,0,0,1,9-9l6.38,6.37a6.38,6.38,0,0,1-4.51,10.89Z" transform="translate(-140 -133)"/><path class="cls-5" d="M308.24,437.06a6.35,6.35,0,0,1-4.5-1.87l-6.38-6.38a6.37,6.37,0,0,1,9-9l6.37,6.37a6.38,6.38,0,0,1-4.51,10.89Z" transform="translate(-140 -133)"/><path class="cls-1" d="M488,293.4a6.37,6.37,0,0,1-6.36-6.1l-.4-9a6.38,6.38,0,0,1,12.74-.56l.4,9a6.38,6.38,0,0,1-6.1,6.65Z" transform="translate(-140 -133)"/><line class="cls-7" x1="144.74" y1="161.77" x2="151.11" y2="187.27"/><path class="cls-6" d="M291.11,326.65a6.37,6.37,0,0,1-6.18-4.83l-6.38-25.51a6.38,6.38,0,0,1,12.38-3.08l6.37,25.5a6.37,6.37,0,0,1-6.19,7.92Z" transform="translate(-140 -133)"/><path class="cls-2" d="M260.43,362a6.35,6.35,0,0,1-4.51-1.86l-6.38-6.38a6.38,6.38,0,0,1,9-9l6.37,6.38a6.37,6.37,0,0,1-4.5,10.88Z" transform="translate(-140 -133)"/><path class="cls-6" d="M444.26,292.08a6.39,6.39,0,0,1-4.51-1.87l-6.37-6.37a6.37,6.37,0,0,1,9-9l6.38,6.38a6.38,6.38,0,0,1-4.51,10.88Z" transform="translate(-140 -133)"/></svg>