<svg id="Layer_1" data-name="Layer 1" xmlns="http://www.w3.org/2000/svg" viewBox="0 0 403 403"><defs><style>.cls-1{fill:#edd55f;}.cls-2{fill:#b85133;}.cls-3{fill:#6a3311;}.cls-4{fill:#88c057;}.cls-5{fill:#659c35;}.cls-6{fill:#d99f4c;}.cls-7{fill:#efdfa0;}</style></defs><title>Food5</title><circle class="cls-1" cx="201.5" cy="201.5" r="201.5"/><path class="cls-2" d="M513.41,366.41H218.35a12.33,12.33,0,0,1-12.3-12.29h0a12.33,12.33,0,0,1,12.3-12.29H513.41a12.33,12.33,0,0,1,12.3,12.29h0A12.33,12.33,0,0,1,513.41,366.41Z" transform="translate(-161 -125)"/><path class="cls-2" d="M507.26,317.24H212.2a12.33,12.33,0,0,1-12.29-12.3h0a12.33,12.33,0,0,1,12.29-12.29H507.26a12.33,12.33,0,0,1,12.3,12.29h0A12.34,12.34,0,0,1,507.26,317.24Z" transform="translate(-161 -125)"/><path class="cls-3" d="M525.71,341.83H224.49a12.33,12.33,0,0,1-12.29-12.3h0a12.33,12.33,0,0,1,12.29-12.29H525.71A12.33,12.33,0,0,1,538,329.53h0A12.33,12.33,0,0,1,525.71,341.83Z" transform="translate(-161 -125)"/><path class="cls-4" d="M233.37,266.26v22.53h0a16.91,16.91,0,0,0,33.26,4.28.56.56,0,0,1,1.1,0,16.91,16.91,0,0,0,32.71,0,.56.56,0,0,1,1.1,0,16.91,16.91,0,0,0,32.71,0,.56.56,0,0,1,1.1,0,16.91,16.91,0,0,0,32.71,0,.56.56,0,0,1,1.1,0,16.91,16.91,0,0,0,32.71,0,.56.56,0,0,1,1.1,0,16.91,16.91,0,0,0,32.71,0,.56.56,0,0,1,1.09,0,16.91,16.91,0,0,0,32.72,0,.56.56,0,0,1,1.09,0,16.91,16.91,0,0,0,33.27-4.28h0V266.26Z" transform="translate(-161 -125)"/><path class="cls-5" d="M501.12,391V368.48h0a16.91,16.91,0,0,0-33.27-4.29.55.55,0,0,1-1.09,0,16.91,16.91,0,0,0-32.71,0,.56.56,0,0,1-1.1,0,16.91,16.91,0,0,0-32.71,0,.56.56,0,0,1-1.1,0,16.91,16.91,0,0,0-32.71,0,.56.56,0,0,1-1.1,0,16.91,16.91,0,0,0-32.71,0,.56.56,0,0,1-1.1,0,16.91,16.91,0,0,0-32.71,0,.56.56,0,0,1-1.1,0,16.91,16.91,0,0,0-32.71,0,.56.56,0,0,1-1.1,0,16.91,16.91,0,0,0-33.26,4.29h0V391Z" transform="translate(-161 -125)"/><path class="cls-6" d="M368.61,204.79h67.62c50.63,0,73.41,36.86,81.87,56.15,4.38,10-1.47,22.09-12.29,23.61a16.82,16.82,0,0,1-2.17.16H233.58a16.67,16.67,0,0,1-2.16-.16c-10.83-1.52-16.68-13.6-12.29-23.61,8.45-19.29,31.23-56.15,81.87-56.15Z" transform="translate(-161 -125)"/><path class="cls-7" d="M430.07,266.26a6.12,6.12,0,0,1-3.4-1l-18.44-12.29a6.15,6.15,0,1,1,6.82-10.23L433.49,255a6.15,6.15,0,0,1-3.42,11.26Z" transform="translate(-161 -125)"/><path class="cls-7" d="M344,241.68a6.15,6.15,0,0,1-5.49-8.9l6.15-12.29a6.15,6.15,0,0,1,11,5.5l-6.15,12.29A6.16,6.16,0,0,1,344,241.68Z" transform="translate(-161 -125)"/><path class="cls-7" d="M276.4,260.12a6.14,6.14,0,0,1-5.49-8.9l6.14-12.29a6.15,6.15,0,0,1,11,5.5l-6.15,12.29A6.14,6.14,0,0,1,276.4,260.12Z" transform="translate(-161 -125)"/><path class="cls-6" d="M501.12,372.56H231.06a12.33,12.33,0,0,0-12.29,12.3s11.12,67.61,79.7,67.61H433.71c68.58,0,79.7-67.61,79.7-67.61A12.33,12.33,0,0,0,501.12,372.56Z" transform="translate(-161 -125)"/><path class="cls-7" d="M292.32,415.59a6.21,6.21,0,0,1-3.41-1l-18.44-12.3A6.14,6.14,0,1,1,277.29,392l18.44,12.29a6.14,6.14,0,0,1-3.41,11.26Z" transform="translate(-161 -125)"/><path class="cls-7" d="M360,427.89a6.16,6.16,0,0,1-5.51-3.4l-6.15-12.3a6.15,6.15,0,1,1,11-5.5L365.44,419a6.14,6.14,0,0,1-2.75,8.25A6,6,0,0,1,360,427.89Z" transform="translate(-161 -125)"/><path class="cls-7" d="M403,415.59a6.14,6.14,0,0,1-5.49-8.9l6.14-12.29a6.15,6.15,0,1,1,11,5.5l-6.15,12.29A6.16,6.16,0,0,1,403,415.59Z" transform="translate(-161 -125)"/></svg>