<svg id="Layer_1" data-name="Layer 1" xmlns="http://www.w3.org/2000/svg" viewBox="0 0 403 403"><defs><style>.cls-1{fill:#ffc2c2;}.cls-2{fill:#ffcd00;}.cls-3{fill:#ff3051;}.cls-4{fill:#e52b49;}.cls-5{fill:#bcbec0;}.cls-6{fill:#ff9811;}.cls-7{fill:#ff6243;}.cls-8{fill:#e5583c;}.cls-9{fill:#e5890f;}</style></defs><title>Food8</title><circle class="cls-1" cx="201.5" cy="201.5" r="201.5"/><path class="cls-2" d="M291.11,358.41c.25-.17.55-.3.82-.48C291.66,358.12,291.36,358.25,291.11,358.41Z" transform="translate(-173 -143)"/><path class="cls-2" d="M369.13,357.1c.35-.15.73-.23,1.09-.35C369.86,356.87,369.48,357,369.13,357.1Z" transform="translate(-173 -143)"/><path class="cls-2" d="M371.93,356.3c.41-.07.83-.09,1.25-.13C372.76,356.21,372.34,356.23,371.93,356.3Z" transform="translate(-173 -143)"/><path class="cls-2" d="M453.32,356.52c.28.07.54.17.81.25A5.44,5.44,0,0,0,453.32,356.52Z" transform="translate(-173 -143)"/><path class="cls-2" d="M442.09,358.41c.25-.17.55-.3.82-.48C442.64,358.12,442.34,358.25,442.09,358.41Z" transform="translate(-173 -143)"/><path class="cls-2" d="M293.64,357.1c.35-.15.73-.23,1.09-.35C294.37,356.87,294,357,293.64,357.1Z" transform="translate(-173 -143)"/><path class="cls-2" d="M450.93,356.08h-.47a9.65,9.65,0,0,1,1.34.14C451.5,356.2,451.23,356.1,450.93,356.08Z" transform="translate(-173 -143)"/><path class="cls-2" d="M447.42,356.3c.41-.07.83-.09,1.25-.13C448.25,356.21,447.83,356.23,447.42,356.3Z" transform="translate(-173 -143)"/><path class="cls-2" d="M444.62,357.1c.35-.15.73-.23,1.09-.35C445.35,356.87,445,357,444.62,357.1Z" transform="translate(-173 -143)"/><path class="cls-2" d="M377.83,356.52c.28.07.54.17.82.25A6,6,0,0,0,377.83,356.52Z" transform="translate(-173 -143)"/><path class="cls-2" d="M296.44,356.3c.41-.07.83-.09,1.25-.13C297.27,356.21,296.85,356.23,296.44,356.3Z" transform="translate(-173 -143)"/><path class="cls-2" d="M366.6,358.41c.25-.17.55-.3.82-.48C367.15,358.12,366.85,358.25,366.6,358.41Z" transform="translate(-173 -143)"/><path class="cls-2" d="M300,356.08h-.47a9.65,9.65,0,0,1,1.34.14C300.52,356.2,300.25,356.1,300,356.08Z" transform="translate(-173 -143)"/><path class="cls-2" d="M302.34,356.52c.28.07.54.17.82.25A6,6,0,0,0,302.34,356.52Z" transform="translate(-173 -143)"/><path class="cls-2" d="M375.44,356.08H375a9.65,9.65,0,0,1,1.34.14C376,356.2,375.74,356.1,375.44,356.08Z" transform="translate(-173 -143)"/><path class="cls-2" d="M470.94,405.78a23.68,23.68,0,0,1-6.89-16.71V371a15,15,0,0,0-9.91-14.24c-.27-.08-.54-.18-.82-.25a12.87,12.87,0,0,0-1.53-.27c-.44-.06-.88-.12-1.33-.14a15.05,15.05,0,0,0-1.78.07c-.42,0-.85.06-1.25.13a14.57,14.57,0,0,0-1.72.47c-.36.12-.74.2-1.09.34a15.18,15.18,0,0,0-1.7.88,6.8,6.8,0,0,0-.83.47,14.44,14.44,0,0,0-2.19,1.78,14.12,14.12,0,0,0-4.16,10v9.44a23.59,23.59,0,0,1-47.18,0V371a15,15,0,0,0-9.91-14.24c-.27-.08-.54-.18-.82-.25a12.87,12.87,0,0,0-1.53-.27c-.44-.06-.88-.12-1.33-.14a15.05,15.05,0,0,0-1.78.07c-.42,0-.85.06-1.25.13a14.57,14.57,0,0,0-1.72.47c-.36.12-.74.2-1.09.34a15.18,15.18,0,0,0-1.7.88,6.8,6.8,0,0,0-.83.47,14.44,14.44,0,0,0-2.19,1.78,14.12,14.12,0,0,0-4.16,10v28.31a23.59,23.59,0,1,1-47.18,0V371a15,15,0,0,0-9.91-14.24c-.27-.08-.54-.18-.82-.25a12.87,12.87,0,0,0-1.53-.27c-.44-.06-.88-.12-1.33-.14a15.05,15.05,0,0,0-1.78.07c-.42,0-.85.06-1.25.13a15.12,15.12,0,0,0-1.72.47c-.36.12-.74.2-1.09.34a15.18,15.18,0,0,0-1.7.88,6.8,6.8,0,0,0-.83.47,14.44,14.44,0,0,0-2.19,1.78,14.12,14.12,0,0,0-4.16,10v18.87a23.51,23.51,0,0,1-23.59,23.59,24.15,24.15,0,0,1-9.44-1.93v58.55H497.07V410.73a24.07,24.07,0,0,1-9.43,1.93A23.69,23.69,0,0,1,470.94,405.78Z" transform="translate(-173 -143)"/><path class="cls-3" d="M492.36,327.74H256.45a18.87,18.87,0,0,0-18.87,18.87v42.46a23.72,23.72,0,0,0,6.89,16.71,23.59,23.59,0,0,0,40.29-16.71V370.2a14.11,14.11,0,0,1,4.15-10,13.93,13.93,0,0,1,2.2-1.78c.25-.17.55-.3.82-.48a13.74,13.74,0,0,1,1.71-.87c.35-.14.73-.23,1.09-.34a16.66,16.66,0,0,1,1.71-.48c.41-.07.83-.09,1.25-.12s.81-.08,1.22-.08c.19,0,.37,0,.56.05a3.67,3.67,0,0,1,.47,0,8.13,8.13,0,0,1,.86.15c.51.07,1,.16,1.53.28.28.07.55.16.82.25a14.1,14.1,0,0,1,9.92,13.42v28.31a23.59,23.59,0,1,0,47.18,0V370.2a14.11,14.11,0,0,1,4.15-10,13.93,13.93,0,0,1,2.2-1.78c.25-.17.55-.3.82-.48a13.74,13.74,0,0,1,1.71-.87c.35-.14.73-.23,1.09-.34a16.66,16.66,0,0,1,1.71-.48c.41-.07.83-.09,1.25-.12s.8-.08,1.22-.08c.19,0,.37,0,.56.05a3.67,3.67,0,0,1,.47,0,8.13,8.13,0,0,1,.86.15c.51.07,1,.16,1.53.28.28.07.55.16.82.25a14.1,14.1,0,0,1,9.92,13.42v9.44a23.59,23.59,0,0,0,47.18,0V370.2a14.11,14.11,0,0,1,4.15-10,13.93,13.93,0,0,1,2.2-1.78c.25-.17.55-.3.82-.48a13.74,13.74,0,0,1,1.71-.87c.35-.14.73-.23,1.09-.34a16.66,16.66,0,0,1,1.71-.48c.41-.07.83-.09,1.25-.12s.8-.08,1.22-.08c.19,0,.37,0,.56.05a3.67,3.67,0,0,1,.47,0,8.13,8.13,0,0,1,.86.15c.51.07,1,.16,1.53.28.28.07.55.16.82.25a14.1,14.1,0,0,1,9.92,13.42v18.87a23.51,23.51,0,0,0,23.59,23.59,24.07,24.07,0,0,0,9.43-1.93,23.72,23.72,0,0,0,14.16-21.66V346.61A18.87,18.87,0,0,0,492.36,327.74Z" transform="translate(-173 -143)"/><path class="cls-4" d="M277.87,405.78a23.72,23.72,0,0,0,6.89-16.71v9.44a23.59,23.59,0,1,1-47.18,0v-9.44a23.72,23.72,0,0,0,6.89,16.71,23.36,23.36,0,0,0,16.7,6.88A23.69,23.69,0,0,0,277.87,405.78Z" transform="translate(-173 -143)"/><path class="cls-4" d="M353.36,415.21a23.7,23.7,0,0,0,6.89-16.7V408a23.59,23.59,0,1,1-47.18,0v-9.44a23.62,23.62,0,0,0,40.29,16.7Z" transform="translate(-173 -143)"/><path class="cls-4" d="M428.85,396.34a23.7,23.7,0,0,0,6.89-16.7v9.43a23.59,23.59,0,0,1-47.18,0v-9.43a23.62,23.62,0,0,0,40.29,16.7Z" transform="translate(-173 -143)"/><path class="cls-4" d="M511.23,389.07v9.44a23.73,23.73,0,0,1-14.16,21.66,24.07,24.07,0,0,1-9.43,1.93,23.52,23.52,0,0,1-23.59-23.59v-9.44a23.51,23.51,0,0,0,23.59,23.59,24.07,24.07,0,0,0,9.43-1.93A23.72,23.72,0,0,0,511.23,389.07Z" transform="translate(-173 -143)"/><path class="cls-5" d="M511.23,474H237.58a4.72,4.72,0,0,1,0-9.44H511.23a4.72,4.72,0,1,1,0,9.44Z" transform="translate(-173 -143)"/><path class="cls-2" d="M439.89,360.2a13.93,13.93,0,0,1,2.2-1.78A13.93,13.93,0,0,0,439.89,360.2Z" transform="translate(-173 -143)"/><path class="cls-2" d="M313.07,371v-.8a14.1,14.1,0,0,0-9.91-13.44A15,15,0,0,1,313.07,371Z" transform="translate(-173 -143)"/><path class="cls-2" d="M376.29,356.24a13.24,13.24,0,0,1,1.53.27A13.24,13.24,0,0,0,376.29,356.24Z" transform="translate(-173 -143)"/><path class="cls-2" d="M388.56,371v-.8a14.1,14.1,0,0,0-9.91-13.44A15,15,0,0,1,388.56,371Z" transform="translate(-173 -143)"/><path class="cls-2" d="M464.05,371v-.8a14.1,14.1,0,0,0-9.91-13.44A15,15,0,0,1,464.05,371Z" transform="translate(-173 -143)"/><path class="cls-2" d="M370.22,356.75a14.41,14.41,0,0,1,1.71-.47A14.41,14.41,0,0,0,370.22,356.75Z" transform="translate(-173 -143)"/><path class="cls-2" d="M298.91,356.05c-.41,0-.81.09-1.22.12a15.14,15.14,0,0,1,1.78-.07C299.28,356.09,299.1,356.05,298.91,356.05Z" transform="translate(-173 -143)"/><path class="cls-2" d="M300.8,356.24a13.24,13.24,0,0,1,1.53.27A13.24,13.24,0,0,0,300.8,356.24Z" transform="translate(-173 -143)"/><path class="cls-2" d="M449.89,356.05c-.42,0-.81.09-1.22.12a15.14,15.14,0,0,1,1.78-.07C450.26,356.09,450.08,356.05,449.89,356.05Z" transform="translate(-173 -143)"/><path class="cls-2" d="M291.93,358a13.74,13.74,0,0,1,1.71-.87A13.74,13.74,0,0,0,291.93,358Z" transform="translate(-173 -143)"/><path class="cls-2" d="M442.91,358a13.74,13.74,0,0,1,1.71-.87A13.74,13.74,0,0,0,442.91,358Z" transform="translate(-173 -143)"/><path class="cls-2" d="M445.71,356.75a14.41,14.41,0,0,1,1.71-.47A14.41,14.41,0,0,0,445.71,356.75Z" transform="translate(-173 -143)"/><path class="cls-2" d="M288.91,360.2a13.93,13.93,0,0,1,2.2-1.78A13.93,13.93,0,0,0,288.91,360.2Z" transform="translate(-173 -143)"/><path class="cls-2" d="M294.73,356.75a14.41,14.41,0,0,1,1.71-.47A14.41,14.41,0,0,0,294.73,356.75Z" transform="translate(-173 -143)"/><path class="cls-2" d="M374.4,356.05c-.42,0-.81.09-1.22.12a15.14,15.14,0,0,1,1.78-.07C374.77,356.09,374.59,356.05,374.4,356.05Z" transform="translate(-173 -143)"/><path class="cls-2" d="M364.4,360.2a13.93,13.93,0,0,1,2.2-1.78A13.93,13.93,0,0,0,364.4,360.2Z" transform="translate(-173 -143)"/><path class="cls-2" d="M451.78,356.24a13.24,13.24,0,0,1,1.53.27A13.24,13.24,0,0,0,451.78,356.24Z" transform="translate(-173 -143)"/><path class="cls-2" d="M367.42,358a13.74,13.74,0,0,1,1.71-.87A13.74,13.74,0,0,0,367.42,358Z" transform="translate(-173 -143)"/><path class="cls-6" d="M360.25,266.4h28.31v61.34H360.25Z" transform="translate(-173 -143)"/><path class="cls-7" d="M355.53,228.66a18.88,18.88,0,0,0,37.75,0c0-10.42-18.88-37.75-18.88-37.75S355.53,218.24,355.53,228.66Z" transform="translate(-173 -143)"/><path class="cls-6" d="M440.46,275.84h28.31v51.9H440.46Z" transform="translate(-173 -143)"/><path class="cls-7" d="M435.74,238.09a18.87,18.87,0,1,0,37.74,0c0-10.42-18.87-37.74-18.87-37.74S435.74,227.67,435.74,238.09Z" transform="translate(-173 -143)"/><path class="cls-6" d="M280,275.84h28.31v51.9H280Z" transform="translate(-173 -143)"/><path class="cls-7" d="M313.07,238.09a18.91,18.91,0,0,1-16.47,18.74h0a20.89,20.89,0,0,1-2.36.14,18.88,18.88,0,0,1-18.88-18.88c0-10.42,18.88-37.74,18.88-37.74s.94,1.37,2.36,3.54C301.65,211.63,313.07,230,313.07,238.09Z" transform="translate(-173 -143)"/><path class="cls-8" d="M296.56,256.83a20.89,20.89,0,0,1-2.36.14,18.88,18.88,0,0,1-18.88-18.88c0-10.42,18.88-37.74,18.88-37.74s.94,1.37,2.36,3.54C291.46,211.63,280,230,280,238.09A18.92,18.92,0,0,0,296.56,256.83Z" transform="translate(-173 -143)"/><path class="cls-8" d="M376.76,247.39a20.62,20.62,0,0,1-2.36.14,18.87,18.87,0,0,1-18.87-18.87c0-10.43,18.87-37.75,18.87-37.75s1,1.37,2.36,3.54c-5.09,7.74-16.51,26.09-16.51,34.21A18.9,18.9,0,0,0,376.76,247.39Z" transform="translate(-173 -143)"/><path class="cls-8" d="M457,256.83a20.62,20.62,0,0,1-2.36.14,18.87,18.87,0,0,1-18.87-18.88c0-10.42,18.87-37.74,18.87-37.74s.95,1.37,2.36,3.54c-5.1,7.74-16.51,26.09-16.51,34.2A18.92,18.92,0,0,0,457,256.83Z" transform="translate(-173 -143)"/><path class="cls-9" d="M280,275.84h28.31v9.44H280Z" transform="translate(-173 -143)"/><path class="cls-9" d="M360.25,266.4h28.31v9.44H360.25Z" transform="translate(-173 -143)"/><path class="cls-9" d="M440.46,275.84h28.31v9.44H440.46Z" transform="translate(-173 -143)"/></svg>