<svg id="Layer_1" data-name="Layer 1" xmlns="http://www.w3.org/2000/svg" viewBox="0 0 502 502"><defs><style>.cls-1{fill:#6ce0b6;}.cls-2{fill:#dae7ef;}.cls-3{fill:#f75b57;}.cls-4{fill:#d13834;}.cls-5{fill:#d75a4a;}.cls-6{fill:#ed3f32;}.cls-7{fill:#f96c7e;}.cls-8{fill:#e22f37;}.cls-9{fill:#fff;}.cls-10{fill:#e6e6e6;}.cls-11{fill:#d2d5d7;}</style></defs><title>Food2</title><circle class="cls-1" cx="251" cy="251" r="251"/><path class="cls-2" d="M467.47,225.34V222h5.61c8.71,0,14.38-7.13,14.38-15.85V190.29c0-8.72-5.67-15.85-14.38-15.85H299.31c-8.72,0-14.38,7.12-14.38,15.85v15.85c0,8.71,5.66,15.85,14.38,15.85h7.93v3.35c0,30.83-55.48,14.48-55.48,71.33V472.56A66.44,66.44,0,0,0,318.2,539H454.78a66.44,66.44,0,0,0,66.43-66.44V296.66C521.22,239.82,467.47,256.17,467.47,225.34Z" transform="translate(-135 -104)"/><path class="cls-3" d="M375.5,307.9a212.71,212.71,0,0,0-44.88-10.13,70.69,70.69,0,0,0-78.87,70.17V472.55A66.44,66.44,0,0,0,318.19,539H454.78a66.43,66.43,0,0,0,66.43-66.44V393.41c0-40-33.2-71.76-73.19-70.53-33.15,1-57.58-8.51-65.67-12.18C380.11,309.7,377.83,308.7,375.5,307.9Z" transform="translate(-135 -104)"/><circle class="cls-4" cx="190.44" cy="259.47" r="27"/><circle class="cls-5" cx="325.46" cy="279.72" r="20.25"/><circle class="cls-6" cx="251.2" cy="320.23" r="13.5"/><circle class="cls-7" cx="190.44" cy="380.99" r="20.25"/><circle class="cls-4" cx="325.46" cy="374.24" r="13.5"/><path class="cls-8" d="M401.48,374.49a6.78,6.78,0,0,1-3-.71l-17.08-8.54a6.75,6.75,0,0,1,6-12.08l17.08,8.55a6.74,6.74,0,0,1-3,12.78Z" transform="translate(-135 -104)"/><path class="cls-7" d="M447,444.48a6.77,6.77,0,0,1-4.78-2L428.68,429a6.75,6.75,0,0,1,9.55-9.54l13.5,13.5A6.75,6.75,0,0,1,447,444.48Z" transform="translate(-135 -104)"/><path class="cls-6" d="M383.89,501.51a6.75,6.75,0,0,1-2.14-13.16l18.12-6a6.75,6.75,0,1,1,4.27,12.81l-18.12,6A6.65,6.65,0,0,1,383.89,501.51Z" transform="translate(-135 -104)"/><path class="cls-6" d="M298.43,437.73a6.75,6.75,0,0,1-4.77-11.52l13.5-13.5a6.75,6.75,0,0,1,9.55,9.54l-13.51,13.5A6.73,6.73,0,0,1,298.43,437.73Z" transform="translate(-135 -104)"/><path class="cls-9" d="M487.46,309.46a6.75,6.75,0,0,1-6.61-5.42c-7.49-37.09-55.2-48.66-55.68-48.77a6.75,6.75,0,0,1,3.07-13.15c2.31.54,56.65,13.75,65.83,59.24a6.75,6.75,0,0,1-5.27,8A6.17,6.17,0,0,1,487.46,309.46Z" transform="translate(-135 -104)"/><path class="cls-10" d="M378.24,174.44h94.84c8.71,0,14.38,7.13,14.38,15.85v15.85c0,8.71-5.67,15.85-14.38,15.85H299.31c-8.72,0-14.38-7.14-14.38-15.85V190.29c0-8.72,5.66-15.85,14.38-15.85h95.1" transform="translate(-135 -104)"/><path class="cls-11" d="M447,222h13.38c0-.1.07-.19.07-.29V174.44H447v47.25C447,221.79,447,221.88,447,222Z" transform="translate(-135 -104)"/><path class="cls-11" d="M420,222h13.38c0-.1.07-.19.07-.29V174.44H420v47.25C420,221.79,420,221.88,420,222Z" transform="translate(-135 -104)"/><path class="cls-11" d="M393,222h13.39c0-.1.06-.19.06-.29V174.44H393v47.25C393,221.79,393,221.88,393,222Z" transform="translate(-135 -104)"/><path class="cls-11" d="M366,222h13.39c0-.1.06-.19.06-.29V174.44H365.94v47.25C365.94,221.79,366,221.88,366,222Z" transform="translate(-135 -104)"/><path class="cls-11" d="M339,222h13.38c0-.1.07-.19.07-.29V174.44h-13.5v47.25C338.94,221.79,339,221.88,339,222Z" transform="translate(-135 -104)"/><path class="cls-11" d="M312,222h13.38c0-.1.07-.19.07-.29V174.44H311.93v47.25C311.93,221.79,312,221.88,312,222Z" transform="translate(-135 -104)"/></svg>