<svg id="Layer_1" data-name="Layer 1" xmlns="http://www.w3.org/2000/svg" viewBox="0 0 403 403"><defs><style>.cls-1{fill:#659c35;}.cls-2{fill:#fbd490;}.cls-3{fill:#ed7161;}.cls-4{fill:#e6e6e6;}.cls-5{fill:#7a3726;}.cls-6{fill:#eeaf4b;}.cls-7{fill:#dc9628;}</style></defs><title>Food6</title><circle class="cls-1" cx="201.5" cy="201.5" r="201.5"/><path class="cls-2" d="M284,263.84C212.51,335.33,247.38,425.62,300.78,506L542.94,263.84C471.44,192.33,355.51,192.33,284,263.84Z" transform="translate(-173 -143)"/><path class="cls-3" d="M351.19,244a5.78,5.78,0,0,1-5.36-3.63L334.3,211.48A5.77,5.77,0,0,1,345,207.2L356.54,236a5.76,5.76,0,0,1-5.35,7.91Z" transform="translate(-173 -143)"/><path class="cls-1" d="M439.61,244.57a5.77,5.77,0,0,1-5.59-7.21l7.72-30.08a5.77,5.77,0,0,1,11.17,2.87l-7.71,30.08A5.78,5.78,0,0,1,439.61,244.57Z" transform="translate(-173 -143)"/><path class="cls-3" d="M345.42,255.48a5.77,5.77,0,0,1-4.07-9.84l28.83-28.84a5.77,5.77,0,1,1,8.16,8.16L349.5,253.79A5.74,5.74,0,0,1,345.42,255.48Z" transform="translate(-173 -143)"/><path class="cls-3" d="M305.05,278.55h-34.6a5.77,5.77,0,1,1,0-11.53h34.6a5.77,5.77,0,1,1,0,11.53Z" transform="translate(-173 -143)"/><path class="cls-1" d="M501.15,255.48a5.77,5.77,0,0,1-2.59-10.93l11.54-5.76a5.77,5.77,0,0,1,5.16,10.32l-11.54,5.76A5.77,5.77,0,0,1,501.15,255.48Z" transform="translate(-173 -143)"/><path class="cls-4" d="M241.61,445.81a5.77,5.77,0,0,1-1.83-11.24l17.3-5.77a5.77,5.77,0,1,1,3.65,10.94l-17.3,5.77A5.78,5.78,0,0,1,241.61,445.81Z" transform="translate(-173 -143)"/><path class="cls-3" d="M253.14,370.83a5.73,5.73,0,0,1-2.57-.6L239,364.46a5.77,5.77,0,0,1,5.16-10.32l11.54,5.77a5.76,5.76,0,0,1-2.59,10.92Z" transform="translate(-173 -143)"/><path class="cls-4" d="M282,503.49a5.77,5.77,0,0,1-4.08-9.85l5.77-5.77a5.77,5.77,0,0,1,8.16,8.16l-5.77,5.77A5.78,5.78,0,0,1,282,503.49Z" transform="translate(-173 -143)"/><path class="cls-1" d="M325.12,263.09A14.64,14.64,0,0,1,310.7,250.9a5.77,5.77,0,0,1-11.42-1.18,23.09,23.09,0,0,1,23.07-23.07A19.62,19.62,0,0,1,342,246.25,16.85,16.85,0,0,1,325.12,263.09Zm-8.86-20.39a5.77,5.77,0,0,1,5.77,5.77,3.1,3.1,0,0,0,3.09,3.09,5.32,5.32,0,0,0,5.31-5.31,8.08,8.08,0,0,0-8.08-8.07,11.53,11.53,0,0,0-10.29,6.34A5.73,5.73,0,0,1,316.26,242.7Z" transform="translate(-173 -143)"/><path class="cls-5" d="M267.56,324.69a20.19,20.19,0,1,1,20.19-20.18A20.2,20.2,0,0,1,267.56,324.69Zm0-28.83a8.65,8.65,0,1,0,8.65,8.65A8.66,8.66,0,0,0,267.56,295.86Z" transform="translate(-173 -143)"/><path class="cls-5" d="M394.45,244a20.19,20.19,0,1,1,20.18-20.19A20.22,20.22,0,0,1,394.45,244Zm0-28.84a8.65,8.65,0,1,0,8.65,8.65A8.66,8.66,0,0,0,394.45,215.11Z" transform="translate(-173 -143)"/><path class="cls-1" d="M247.37,411.21a5.81,5.81,0,0,1-2.58-.61,18.68,18.68,0,0,1-8.34-25,16.08,16.08,0,0,1,21.57-7.2,14,14,0,0,1,6.28,18.81A5.76,5.76,0,1,1,254,392a2.53,2.53,0,0,0,.13-1.9,2.5,2.5,0,0,0-1.25-1.44,4.54,4.54,0,0,0-6.1,2,7.14,7.14,0,0,0,3.19,9.57,5.77,5.77,0,0,1-2.59,10.93Z" transform="translate(-173 -143)"/><path class="cls-1" d="M267,489.64a13.17,13.17,0,0,1-13.15-13.15,5.77,5.77,0,1,1,11.53,0A1.61,1.61,0,0,0,267,478.1a3.47,3.47,0,0,0,3.46-3.46,5.78,5.78,0,0,0-5.77-5.77,5.77,5.77,0,1,1,0-11.53,17.32,17.32,0,0,1,17.3,17.3A15,15,0,0,1,267,489.64Z" transform="translate(-173 -143)"/><path class="cls-5" d="M472.31,249.72a5.76,5.76,0,0,1-4.08-1.69,22.11,22.11,0,0,1,0-31.23,18.85,18.85,0,0,1,26.61,0,16.2,16.2,0,0,1,0,22.92,14.16,14.16,0,0,1-17.14,2.19,5.77,5.77,0,0,1-5.39,7.81Zm9.23-26.89a7.27,7.27,0,0,0-5.16,2.13,10.56,10.56,0,0,0-3,9,5.87,5.87,0,0,1,1.45-2.43,5.78,5.78,0,0,1,8.16,0,2.6,2.6,0,0,0,3.66,0,4.68,4.68,0,0,0,0-6.6A7.27,7.27,0,0,0,481.54,222.83Z" transform="translate(-173 -143)"/><path class="cls-5" d="M520.75,276.24a13.16,13.16,0,0,1-13.15-13.15,5.77,5.77,0,0,1,11.54,0,1.62,1.62,0,0,0,1.61,1.62,3.47,3.47,0,0,0,3.46-3.46,5.77,5.77,0,0,0-5.76-5.77,5.77,5.77,0,0,1,0-11.54,17.33,17.33,0,0,1,17.3,17.31A15,15,0,0,1,520.75,276.24Z" transform="translate(-173 -143)"/><path class="cls-4" d="M414.17,244a16.87,16.87,0,0,1-16.84-16.84,14.66,14.66,0,0,1,12.2-14.43,5.77,5.77,0,0,1,1.18-11.41,23.1,23.1,0,0,1,23.07,23.07A19.64,19.64,0,0,1,414.17,244ZM415.89,214A5.77,5.77,0,0,1,412,224a3.1,3.1,0,0,0-3.09,3.09,5.31,5.31,0,0,0,5.31,5.31,8.08,8.08,0,0,0,8.07-8.08A11.53,11.53,0,0,0,415.89,214Z" transform="translate(-173 -143)"/><path class="cls-6" d="M301.11,278.28a160.79,160.79,0,0,0,0,227.39L528.49,278.28A160.76,160.76,0,0,0,301.11,278.28Z" transform="translate(-173 -143)"/><circle class="cls-2" cx="250.28" cy="167.27" r="8.65"/><circle class="cls-7" cx="100.33" cy="259.55" r="8.65"/><circle class="cls-7" cx="152.24" cy="196.11" r="14.42"/><circle class="cls-7" cx="215.68" cy="236.48" r="14.42"/><circle class="cls-7" cx="221.45" cy="121.13" r="14.42"/><circle class="cls-7" cx="152.24" cy="294.15" r="8.65"/><circle class="cls-2" cx="158" cy="149.97" r="8.65"/><circle class="cls-2" cx="111.86" cy="201.87" r="8.65"/><circle class="cls-2" cx="189.73" cy="181.69" r="5.77"/><circle class="cls-2" cx="143.59" cy="250.9" r="5.77"/><circle class="cls-2" cx="305.07" cy="141.32" r="5.77"/><circle class="cls-2" cx="178.19" cy="239.36" r="5.77"/><circle class="cls-2" cx="120.52" cy="302.8" r="5.77"/></svg>