<svg id="Layer_1" data-name="Layer 1" xmlns="http://www.w3.org/2000/svg" viewBox="0 0 285.13 285.13"><defs><style>.cls-1{fill:#b1e3fb;}.cls-2{fill:#fbd734;}.cls-3{fill:#fbc443;}.cls-4{fill:#f9bf2c;}.cls-5{fill:#8f1d00;}.cls-6{fill:#ff0;}</style></defs><title>Place1</title><path class="cls-1" d="M266.14,97.87A142.57,142.57,0,1,1,123.57,240.44,142.57,142.57,0,0,1,266.14,97.87Z" transform="translate(-123.57 -97.87)"/><path class="cls-2" d="M408.52,247.74c-10.14.6-18.61-.66-30.07-1.93-9.49-1.06-19.11,3.58-28.6,2.49-7.9-.91-15.47-5.12-23.36-4.14-6.22.77-11.78,4.71-18,5.15-7.68.54-14.85-4.26-22.54-4.43-9.49-.21-17.9,6.57-27.37,7.26-7.78.57-15.44-3-23.22-2.41-6.22.5-11.92,3.67-18,4.87-10.28,2-20.76-1.64-31.22-1.95-9.28-.27-22.82,5.4-32.09,5.88-10.93.58-20.07-3.39-29.51-2.26a142.57,142.57,0,0,0,284.07-8.53Z" transform="translate(-123.57 -97.87)"/><path class="cls-3" d="M396.47,298.27c-23.46-4.63-47-13.36-70.68-11.56-17.46,1.33-34.08,8.35-51.51,10-36.8,3.56-73.46-16.79-109.82-10.11-9.89,1.82-20,5.61-30,8.56a142.61,142.61,0,0,0,262,3.07Z" transform="translate(-123.57 -97.87)"/><path class="cls-2" d="M353.22,341.64s-40.67.44-97.06-17.45C230.33,316,204,308.3,176.91,309.6a224.54,224.54,0,0,0-33,4.25,142.58,142.58,0,0,0,209.31,39.46V341.64Z" transform="translate(-123.57 -97.87)"/><path class="cls-4" d="M356.18,351c-28.4-3.61-56.89-8.26-84.6-11.76-20-2.54-40.39-4.29-60.34-1.23-13,2-25.64,6-38.05,10.56a142.55,142.55,0,0,0,183,2.43Z" transform="translate(-123.57 -97.87)"/><polygon class="cls-4" points="124.57 172.65 200.03 71.91 266.45 172.18 124.57 172.65"/><polygon class="cls-2" points="124.57 172.65 200.03 71.91 200.03 172.4 124.57 172.65"/><polygon class="cls-4" points="21.27 173.04 115.02 90.13 197.55 172.66 21.27 173.04"/><polygon class="cls-2" points="21.27 173.04 115.02 90.13 115.02 172.84 21.27 173.04"/><path class="cls-5" d="M235.17,251.18a.9.9,0,0,1,.23-.71c.69-.36.83-.22,1.32-.95s1.79-1,3.07-.82a4.54,4.54,0,0,0,3.35-.52,4.48,4.48,0,0,1,3-.32c.25-.39,1.06-.31,1.06-.31a7.67,7.67,0,0,1-.1,1.67,6.53,6.53,0,0,1,1.71,1c.78.65.75,1.58,1,2.24a2,2,0,0,1-.45,1.83c-.23.15,0,.94.24,2.25a3.8,3.8,0,0,0,.85,1.89s.59.62,1.08.62a3.52,3.52,0,0,0,2.86-1.44c.87-1.19,1.39-4.88,4.25-5.28,1.67-.23,3-2.57,5.09-5.17s6.6-1.83,8,.81A22.48,22.48,0,0,0,277.9,255c2.7,1.83,2.26,3.78,2.42,5s1.79,5.24,1.83,5.76-1.23.68-1.23.68c.32.4-.44,3.41.47,5.33a5.89,5.89,0,0,1,.17,4.05s-.09,4.33,0,5.2a2.47,2.47,0,0,1-1.07,2c-.4.32-.56,1.55-.56,1.55h-3.53a14,14,0,0,1,1.94-1.95c.88-.63,1.28-2.42,1.35-4.65s.09-4.37-.91-5.64a24.44,24.44,0,0,1-2.18-4.05s-.13,3.06.35,4a2.9,2.9,0,0,1-.2,2.78c-.47,1-2.5,5-2.42,5.76a2.59,2.59,0,0,1-.72,1.87,6.52,6.52,0,0,0-.71,1.59h-3.26a5.53,5.53,0,0,1,1.63-1.78c1-.68,1.43-2.55,2.15-4.06s1.58-3.46,1.43-4.76-.68-1.68-1.59-3.86a26.53,26.53,0,0,1-1.39-4.93c-.92-.12-3.18,1-5.13,1.51s-3.5.12-3.74.39-.55,3.39,0,4.14,1,4,1.08,5.29a17.46,17.46,0,0,0,.79,3.77,3,3,0,0,1,0,1.91,9.21,9.21,0,0,0-.16,1.63h-3.3c.44-1.27,1.83-1,1.95-2.7a10.08,10.08,0,0,0-.92-4.77,26.62,26.62,0,0,1-1.47-4c-.36-1.39-1.43-2.07-1.43-.36a26.77,26.77,0,0,1-.95,5.25c-.16.64-.71,2.86-.48,3.38s.44,1.67,0,1.79-.88,1.11-.88,1.11a7.34,7.34,0,0,1-.51,1.31h-3a1.63,1.63,0,0,1,1.11-1.27c1-.32,1.19-.52,1.83-2.94a7.56,7.56,0,0,0,.24-4,6.42,6.42,0,0,1,.28-2.06c.08-.71,0-3.46,0-3.46-.12-1.19,0-4.12,0-4.12a19.13,19.13,0,0,1-2.33-1.66c-11,1-10.79-5.75-11.44-6.56-1.26-1.54-1-3.4-.91-4.55-.29.37-2.22.76-2.91,0a11,11,0,0,0-2.9-1.73c-.43-.2-1.41.23-1.39-.08s.42-.38.47-.51S235.25,251.56,235.17,251.18Z" transform="translate(-123.57 -97.87)"/><path class="cls-5" d="M332.31,286.59c-.83-1.71-.15-4.43-.43-4.78,0,0-.13-1.86-.16-2.32s-.24-2.33-.38-3.47,0-3.84-2.41-5.49A14.71,14.71,0,0,1,324.3,265c-1.3-2.37-5.75-2.91-7.62-.63s-3.08,5-4.59,5.22c-2.58.36-3.3,3.59-4.09,4.66a3.32,3.32,0,0,1-2.66.89c-.45,0-1-.55-1-.55a3.45,3.45,0,0,1-.76-1.7c-.24-1.18-.42-1.89-.22-2a1.83,1.83,0,0,0,.41-1.64c-.25-.6-.23-1.44-.93-2a6,6,0,0,0-1.54-.89,7.49,7.49,0,0,0,.09-1.5s-.74-.07-1,.28a4.11,4.11,0,0,0-2.71.29,4.15,4.15,0,0,1-3,.47,2.92,2.92,0,0,0-2.78.73c-.44.66-.56.53-1.19.85a.83.83,0,0,0-.2.64c.07.34.56.29.51.4s-.4.19-.42.47.87-.11,1.25.06a8.14,8.14,0,0,1,2.66,1.34c.62.68,2.94.4,3.21.06a11.76,11.76,0,0,0,.75,4.59c.63,1.64.13,4.79,9.8,5.55,0,0,.44,0,1,.14a34.34,34.34,0,0,1,.56,5.18,23.25,23.25,0,0,0,.56,3.77,11.26,11.26,0,0,1-.59,4.82c-.42,1.48-1.93,1.57-2.29,2.72l3-.09a8,8,0,0,1,.44-1.4,2.68,2.68,0,0,0,.35-1.68,29.5,29.5,0,0,1,.53-3.93c.13-1.14.35-4.08,0-4.85a4.23,4.23,0,0,1,.19-2.05,11.81,11.81,0,0,0,.41,2.06s.67,2.38.75,3a5.74,5.74,0,0,0,.21,1.86,6.82,6.82,0,0,1,.66,3.55c0,2.26,0,2.68-.94,3a1.48,1.48,0,0,0-1,1.15h2.69a6.32,6.32,0,0,0,.46-1.18,4.63,4.63,0,0,1,.42-1.46c.5-.63-.05-1.38-.38-1.78s-.31-2.46-.31-3.05a24,24,0,0,0-.3-4.78,1.25,1.25,0,0,1,0-.84c0-2.73-.6-4,1.8-2.65a31.88,31.88,0,0,0,3.86.14c2.15-.25,2.47-1.86,3.3-1.75a24.53,24.53,0,0,0,1.25,4.43c.83,2,1.3,2.28,1.44,3.46a5.5,5.5,0,0,1-.58,3.43c-.64,1.35-1.07,2.65-2,3.26a5,5,0,0,0-1.48,1.6h2.95a5.73,5.73,0,0,1,.65-1.43,2.38,2.38,0,0,0,.64-1.68c-.07-.67,1.11-3,1.54-3.93a2.64,2.64,0,0,0,.19-2.5,11.75,11.75,0,0,1-.33-3.6,21.45,21.45,0,0,0,2,3.64c.9,1.14,1,2.13.91,4.13s-.43,3.61-1.22,4.18a12.33,12.33,0,0,0-1.76,1.75h3.2s.14-1.11.5-1.39a4.67,4.67,0,0,0,.67-2.65,18.43,18.43,0,0,1,.22-2.84A5.33,5.33,0,0,0,332.31,286.59Z" transform="translate(-123.57 -97.87)"/><path class="cls-5" d="M349.75,267.76a.79.79,0,0,1,.17-.58c.52-.29.62-.17,1-.77a2.26,2.26,0,0,1,2.29-.65,3.19,3.19,0,0,0,2.51-.43c1.27-.61,1.62,0,1.62,0a4.33,4.33,0,0,1,1.81-.82c.56-.68-.47,1.7-.47,1.7a5.28,5.28,0,0,1,1.27.8c.59.53.32.67.52,1.21a2.36,2.36,0,0,1-.42,1.73c-.16.12.1,1,.34,2.14a3.26,3.26,0,0,0,.74,1.66s.8.9,1.24.9a4.2,4.2,0,0,0,3-1.2c.79-1.06,1.53-5.29,4.1-5.64,1.5-.21,2.57-2.48,4.47-4.8s6.93-1,8.22,1.33c.9,1.65,2.11,4.3,4.54,5.94s2.24,5.87,2.39,7,.46,2.83.49,3.29a1.15,1.15,0,0,1-.37.84c.29.35-.39,3.06.43,4.76a5.3,5.3,0,0,1,.15,3.63s0,4.72.07,5.5a2.24,2.24,0,0,1-1,1.74c-.36.29-.51,1.39-.51,1.39h-3.18a12.79,12.79,0,0,1,1.75-1.74c.79-.57,1.15-2.17,1.22-4.16s0-4.76-.9-5.89a22.29,22.29,0,0,1-2-3.63,12,12,0,0,0,.33,3.59,2.68,2.68,0,0,1,.08,2.38c-.31,1-1.68,4.72-1.52,5.38a2.07,2.07,0,0,1-.49,1.75,5.86,5.86,0,0,0-.69,1.41l-2.93-.08a4.9,4.9,0,0,1,1.52-1.56c.94-.58,1-2.11,1.51-3.53s1-3.25.74-4.39a28.27,28.27,0,0,0-1.55-3.57A24.08,24.08,0,0,1,381,280c-.82-.11-2.86.89-4.61,1.35s-3.14.1-3.36.35-.5,3,0,3.7.86,3.59,1,4.73a16.61,16.61,0,0,0,.71,3.38,2.59,2.59,0,0,1,0,1.7,8.92,8.92,0,0,0-.14,1.46h-3c.39-1.14,1.64-.89,1.75-2.42a9,9,0,0,0-.83-4.26,23.27,23.27,0,0,1-1.32-3.56c-.32-1.24-1.27-3.9-1.43-2.38a51.65,51.65,0,0,1-1.89,6.61c-.2.54-.92,2.47-.75,2.95s.23,1.53-.17,1.59-.81.76-.81.76a6.53,6.53,0,0,1-.34,1.21l-2.67.26a1.48,1.48,0,0,1,.89-1.23c.86-.37,1-.64,1.82-2.73a6.76,6.76,0,0,0,.6-3.55,5.65,5.65,0,0,1,.45-1.8c.14-.64.33-3.08.33-3.08a23.11,23.11,0,0,1,.57-3.43,17.38,17.38,0,0,1-2.09-1.49c-7.57-.61-8.38-5.16-9-5.88a7,7,0,0,1-1.54-4.2,1.86,1.86,0,0,1-2.18,0,7.75,7.75,0,0,0-2.17-1.4c-.31-.16-1.05.19-1-.06s.32-.32.35-.42S349.81,268.07,349.75,267.76Z" transform="translate(-123.57 -97.87)"/><path class="cls-5" d="M224.08,258.43c-.38,0-.87.1-1.17-.19s-.19-.71-.46-1-.69-.29-.74-.54.48-.78.61-1.15c.33-1-.27-1.73.91-2.31a3.14,3.14,0,0,1,3.1.31A3.31,3.31,0,0,1,228,256c.16,1-.24,2-.14,3a24.37,24.37,0,0,0,.35,2.58c.26,1.27.4,2.58.6,3.86.7,4.35.56,8.8,1.26,13.16a32.07,32.07,0,0,0,1.74,6.31c.45,1.16.81,2.35,1.3,3.5.15.37.58.94.45,1.37,0,.15-.56.56-.8.76a4.58,4.58,0,0,1-2.28,1.17c-.59.09-1.63.14-.93-.58.13-.14.86.07.57-.47-.08-.17-.88-.23-1.06-.25a6,6,0,0,0-1.83.16,8.86,8.86,0,0,1-1.69-.2,5.08,5.08,0,0,0-2.45.2c-.44.24-.24.18-.46.64s-.26.83-.76,1-.81-.21-1.23-.24-.87,0-1.27,0c-.61,0-1.63.26-1.36-.68s1.25-.63,1.44-1.69.07-2.48.23-3.69a52,52,0,0,0,.37-7c0-2.49,1.17-4.47,1.88-6.78a10,10,0,0,0,.51-2.41c.06-1.18-.52-.58-.85.09a21,21,0,0,1-2.58,3.6c-.15.17,0,.64-.15.79a3.62,3.62,0,0,1-.82.56.9.9,0,0,1-1.38-1,2.44,2.44,0,0,1,.59-1.19c.09-.14.41-.2.56-.25s-.16,0,.1-.57c.47-1,1.71-3,2.17-4.07s1.3-2.63,1.8-3.74.47-2.08,1.06-3.2c.24-.46.67-.77.9-1.19s.22-.73.5-1.23c-.09.37-.09.49-.15.84Z" transform="translate(-123.57 -97.87)"/><path class="cls-5" d="M217.08,273.42c0,.34.08.7.09,1.06,0-.48,0-1,.08-1.44l.75.07a14,14,0,0,0,.36,4.91,10.64,10.64,0,0,0,2,4,8.75,8.75,0,0,0,3.86,2.76,7.29,7.29,0,0,0,4.38.21,8,8,0,0,0,2.36-1.15h0a12.27,12.27,0,0,0,2-1.79,19.61,19.61,0,0,0,3.85-6.3,28.2,28.2,0,0,0,1.75-8.18,45.94,45.94,0,0,0-.22-7.95h0c-.27-2.66-.69-5.31-1.11-8l.74-.12c.42,2.65.85,5.32,1.12,8h0a47.3,47.3,0,0,1,.22,8.07,29.12,29.12,0,0,1-1.8,8.4,20.29,20.29,0,0,1-4,6.54,13.35,13.35,0,0,1-2.14,1.9h0a8.57,8.57,0,0,1-2.58,1.25,7.85,7.85,0,0,1-4.84-.23,9.44,9.44,0,0,1-4.2-3,11.42,11.42,0,0,1-2.1-4.28,15.1,15.1,0,0,1-.41-2.42c0,1.22,0,2.47-.07,3.72a38.13,38.13,0,0,0,.06,6l-.75.09a38.45,38.45,0,0,1-.06-6.09,40.68,40.68,0,0,0-.07-6Zm95.87-.88,0,0h0a.45.45,0,0,0,0,.48,2.07,2.07,0,0,0,.53.74l.07.07h0a47.85,47.85,0,0,0,10.2,7.3,21.65,21.65,0,0,0,11.68,2.55,19.45,19.45,0,0,0,6.16-1.68,25.46,25.46,0,0,0,5.92-3.81,35.51,35.51,0,0,0,4.68-4.89,62.68,62.68,0,0,0,3.95-5.56l.63.41a64.55,64.55,0,0,1-4,5.63,36.25,36.25,0,0,1-4.77,5,26.1,26.1,0,0,1-6.09,3.93,20.13,20.13,0,0,1-6.41,1.73,22.18,22.18,0,0,1-12.08-2.62A48,48,0,0,1,313,274.41h0l-.09-.09a3.24,3.24,0,0,1-.71-1,1.14,1.14,0,0,1,.17-1.26h0v0ZM267,261.3H267a.18.18,0,0,0-.05.07h0a.52.52,0,0,0-.07.23h0a1.69,1.69,0,0,0,.15.86,18.77,18.77,0,0,0,3.87,5,50.86,50.86,0,0,0,5,4.05c.93.68,1.88,1.35,2.85,1.95a18.22,18.22,0,0,0,3,1.55,14.33,14.33,0,0,0,17.18-6.39l.67.35a15.07,15.07,0,0,1-18.12,6.74,18.6,18.6,0,0,1-3.14-1.61c-1-.62-2-1.3-2.89-2a49.11,49.11,0,0,1-5.13-4.11,19.25,19.25,0,0,1-4-5.18,2.38,2.38,0,0,1-.23-1.29h0a1.61,1.61,0,0,1,.14-.5h0a.94.94,0,0,1,.39-.4h0a.82.82,0,0,1,.5-.08Z" transform="translate(-123.57 -97.87)"/><path class="cls-6" d="M280.13,126.58a23.5,23.5,0,1,1-23.49,23.5A23.5,23.5,0,0,1,280.13,126.58Z" transform="translate(-123.57 -97.87)"/></svg>