<svg id="Layer_1" data-name="Layer 1" xmlns="http://www.w3.org/2000/svg" viewBox="0 0 259.55 259.55"><defs><style>.cls-1{fill:#8dd9ff;}.cls-2{fill:#e5d7a8;}.cls-3{opacity:0.3;}.cls-4{fill:#fffff4;}.cls-5{fill:#ffc868;}.cls-6{fill:#ffdc87;}.cls-7{fill:#f9be58;}.cls-8{fill:#ffd267;}.cls-9{fill:#ecab4e;}.cls-10{fill:#ffc353;}.cls-11{opacity:0.5;}.cls-12{fill:#fff;}.cls-13{opacity:0.4;}</style></defs><title>Place2</title><circle class="cls-1" cx="129.77" cy="129.77" r="129.77"/><path class="cls-2" d="M421.38,304.47c.21-3.06.36-6.13.36-9.24a130.07,130.07,0,0,0-.73-13.75c-4.89.83-29.06,7.17-34.68,7.33-6,.18-14.77-5.58-19.17-4.06s-34.16,6-35.65,6-17.49-6.42-20.79-6.42-29.65,7.6-37.25,6.26S254,283,250.46,283s-45.18,13.29-59.8,4.82-19.59-4.2-28.16.87l-.15.4c-.09,2-.15,4.11-.15,6.19a130.31,130.31,0,0,0,2.85,27.12L362,330.71Z" transform="translate(-162.2 -165.45)"/><g class="cls-3"><path class="cls-4" d="M292,165.45a129.35,129.35,0,0,0-91.8,38.05,99.38,99.38,0,0,0,183.6,0A129.37,129.37,0,0,0,292,165.45Z" transform="translate(-162.2 -165.45)"/></g><path class="cls-5" d="M339.82,282.25c-10.06,0-38.23,23-57,26.27,13,18,31.47,29.26,51.92,29.26,20.73,0,39.38-11.55,52.44-30C376.36,302.68,351.26,282.25,339.82,282.25Z" transform="translate(-162.2 -165.45)"/><path class="cls-6" d="M386.33,307.36c-11.2-5.68-35.35-25.11-46.51-25.11a8.86,8.86,0,0,0-1.18.15c-4.43,1.3-8.18,9.27-3.92,18.35,4.1,8.74,11.17,22.36,0,37v0c7.4,0,19.7,5.78,29.18,6.92A94.93,94.93,0,0,0,386.33,307.36Z" transform="translate(-162.2 -165.45)"/><path class="cls-7" d="M388.48,353.1c11-17.49,17.71-36.28,23.85-56.17a24.14,24.14,0,0,1,1.05-2.75c-8.34-4.88-16.17-8.58-21.52-8.58-8.28,0-26.61,12.74-44.68,22.26a129.17,129.17,0,0,0,8.41,38.33,68.82,68.82,0,0,0,30.06,7C386.6,353.2,387.54,353.14,388.48,353.1Z" transform="translate(-162.2 -165.45)"/><path class="cls-8" d="M391.86,285.6a10.89,10.89,0,0,0-1.44.18c-5.39,1.58-10,11.29-4.78,22.35,5,10.63,13.6,27.22,0,45.05l0,0c5.25,0,12.53,2.39,20,4.66a129.07,129.07,0,0,0,16-58.62C410.4,292.08,399,285.6,391.86,285.6Z" transform="translate(-162.2 -165.45)"/><path class="cls-5" d="M162.5,303.64A128.93,128.93,0,0,0,170.91,342,68.94,68.94,0,0,0,201,349c25.24,0,47.95-14.06,63.85-36.5-13.15-6.22-43.71-31.09-57.63-31.09C198.9,281.39,180.57,294.13,162.5,303.64Z" transform="translate(-162.2 -165.45)"/><path class="cls-6" d="M263.79,312c-13.63-6.92-43-30.57-56.62-30.57a12.88,12.88,0,0,0-1.43.17c-5.39,1.59-10,11.29-4.78,22.35,5,10.64,13.6,27.22,0,45l0,0c9,0,24,7,35.52,8.43A115.61,115.61,0,0,0,263.79,312Z" transform="translate(-162.2 -165.45)"/><path class="cls-7" d="M283.06,285.6c-12.25,0-46.54,27.95-69.41,32,15.86,21.92,38.3,35.62,63.2,35.62,25.23,0,47.95-14.06,63.84-36.5C327.55,310.47,297,285.6,283.06,285.6Z" transform="translate(-162.2 -165.45)"/><path class="cls-8" d="M339.68,316.17c-13.63-6.92-43-30.57-56.62-30.57a11,11,0,0,0-1.43.18c-5.39,1.58-10,11.29-4.78,22.35,5,10.63,13.6,27.22,0,45.05v0c9,0,24,7,35.53,8.43A115.76,115.76,0,0,0,339.68,316.17Z" transform="translate(-162.2 -165.45)"/><path class="cls-7" d="M399.88,341.45c0-.54.06-1.07.06-1.61a19.48,19.48,0,0,1,1.13-6.23c-19.37-11-46.59-28.24-60.69-28.24-15.87,0-60.3,31.85-89.92,36.44,20.55,25,49.62,40.61,81.87,40.61,26.28,0,50.43-10.37,69.6-27.72A21.06,21.06,0,0,1,399.88,341.45Z" transform="translate(-162.2 -165.45)"/><path class="cls-8" d="M413.72,340.21c-17.65-7.88-55.74-34.84-73.34-34.84a16.19,16.19,0,0,0-1.86.2c-7,1.8-12.9,12.86-6.19,25.47,6.46,12.13,17.62,31,0,51.35l0,0c11.67,0,31.07,8,46,9.61A129.92,129.92,0,0,0,413.72,340.21Z" transform="translate(-162.2 -165.45)"/><path class="cls-7" d="M226.18,313.48c-10.36,0-33.59,15.2-56.2,26.12A130,130,0,0,0,202.32,389a88.46,88.46,0,0,0,16.26,1.52c30.87,0,58.67-16,78.12-41.61C280.61,341.83,243.22,313.48,226.18,313.48Z" transform="translate(-162.2 -165.45)"/><path class="cls-8" d="M296.7,348.92c-16.09-7.09-53.48-35.44-70.52-35.44a14.38,14.38,0,0,0-1.76.2c-6.6,1.8-12.19,12.86-5.84,25.47,6.1,12.13,16.64,31,0,51.36v0C249.46,390.52,277.25,374.5,296.7,348.92Z" transform="translate(-162.2 -165.45)"/><path class="cls-9" d="M301.23,348c-18.26,0-69.4,31.86-103.5,36.44a129.67,129.67,0,0,0,189.43-1C367.56,376.3,322,348,301.23,348Z" transform="translate(-162.2 -165.45)"/><path class="cls-10" d="M387.16,383.39C367.56,376.3,322,348,301.23,348a21.05,21.05,0,0,0-2.14.2c-8,1.8-14.85,12.87-7.12,25.47,7.43,12.13,20.28,31,0,51.36l0,0A129.4,129.4,0,0,0,387.16,383.39Z" transform="translate(-162.2 -165.45)"/><g class="cls-11"><path class="cls-12" d="M193.85,239.19c0-3.19,6.45-5.77,14.41-5.77a32.24,32.24,0,0,1,3.46.19A39.21,39.21,0,0,1,226.77,231c11.37,0,20.58,3.69,20.58,8.24Z" transform="translate(-162.2 -165.45)"/></g><path class="cls-12" d="M288.86,239.19c0-2.5,5.05-4.53,11.29-4.53a26.4,26.4,0,0,1,2.72.15,30.73,30.73,0,0,1,11.81-2.09c8.91,0,16.14,2.9,16.14,6.47Z" transform="translate(-162.2 -165.45)"/><path class="cls-12" d="M280.18,231.88c0-3.19-6.32-5.77-14.11-5.77a33.63,33.63,0,0,0-3.39.19,37.68,37.68,0,0,0-14.74-2.66c-11.13,0-20.15,3.69-20.15,8.24Z" transform="translate(-162.2 -165.45)"/><g class="cls-11"><path class="cls-12" d="M367.83,227.19c0-2.74-5.44-5-12.14-5-1,0-2,.07-2.93.16a32.5,32.5,0,0,0-12.69-2.29c-9.59,0-17.36,3.18-17.36,7.1Z" transform="translate(-162.2 -165.45)"/></g><g class="cls-11"><path class="cls-12" d="M389.34,234.4c0-2-4-3.66-8.94-3.66a21.11,21.11,0,0,0-2.15.12,23.92,23.92,0,0,0-9.34-1.69c-7.06,0-12.77,2.34-12.77,5.23Z" transform="translate(-162.2 -165.45)"/></g><path class="cls-12" d="M292,165.45a129.85,129.85,0,0,0-27.22,2.89,27.37,27.37,0,0,0,54.44,0A129.85,129.85,0,0,0,292,165.45Z" transform="translate(-162.2 -165.45)"/><g class="cls-13"><path class="cls-4" d="M292,165.45a129.27,129.27,0,0,0-53.31,11.46,54.52,54.52,0,0,0,106.61,0A129.23,129.23,0,0,0,292,165.45Z" transform="translate(-162.2 -165.45)"/></g></svg>