<svg id="Layer_1" data-name="Layer 1" xmlns="http://www.w3.org/2000/svg" viewBox="0 0 403 403"><defs><style>.cls-1{fill:#ffce43;}.cls-2{fill:#38506e;}.cls-3{fill:#172c42;}.cls-4{fill:#fa3f58;}.cls-5{fill:#ec2443;}</style></defs><title>Stuff1</title><circle class="cls-1" cx="201.5" cy="201.5" r="201.5"/><path class="cls-2" d="M493.75,289.13H255.06l-13.24,29.36,13.24,29.59a94.29,94.29,0,0,1,92.75,111l26.43,13.16.17.08L401,459.07a94.29,94.29,0,0,1,92.74-111L507,318.68ZM314,331.93H296.8a9.94,9.94,0,0,1,0-19.87H314a9.94,9.94,0,0,1,0,19.87Zm70.17,88a9.94,9.94,0,0,1-19.87,0V402.73a9.94,9.94,0,0,1,19.87,0Zm-9.94-47a30.44,30.44,0,1,1,30.44-30.44A30.47,30.47,0,0,1,374.24,372.94Zm77.45-41H434.48a9.94,9.94,0,1,1,0-19.87h17.21a9.94,9.94,0,0,1,0,19.87Z" transform="translate(-173 -143)"/><path class="cls-3" d="M493.75,289.13H374.24v22.93a30.44,30.44,0,0,1,0,60.88V392.8a9.94,9.94,0,0,1,9.94,9.93V420a9.93,9.93,0,0,1-9.94,9.93v42.35l.17.08L401,459.07a94.29,94.29,0,0,1,92.74-111L507,318.68Zm-42.06,42.8H434.48a9.94,9.94,0,1,1,0-19.87h17.21a9.94,9.94,0,0,1,0,19.87Z" transform="translate(-173 -143)"/><path class="cls-4" d="M494.1,222.65A169.5,169.5,0,1,0,543.74,342.5,168.37,168.37,0,0,0,494.1,222.65ZM374.24,462A119.5,119.5,0,1,1,493.75,342.5,119.5,119.5,0,0,1,374.24,462Z" transform="translate(-173 -143)"/><path class="cls-5" d="M543.74,342.5A169.5,169.5,0,0,1,374.24,512V462a119.5,119.5,0,1,0,0-239V173a169.5,169.5,0,0,1,169.5,169.5Z" transform="translate(-173 -143)"/></svg>