<svg id="Layer_1" data-name="Layer 1" xmlns="http://www.w3.org/2000/svg" viewBox="0 0 315.19 315.19"><defs><style>.cls-1{fill:#ffd24d;}.cls-2{fill:#1b4145;}</style></defs><title>Stuff4</title><path class="cls-1" d="M281.6,103.81a157.61,157.61,0,0,0-130.21,246.4l-20.7,62.1,62.1-20.7a157.6,157.6,0,1,0,88.81-287.8Z" transform="translate(-124 -103.81)"/><path class="cls-2" d="M355.31,308.53a314.34,314.34,0,0,0-24.64-21.91L312.1,305.18,237.82,230.9l18.56-18.57a314.34,314.34,0,0,0-21.91-24.64,314.34,314.34,0,0,0-24.64-21.91s-22.24,20.46-23.74,36.69c-2,21.73,21,61.23,57.1,97.34s75.61,59.1,97.34,57.1c16.23-1.5,36.69-23.74,36.69-23.74A314.34,314.34,0,0,0,355.31,308.53Z" transform="translate(-124 -103.81)"/></svg>