<svg id="Layer_1" data-name="Layer 1" xmlns="http://www.w3.org/2000/svg" viewBox="0 0 403 403"><defs><style>.cls-1{fill:#d9a3e5;}.cls-2{fill:#8b7e7f;}.cls-3{fill:#463836;}.cls-4{fill:#605353;}.cls-5{fill:#f14742;}</style></defs><title>Stuff3</title><circle class="cls-1" cx="201.5" cy="201.5" r="201.5"/><polygon class="cls-2" points="62.82 236.71 68.5 288.5 85.85 288.5 85.85 236.71 62.82 236.71"/><polygon class="cls-2" points="339.61 236.71 333.93 288.5 316.58 288.5 316.58 236.71 339.61 236.71"/><path class="cls-3" d="M913.23,284.26,899,328.6,913.23,373a18.45,18.45,0,0,0,18.45-18.45V302.71A18.44,18.44,0,0,0,913.23,284.26Z" transform="translate(-608 -66)"/><path class="cls-3" d="M686.74,302.71V354.5A18.46,18.46,0,0,0,705.2,373l14.2-44.35-14.2-44.34A18.46,18.46,0,0,0,686.74,302.71Z" transform="translate(-608 -66)"/><path class="cls-3" d="M922.21,143.88a159.8,159.8,0,0,0-272.79,113,8.94,8.94,0,1,0,17.88,0,141.92,141.92,0,0,1,283.83-.18c0,.06,0,.12,0,.18a8.95,8.95,0,1,0,17.89,0A158.75,158.75,0,0,0,922.21,143.88Z" transform="translate(-608 -66)"/><path class="cls-4" d="M947.25,354.5h-5.33V290a5.19,5.19,0,0,1,.15-1.24,137.06,137.06,0,0,0,3.74-31.85c0-75.31-61.28-136.59-136.59-136.59s-136.6,61.28-136.6,136.59a137.06,137.06,0,0,0,3.74,31.85,5.18,5.18,0,0,1,.14,1.24V354.5h-5.32a5.33,5.33,0,0,1-5.33-5.33V290.58a148.08,148.08,0,0,1-3.88-33.7c0-81.2,66-147.25,147.24-147.25s147.25,66.05,147.25,147.24a148.1,148.1,0,0,1-3.88,33.71v58.59A5.33,5.33,0,0,1,947.25,354.5Z" transform="translate(-608 -66)"/><path class="cls-5" d="M885.18,256.21a28,28,0,0,0-28,28.05V373a28,28,0,1,0,56.09,0V284.26A28.05,28.05,0,0,0,885.18,256.21Z" transform="translate(-608 -66)"/><path class="cls-5" d="M733.25,256.21a28.05,28.05,0,0,0-28,28.05V373a28,28,0,1,0,56.09,0V284.26A28,28,0,0,0,733.25,256.21Z" transform="translate(-608 -66)"/></svg>