<svg id="Layer_1" data-name="Layer 1" xmlns="http://www.w3.org/2000/svg" viewBox="0 0 403 403"><defs><style>.cls-1{fill:#ffce43;}.cls-2{fill:#f55;}.cls-3{fill:#f72b2b;}.cls-4{fill:#60daff;}</style></defs><title>Stuff2</title><circle class="cls-1" cx="201.5" cy="201.5" r="201.5"/><path class="cls-2" d="M940.37,218.25c.92-38.93-30-71.91-68.93-72.34a69.69,69.69,0,0,0-61.07,34.72,69.68,69.68,0,0,0-61.06-34.72c-38.94.43-69.85,33.41-68.93,72.34,2,87,106.08,162.63,126.53,176.67a6.1,6.1,0,0,0,6.93,0C834.29,380.88,938.32,305.23,940.37,218.25Z" transform="translate(-608 -66)"/><path class="cls-3" d="M940.41,215.65c0,88-105.89,165.07-126.57,179.27a6.13,6.13,0,0,1-6.94,0c-5.09-3.49-15.37-10.81-28-21.17,20.76-14.27,126.5-91.24,126.5-179.25A69.47,69.47,0,0,0,887.67,148,69.76,69.76,0,0,1,940.41,215.65Z" transform="translate(-608 -66)"/><path class="cls-4" d="M809.51,343.32a7.87,7.87,0,0,1-7.73-6.41l-19.21-102-20.44,48.57a7.86,7.86,0,0,1-14.27.48l-5.47-10.86H665.87a7.87,7.87,0,1,1,0-15.73h81.37a7.85,7.85,0,0,1,7,4.29l24-57a7.87,7.87,0,0,1,15,1.6L809,290.4,815.59,251a7.86,7.86,0,0,1,7.75-6.57H849a7.86,7.86,0,0,1,6.59,3.57l12,18.5,5.2-6.33a7.88,7.88,0,0,1,6.08-2.87h75.95a7.87,7.87,0,0,1,0,15.73H882.66L873,284.8a7.87,7.87,0,0,1-12.67-.7l-15.58-23.91H830l-12.74,76.55a7.85,7.85,0,0,1-7.67,6.57Z" transform="translate(-608 -66)"/></svg>