<svg id="OBJECTS" xmlns="http://www.w3.org/2000/svg" viewBox="0 0 201.38 231.08"><defs><style>.cls-1{fill:#1d1d1b;}.cls-2{fill:#262626;}.cls-3{fill:#fbc39d;}.cls-4{fill:#f9ac7f;}.cls-5{fill:#e6e6e6;}.cls-6{fill:#111110;}.cls-7{fill:#ececec;}.cls-8{fill:#20a5d3;}.cls-9{fill:#ccc;}.cls-10{fill:#fff;}.cls-11{fill:#42444c;}.cls-12{fill:#ff4a4a;}.cls-13{fill:#e53333;}.cls-14{fill:#a67e74;}.cls-15{fill:#fada6d;}.cls-16{fill:#f2c55a;}.cls-17{fill:#ebac40;}.cls-18{fill:#ea7786;}.cls-19{fill:#495059;}.cls-20{fill:#563e2f;}.cls-21{fill:#99573d;}.cls-22{fill:#894c37;}.cls-23{fill:#fcc472;}.cls-24{fill:#f4b158;}.cls-25{fill:#4c362a;}.cls-26{fill:#725539;}.cls-27{fill:#6b4c32;}.cls-28{fill:#ff6f7f;}.cls-29{fill:#7ece5c;}.cls-30{fill:#f8485e;}.cls-31{fill:#f8e86a;}.cls-32{fill:#f5c956;}.cls-33{fill:#423e4f;}.cls-34{fill:#ea6248;}.cls-35{fill:#efce4a;}.cls-36{fill:#fd6f71;}.cls-37{fill:#fadc60;}.cls-38{fill:#f2c42c;}.cls-39{fill:#3a484a;}</style></defs><title>Kribo main laptop</title><circle class="cls-1" cx="134.18" cy="49.14" r="13.67"/><circle class="cls-1" cx="66.63" cy="48.48" r="13.67"/><path class="cls-2" d="M179.28,315.65,152.81,360a12.71,12.71,0,0,0,4,17.17h0a12.68,12.68,0,0,0,14.27-.3c15.45-11,50.91-36.39,49.92-37.54-.75-.87-12-14.39-21-25.29A12.71,12.71,0,0,0,179.28,315.65Z" transform="translate(-148.93 -152.94)"/><path class="cls-3" d="M242.73,358.46l-76.34,24.9a13.33,13.33,0,0,1-16.8-8.53h0A13.32,13.32,0,0,1,158.13,358l76.34-24.91a13.32,13.32,0,0,1,16.79,8.53h0A13.33,13.33,0,0,1,242.73,358.46Z" transform="translate(-148.93 -152.94)"/><path class="cls-2" d="M321.22,315.68l27.06,44a12.7,12.7,0,0,1-3.77,17.23h0a12.7,12.7,0,0,1-14.27-.11c-15.6-10.78-51.39-35.71-50.42-36.87.74-.88,11.79-14.55,20.7-25.57A12.7,12.7,0,0,1,321.22,315.68Z" transform="translate(-148.93 -152.94)"/><path class="cls-3" d="M256.52,358.46l76.34,24.9a13.32,13.32,0,0,0,16.79-8.53h0A13.32,13.32,0,0,0,341.12,358l-76.34-24.91A13.32,13.32,0,0,0,248,341.66h0A13.32,13.32,0,0,0,256.52,358.46Z" transform="translate(-148.93 -152.94)"/><path class="cls-2" d="M314,327.46l-129.85-2V313c0-20.4,27.73-39.43,55-39.43h20.47c24.22,0,54.39,19.16,54.39,37.28Z" transform="translate(-148.93 -152.94)"/><path class="cls-3" d="M257,250.56H242.68a5.23,5.23,0,0,0-5.22,5.23v22.38a12.36,12.36,0,1,0,24.72,0V255.79A5.23,5.23,0,0,0,257,250.56Z" transform="translate(-148.93 -152.94)"/><path class="cls-4" d="M237.46,273.56s1,7.28,12.36,7.28,12.36-7.28,12.36-7.28Z" transform="translate(-148.93 -152.94)"/><path class="cls-4" d="M215,215a9.62,9.62,0,1,0,9.24,9.61A9.43,9.43,0,0,0,215,215Z" transform="translate(-148.93 -152.94)"/><path class="cls-4" d="M284.77,215a9.62,9.62,0,1,0,9.25,9.61A9.43,9.43,0,0,0,284.77,215Z" transform="translate(-148.93 -152.94)"/><path class="cls-3" d="M247,276l-.06.06c1,.08,1.92.14,2.9.14h0a33.86,33.86,0,0,0,8.53-1.1l0-.08c15.1-4,26.27-18.18,26.27-35.11V197.49c0-20-15.59-16.81-34.83-16.81h0c-19.24,0-34.83-3.19-34.83,16.81v42.43C215,258.93,229.07,274.5,247,276Z" transform="translate(-148.93 -152.94)"/><path class="cls-1" d="M278.59,226v11.46H266s-3.13-8.27-15.8-8.27-15.8,8.27-15.8,8.27H221.75V226c0-4.51-4.33-6-7.18-6.49v20.44c0,19,14.39,34.58,32.7,36.09l-.07.06c1,.08,2,.14,3,.14s2-.06,3-.14l-.06-.06c18.3-1.51,32.69-17.08,32.69-36.09V219.48C282.92,220,278.59,221.46,278.59,226Z" transform="translate(-148.93 -152.94)"/><path d="M265.9,215a2.45,2.45,0,1,1-2.45-2.54A2.49,2.49,0,0,1,265.9,215Z" transform="translate(-148.93 -152.94)"/><rect x="109.7" y="53.98" width="10.37" height="4.07" rx="0.93"/><path class="cls-5" d="M237,243.39h24.12s-2.13,8.22-12.06,8.22S237,243.39,237,243.39Z" transform="translate(-148.93 -152.94)"/><path class="cls-6" d="M252.66,269.35l.06.06c-.95.09-1.92.14-2.9.14s-1.94-.05-2.9-.14l.06-.06c-17.91-1.5-32-17.08-32-36.08v6.65c0,19,14.08,34.58,32,36.09l-.06.06c1,.08,1.92.14,2.9.14s2-.06,2.9-.14l-.06-.06c17.91-1.51,32-17.08,32-36.09v-6.65C284.65,252.27,270.57,267.85,252.66,269.35Z" transform="translate(-148.93 -152.94)"/><path d="M237.25,215a2.45,2.45,0,1,1-2.45-2.54A2.49,2.49,0,0,1,237.25,215Z" transform="translate(-148.93 -152.94)"/><rect x="81.05" y="53.98" width="10.37" height="4.07" rx="0.93"/><path class="cls-1" d="M276.26,166.74c-9.72-1.34-24.86-1.5-35.92,7.4a9.13,9.13,0,0,0-.7.67h-8.75c-9,0-16.32,6.26-16.32,14v48a3,3,0,0,0,3-3.07V202.77s.56-9.83,9.64-9.83h44.46c9.68,0,10.86,8.6,11,9.71v31.06a3,3,0,0,0,3,3.07V189.67l.1-12.08A10.91,10.91,0,0,0,276.26,166.74Z" transform="translate(-148.93 -152.94)"/><path class="cls-4" d="M253.19,223H245a3.07,3.07,0,0,0,0,6.14h8.18a3.07,3.07,0,0,0,0-6.14Z" transform="translate(-148.93 -152.94)"/><rect class="cls-7" x="21.3" y="222.79" width="159.87" height="6.73" rx="3.36"/><rect class="cls-7" x="30.74" y="142.63" width="140.33" height="86.77" rx="9.17"/><circle class="cls-1" cx="69.7" cy="31.97" r="13.67"/><circle class="cls-1" cx="83.36" cy="20.15" r="13.67"/><circle class="cls-1" cx="101.24" cy="13.67" r="13.67"/><circle class="cls-1" cx="122.18" cy="20.15" r="13.67"/><circle class="cls-1" cx="130.63" cy="31.97" r="13.67"/><path class="cls-8" d="M202.64,312.41a.25.25,0,0,1-.3-.2l-.13-.59a5.89,5.89,0,1,0-11.53,2.44l.12.6a.25.25,0,1,1-.49.1l-.13-.59a6.4,6.4,0,1,1,12.53-2.65l.13.59A.26.26,0,0,1,202.64,312.41Z" transform="translate(-148.93 -152.94)"/><path class="cls-8" d="M203.45,317.55l-.63.14a.25.25,0,0,1-.1-.5l.63-.13a.3.3,0,0,0,.23-.35l-.28-1.32a.25.25,0,1,1,.49-.1l.28,1.31A.79.79,0,0,1,203.45,317.55Z" transform="translate(-148.93 -152.94)"/><path class="cls-9" d="M196,319.29l3.4-.72.62,2.92-3.4.72Z" transform="translate(-148.93 -152.94)"/><path class="cls-5" d="M202.59,316.77a2.56,2.56,0,0,0-.05-.61l-.89-4.19a2.52,2.52,0,0,0-3-1.94l-5.38,1.14a2.51,2.51,0,0,0-1.94,3l.89,4.2a2.51,2.51,0,0,0,3,1.94l5.38-1.14a2.57,2.57,0,0,0,1.5-1" transform="translate(-148.93 -152.94)"/><path class="cls-9" d="M194.34,318.89l.31,1.45a2.5,2.5,0,0,1-2.42-2l-.31-1.45A2.5,2.5,0,0,1,194.34,318.89Z" transform="translate(-148.93 -152.94)"/><path class="cls-9" d="M202.23,314.71l.31,1.45a2.56,2.56,0,0,1,.05.61l-.5,1.42a2.61,2.61,0,0,1-1,.78l-.31-1.45A2.51,2.51,0,0,1,202.23,314.71Z" transform="translate(-148.93 -152.94)"/><path class="cls-10" d="M196.05,314.46a1.62,1.62,0,1,1-1.92-1.25A1.62,1.62,0,0,1,196.05,314.46Z" transform="translate(-148.93 -152.94)"/><path class="cls-10" d="M200.64,313.49a1.63,1.63,0,1,1-1.93-1.25A1.64,1.64,0,0,1,200.64,313.49Z" transform="translate(-148.93 -152.94)"/><path class="cls-11" d="M194.59,315.39a.6.6,0,1,1,.47-.72A.61.61,0,0,1,194.59,315.39Z" transform="translate(-148.93 -152.94)"/><path class="cls-11" d="M199.18,314.42a.62.62,0,0,1-.73-.47.63.63,0,0,1,.47-.72.61.61,0,0,1,.72.47A.61.61,0,0,1,199.18,314.42Z" transform="translate(-148.93 -152.94)"/><path class="cls-12" d="M196.42,317.34l.69-.15.54,2.58-.69.15Z" transform="translate(-148.93 -152.94)"/><path class="cls-12" d="M197.6,317.09l.69-.15.55,2.58-.69.14Z" transform="translate(-148.93 -152.94)"/><path class="cls-12" d="M198.8,316.87l.54,2.54.69-.14-.34-1.64A1,1,0,0,0,198.8,316.87Z" transform="translate(-148.93 -152.94)"/><path class="cls-12" d="M195.93,317.48a1,1,0,0,0-.51,1.06l.35,1.63.7-.15Z" transform="translate(-148.93 -152.94)"/><path class="cls-13" d="M191.52,315l.51,2.44a.83.83,0,0,1-.42.91l-.22.08-.32.06a.83.83,0,0,1-1-.64l-.51-2.43a.83.83,0,0,1,.64-1l.32-.07a.9.9,0,0,1,.23,0A.85.85,0,0,1,191.52,315Z" transform="translate(-148.93 -152.94)"/><path class="cls-12" d="M191.52,315l.51,2.44a.83.83,0,0,1-.42.91.85.85,0,0,1-.77-.66l-.51-2.43a.83.83,0,0,1,.43-.92A.85.85,0,0,1,191.52,315Z" transform="translate(-148.93 -152.94)"/><path class="cls-13" d="M203.78,312.42l.51,2.43a.83.83,0,0,1-.64,1l-.32.07a.85.85,0,0,1-1-.65l-.51-2.43a.83.83,0,0,1,.64-1l.32-.07a.89.89,0,0,1,.23,0A.83.83,0,0,1,203.78,312.42Z" transform="translate(-148.93 -152.94)"/><path class="cls-12" d="M203.78,312.42l.51,2.43a.63.63,0,1,1-1.19.25l-.51-2.43a.63.63,0,1,1,1.19-.25Z" transform="translate(-148.93 -152.94)"/><path class="cls-11" d="M202.2,316.84l.23,0a.71.71,0,0,1,.84.54.73.73,0,0,1-.55.85l-.23,0a.71.71,0,1,1-.29-1.38Z" transform="translate(-148.93 -152.94)"/><path class="cls-9" d="M203.45,321.59v.05l-9.91,2.1v-.05a1.62,1.62,0,0,1,1.25-1.92l6.74-1.43A1.62,1.62,0,0,1,203.45,321.59Z" transform="translate(-148.93 -152.94)"/><path class="cls-5" d="M203.45,321.59v.05l-8.08,1.71v-.05a1.63,1.63,0,0,1,1.25-1.92l4.91-1A1.62,1.62,0,0,1,203.45,321.59Z" transform="translate(-148.93 -152.94)"/><path class="cls-14" d="M297.11,356.37l-2.84-1.48,1.48-2a.92.92,0,0,1,1.16-.26l.52.27a.92.92,0,0,1,.45,1.1Z" transform="translate(-148.93 -152.94)"/><path class="cls-15" d="M277.14,368.24h0a6.74,6.74,0,0,0,6.23,4.18h2.48a6.22,6.22,0,0,0,4.88-2.38h0a.91.91,0,0,1,1.39-.05h0a7.34,7.34,0,0,0,5.46,2.43h1a9.23,9.23,0,0,0,7.78-4.27h0a.83.83,0,0,0-1-1.2l-1.81.81a5,5,0,0,1-2,.43h0a4.92,4.92,0,0,1-4.86-4.14h0a4.72,4.72,0,0,1,.28-2.52l.76-1.86a3.59,3.59,0,0,0-3.5-4.94h0a3.61,3.61,0,0,0-2.93,1.77l-5.48,9.29a5,5,0,0,1-4.28,2.45h0a5,5,0,0,1-2.42-.63l-.73-.41A.83.83,0,0,0,277.14,368.24Z" transform="translate(-148.93 -152.94)"/><path class="cls-16" d="M292.12,370h0a7.34,7.34,0,0,0,5.46,2.43h1a9.23,9.23,0,0,0,6.94-3.15c-14,5.44-15.91-7.11-14-13.12-.08.11-.16.23-.23.35l-5.48,9.29a5,5,0,0,1-4.28,2.45h0a5,5,0,0,1-2.42-.63l-.73-.41a.83.83,0,0,0-1.17,1h0a6.74,6.74,0,0,0,6.23,4.18h2.48a6.22,6.22,0,0,0,4.88-2.38h0A.91.91,0,0,1,292.12,370Z" transform="translate(-148.93 -152.94)"/><path class="cls-17" d="M291.37,368.7a.43.43,0,0,1-.43-.43,19,19,0,0,1,1.68-7,.43.43,0,0,1,.78.36,18,18,0,0,0-1.6,6.65A.44.44,0,0,1,291.37,368.7Z" transform="translate(-148.93 -152.94)"/><path class="cls-17" d="M285,372.42a2,2,0,0,0,.3-.75c.16-.86-.45-1.53-1.51-1.48a1.9,1.9,0,0,0-1.62.77,1.12,1.12,0,0,0,.14,1.37,6.59,6.59,0,0,0,1.09.09Z" transform="translate(-148.93 -152.94)"/><path class="cls-17" d="M299.38,367.85a.52.52,0,0,0,0-.11,5.12,5.12,0,0,1-1.66-1.26c-.86-.11-1.58.19-1.3,1s-.28,1.35,1.37,1.26C298.71,368.67,299.11,368.72,299.38,367.85Z" transform="translate(-148.93 -152.94)"/><ellipse class="cls-18" cx="291.55" cy="358.38" rx="0.73" ry="0.91" transform="translate(-293.23 358.65) rotate(-70.24)"/><ellipse class="cls-18" cx="296.2" cy="360.05" rx="0.73" ry="0.91" transform="translate(-291.73 364.13) rotate(-70.24)"/><path class="cls-19" d="M292.29,358.31a.35.35,0,0,1-.14,0,.43.43,0,0,1-.26-.55l.11-.3a.42.42,0,0,1,.55-.26.43.43,0,0,1,.26.55l-.11.3A.43.43,0,0,1,292.29,358.31Z" transform="translate(-148.93 -152.94)"/><path class="cls-19" d="M296,359.62a.4.4,0,0,1-.15,0,.43.43,0,0,1-.26-.55l.11-.3a.43.43,0,0,1,.81.29l-.11.3A.43.43,0,0,1,296,359.62Z" transform="translate(-148.93 -152.94)"/><path class="cls-19" d="M294.26,359.24a1.21,1.21,0,0,1-.37-.07,1.13,1.13,0,0,1-.66-.64.44.44,0,0,1,.25-.56.43.43,0,0,1,.55.25.26.26,0,0,0,.15.14.28.28,0,0,0,.21,0,.43.43,0,0,1,.58.17.44.44,0,0,1-.16.59A1.18,1.18,0,0,1,294.26,359.24Z" transform="translate(-148.93 -152.94)"/><path class="cls-17" d="M288.49,365.28a.47.47,0,0,1-.31-.12.45.45,0,0,1,0-.61l.6-.6a.43.43,0,0,1,.61.61l-.6.6A.42.42,0,0,1,288.49,365.28Z" transform="translate(-148.93 -152.94)"/><path class="cls-17" d="M288.21,367.13a.43.43,0,0,1-.31-.13.45.45,0,0,1,0-.61l.58-.58a.45.45,0,0,1,.61,0,.43.43,0,0,1,0,.61l-.58.58A.39.39,0,0,1,288.21,367.13Z" transform="translate(-148.93 -152.94)"/><path class="cls-20" d="M251.63,314.12a.42.42,0,0,1-.29-.12L247.28,310a.41.41,0,1,1,.58-.58l4.06,4.06a.41.41,0,0,1-.29.69Z" transform="translate(-148.93 -152.94)"/><path class="cls-20" d="M250.52,314.84a.42.42,0,0,1-.29-.12l-3.67-3.67a.4.4,0,0,1,0-.57.41.41,0,0,1,.58,0l3.67,3.67a.41.41,0,0,1-.29.69Z" transform="translate(-148.93 -152.94)"/><path class="cls-20" d="M249.36,315.51a.42.42,0,0,1-.29-.12l-3.17-3.18a.41.41,0,1,1,.58-.58l3.17,3.18a.41.41,0,0,1,0,.58.4.4,0,0,1-.29.12Z" transform="translate(-148.93 -152.94)"/><path class="cls-21" d="M248.23,315l3.19-2a1.26,1.26,0,0,0,.47-1.59v0c-.4-.83.46-1.15-.15-1.76s-.93.25-1.76-.15h0a1.25,1.25,0,0,0-1.59.46l-2,3.2Z" transform="translate(-148.93 -152.94)"/><path class="cls-22" d="M251.89,311.34v0c-.4-.83.46-1.15-.15-1.76a.61.61,0,0,0-.52-.22c-.06.46-.62,1-.32,1.57h0a1.27,1.27,0,0,1-.47,1.59l-2.89,1.77.7.69,3.19-2A1.26,1.26,0,0,0,251.89,311.34Z" transform="translate(-148.93 -152.94)"/><path class="cls-23" d="M228,333.25c2.2,2.2,6,4.59,9.51,1.76,2.38-1.89,1.79-3.85,2.44-5.41s1.72-1.43,3.3-2.94c2-1.89,2-5-.82-7.83s-5.94-2.8-7.83-.83c-1.51,1.58-1.38,2.66-2.94,3.31s-3.52.06-5.42,2.44c-2.83,3.54-.43,7.31,1.76,9.5Z" transform="translate(-148.93 -152.94)"/><path class="cls-24" d="M240,329.6c.65-1.56,1.73-1.43,3.3-2.94,2-1.89,2-5-.82-7.83l-.36-.34c2.48,2.73,2.38,5.66.49,7.48-1.58,1.51-2.66,1.38-3.3,2.94s-.07,3.51-2.44,5.41c-3.37,2.68-6.93.67-9.16-1.42l.34.35c2.2,2.2,6,4.59,9.51,1.76,2.38-1.89,1.79-3.85,2.44-5.41Z" transform="translate(-148.93 -152.94)"/><circle class="cls-20" cx="87.34" cy="172.07" r="2.8"/><path class="cls-25" d="M238.25,323a2.17,2.17,0,0,0-.37-.31,2.81,2.81,0,0,1-3.91,3.9,3.79,3.79,0,0,0,.32.38,2.8,2.8,0,0,0,4-4Z" transform="translate(-148.93 -152.94)"/><path class="cls-20" d="M234,331.43l-4.13-4.14a.54.54,0,0,1,0-.78l.46-.47a.57.57,0,0,1,.79,0l4.13,4.13a.56.56,0,0,1,0,.79l-.46.47a.57.57,0,0,1-.79,0Z" transform="translate(-148.93 -152.94)"/><path class="cls-25" d="M235.24,330.17l-.69-.69a.56.56,0,0,1,0,.79l-.46.46a.56.56,0,0,1-.79,0l.69.7a.57.57,0,0,0,.79,0l.46-.47A.56.56,0,0,0,235.24,330.17Z" transform="translate(-148.93 -152.94)"/><path class="cls-26" d="M248.23,315l-1.33,1.32-.57.58L245,318.2l-.57.58-1.92,1.91L241.17,322l-.58.58L239,324.23a2.7,2.7,0,0,0-.71-1.2,2.87,2.87,0,0,0-1.19-.71l1.63-1.63.57-.57,1.34-1.34,1.91-1.91.57-.58,1.92-1.91,1.32-1.32Z" transform="translate(-148.93 -152.94)"/><path class="cls-27" d="M239,324.23l9.27-9.26-.7-.69-9,9A2.84,2.84,0,0,1,239,324.23Z" transform="translate(-148.93 -152.94)"/><path class="cls-20" d="M244.41,315l.58-.57,1.91,1.9-.58.58Z" transform="translate(-148.93 -152.94)"/><path class="cls-20" d="M242.5,316.86l.58-.57L245,318.2l-.58.57Z" transform="translate(-148.93 -152.94)"/><path class="cls-20" d="M240.59,318.78l.58-.57,1.91,1.9-.58.58Z" transform="translate(-148.93 -152.94)"/><path class="cls-20" d="M238.68,320.7l.58-.57,1.91,1.9-.58.58Z" transform="translate(-148.93 -152.94)"/><path class="cls-28" d="M296.08,307.88l-.32,8.44-5.7,5.78c-1.57-3.41-2.3-9.08-1.23-11.61C289.49,308.92,291.75,307,296.08,307.88Z" transform="translate(-148.93 -152.94)"/><path class="cls-29" d="M304.77,317.23c-1.07,2.53-5.65,6-9.19,7.21l.18-8.12,5.83-6.1C305.26,312.69,305.43,315.66,304.77,317.23Z" transform="translate(-148.93 -152.94)"/><path class="cls-30" d="M290.06,322.1l.76-.76c-1.19-3.42-1.65-8.08-.71-10.3.6-1.41,2.47-3.12,5.95-2.81l0-.35a12.11,12.11,0,0,0-1.71-.22c-2.14-.1-4.64.7-5.54,2.83a11.38,11.38,0,0,0-.35,5.68A21,21,0,0,0,290.06,322.1Z" transform="translate(-148.93 -152.94)"/><path class="cls-31" d="M301.59,310.22l-6,14.22a3.61,3.61,0,0,1-5.52-2.34l6-14.22a16.16,16.16,0,0,1,2.86.92A15.1,15.1,0,0,1,301.59,310.22Z" transform="translate(-148.93 -152.94)"/><path class="cls-32" d="M295.93,308.22a9.69,9.69,0,0,1,1.43.21,14.21,14.21,0,0,1,2.21.66l-.14-.07a17.48,17.48,0,0,0-2.65-1l-.7-.17Z" transform="translate(-148.93 -152.94)"/><path class="cls-32" d="M292.29,324.77a1.74,1.74,0,0,0,.6.13,6.51,6.51,0,0,1-1.54-2.25,14.88,14.88,0,0,1-.72-1.89l-.57,1.34.24.48a5.34,5.34,0,0,0,1.46,1.9A1.83,1.83,0,0,0,292.29,324.77Z" transform="translate(-148.93 -152.94)"/><path class="cls-33" d="M291.47,314.82a.25.25,0,0,1-.14-.34l.32-.75a.25.25,0,0,1,.34-.14.27.27,0,0,1,.14.34l-.32.75A.25.25,0,0,1,291.47,314.82Z" transform="translate(-148.93 -152.94)"/><path class="cls-33" d="M299.82,318.36a.26.26,0,0,1-.13-.34l.32-.76a.25.25,0,0,1,.34-.14.27.27,0,0,1,.14.34l-.32.76A.28.28,0,0,1,299.82,318.36Z" transform="translate(-148.93 -152.94)"/><path class="cls-33" d="M295.5,316.94a1.42,1.42,0,0,1-.81-.85.26.26,0,0,1,.5-.17.92.92,0,0,0,1.25.53.26.26,0,1,1,.23.47A1.37,1.37,0,0,1,295.5,316.94Z" transform="translate(-148.93 -152.94)"/><path class="cls-34" d="M214.29,361.49l-9.5,5.22a4.08,4.08,0,0,1-5.54-1.62L194,355.6a4.1,4.1,0,0,1,1.61-5.55l9.5-5.21a4.08,4.08,0,0,1,5.54,1.61l5.22,9.5A4.08,4.08,0,0,1,214.29,361.49Z" transform="translate(-148.93 -152.94)"/><path class="cls-35" d="M207.15,347.11a.37.37,0,0,0-.29.06L200.32,352a.36.36,0,0,0-.11.47l.75,1.37.53,1,2.95,5.36a2.89,2.89,0,0,0-2.15.28,2.47,2.47,0,1,0,3.59.83l-3.59-6.54,6-4.35,2.11,3.85a2.81,2.81,0,0,0-2.12.27,2.47,2.47,0,1,0,3.56.84l-3.11-5.67-.53-1-.76-1.38A.34.34,0,0,0,207.15,347.11Z" transform="translate(-148.93 -152.94)"/><path class="cls-36" d="M263.26,347.48l.72.18,0,.74a1.63,1.63,0,0,0,.77,1.47l.64.39-.26.7a1.64,1.64,0,0,0,.31,1.63l.5.56-.45.59a1.61,1.61,0,0,0-.19,1.65l.31.68-.61.43a1.62,1.62,0,0,0-.66,1.52l.09.74-.7.23a1.65,1.65,0,0,0-1.09,1.26l-.12.74h-.75a1.64,1.64,0,0,0-1.4.89l-.34.66-.72-.2a1.59,1.59,0,0,0-1.6.43l-.52.53-.62-.41a1.64,1.64,0,0,0-1.66-.06l-.66.36-.47-.57a1.62,1.62,0,0,0-1.57-.55l-.73.15-.29-.69a1.61,1.61,0,0,0-1.33-1l-.74-.08-.08-.74a1.59,1.59,0,0,0-1-1.33l-.69-.29.15-.73a1.63,1.63,0,0,0-.55-1.57l-.57-.47.36-.66a1.63,1.63,0,0,0-.06-1.65l-.41-.63.54-.52a1.63,1.63,0,0,0,.43-1.6l-.21-.72.67-.34a1.63,1.63,0,0,0,.88-1.4l0-.74.73-.13a1.61,1.61,0,0,0,1.26-1.09l.23-.7.74.09a1.61,1.61,0,0,0,1.52-.66l.44-.61.67.31a1.61,1.61,0,0,0,1.65-.18l.6-.45.55.49a1.64,1.64,0,0,0,1.63.31l.7-.26.39.64a1.61,1.61,0,0,0,1.47.77l.74,0,.18.73A1.64,1.64,0,0,0,263.26,347.48Z" transform="translate(-148.93 -152.94)"/><circle class="cls-37" cx="107.14" cy="200.54" r="7.08"/><path class="cls-38" d="M250.58,353.49a7.09,7.09,0,0,1,6.28-7c-.25,0-.52,0-.79,0a7.08,7.08,0,0,0,0,14.15,6.74,6.74,0,0,0,.79,0A7.07,7.07,0,0,1,250.58,353.49Z" transform="translate(-148.93 -152.94)"/><path class="cls-39" d="M252,354a.3.3,0,0,1-.29-.3v-.74a.3.3,0,0,1,.59,0v.74A.3.3,0,0,1,252,354Z" transform="translate(-148.93 -152.94)"/><path class="cls-39" d="M260.14,354a.3.3,0,0,1-.29-.3v-.74a.3.3,0,0,1,.59,0v.74A.3.3,0,0,1,260.14,354Z" transform="translate(-148.93 -152.94)"/><path class="cls-39" d="M256.07,354.35a1.61,1.61,0,0,1-1.22-.55.3.3,0,0,1,0-.42.31.31,0,0,1,.42,0,1,1,0,0,0,.78.35,1.06,1.06,0,0,0,.79-.35.3.3,0,0,1,.41,0,.29.29,0,0,1,0,.42A1.61,1.61,0,0,1,256.07,354.35Z" transform="translate(-148.93 -152.94)"/></svg>