<svg height="503pt" viewBox="0 0 503.78328 503" width="503pt" xmlns="http://www.w3.org/2000/svg"><path d="m315.734375 188.140625c9.414063-.027344 17.039063-7.652344 17.066406-17.066406-.070312-9.398438-7.671875-17-17.066406-17.066407h-.085937c.085937-1.453124.085937-11.433593.085937-12.800781-1.203125-78.929687-66.136719-141.957031-145.066406-140.800781-78.933594-1.15625-143.867188 61.871094-145.066407 140.800781 0 1.367188 0 11.347657.082032 12.800781h-.082032c-9.398437.066407-17 7.667969-17.066406 17.066407.027344 9.414062 7.652344 17.039062 17.066406 17.066406 0 0 8.53125 42.667969-8.535156 76.800781-15.1875 30.378906-10.070312 67.582032 15.359375 87.378906l.085938.085938c12.847656-12.195312 28.683593-20.789062 45.910156-24.917969h30.292969l55.722656 51.203125 6.230469 5.714844 5.972656-6.058594 50.429687-50.859375h35.839844c17.152344 4.105469 32.921875 12.636719 45.742188 24.75l22.78125-66.136719c-1.378906-7.355468-3.792969-14.480468-7.167969-21.160156-17.066406-34.132812-8.53125-76.800781-8.53125-76.800781zm0 0" fill="#af8066"/><path d="m331.433594 286.101562-22.78125 66.136719c-12.820313-12.113281-28.589844-20.644531-45.742188-24.75h-35.839844l-50.429687 50.859375-5.972656 6.058594-6.230469-5.714844-55.722656-51.203125h-30.292969c-17.226563 4.128907-33.0625 12.722657-45.910156 24.917969l-.085938-.085938c-25.429687-19.796874-30.546875-57-15.359375-87.378906 17.066406-34.132812 8.535156-76.800781 8.535156-76.800781h19.539063c-.425781-1.878906-.765625-3.667969-1.023437-5.460937.339843 1.707031.683593 3.328124 1.023437 5.035156.933594 4.296875 2.101563 8.542968 3.5 12.714844l1.535156 4.09375c.597657 1.367187 1.109375 2.730468 1.707031 4.097656 4.851563 11.03125 11.417969 21.226562 19.457032 30.207031 1.875 2.132813 3.925781 4.265625 5.972656 6.230469.9375.9375 1.875 1.875 2.816406 2.730468 2.046875 1.792969 4.179688 3.667969 6.3125 5.375.171875.085938.34375.257813.511719.34375 2.21875 1.789063 4.523437 3.496094 6.914063 5.117188 2.472656 1.707031 5.035156 3.328125 7.679687 4.863281 2.558594 1.539063 5.289063 2.988281 8.019531 4.355469 2.21875 1.109375 4.523438 2.21875 6.828125 3.15625l3.070313 1.277344c1.964844.769531 3.925781 1.539062 5.890625 2.136718.796875.359376 1.625.644532 2.472656.851563 2.035156.753906 4.117187 1.382813 6.230469 1.878906.972656.335938 1.972656.589844 2.988281.765625.472656.15625.957031.269532 1.449219.34375 1.792968.511719 3.582031.851563 5.375 1.195313 1.367187.253906 2.730468.511719 4.011718.679687 1.707032.34375 3.5.597656 5.207032.769532 1.523437.253906 3.0625.425781 4.605468.511718 2.132813.253906 4.265626.339844 6.402344.425782 2.21875.085937 4.351563.171874 6.570313.171874s4.351562-.085937 6.570312-.171874c2.132813-.085938 4.265625-.171876 6.398438-.425782 1.542969-.085937 3.082031-.257812 4.609375-.511718 1.707031-.171876 3.496094-.425782 5.203125-.769532 1.28125-.167968 2.648437-.425781 4.011719-.679687 1.792968-.34375 3.585937-.683594 5.375-1.195313.492187-.074218.980468-.1875 1.453124-.34375.984376-.175781 1.957032-.429687 2.898438-.765625 2.457031-.609375 4.878906-1.351562 7.253906-2.21875.171875 0 .257813 0 .34375-.085937 2.730469-.855469 5.289063-1.878906 7.933594-2.902344.769531-.339844 1.453125-.597656 2.21875-.9375 5.0625-2.183594 9.992188-4.664062 14.765625-7.425781 4.992187-2.945313 9.78125-6.222657 14.335937-9.8125.339844-.253907.59375-.511719.9375-.769531 2.132813-1.703126 4.265626-3.496094 6.3125-5.375 2.21875-2.046876 4.269532-4.09375 6.316407-6.230469 1.960937-2.132813 3.925781-4.351563 5.800781-6.570313 1.367188-1.707031 2.648438-3.410156 4.011719-5.203125 4.703125-6.503906 8.707031-13.480469 11.949219-20.820312.59375-1.28125 1.109374-2.5625 1.703124-3.925781 2.15625-5.429688 3.867188-11.023438 5.121094-16.726563h19.542969s-8.535156 42.667969 8.53125 76.800781c3.375 6.679688 5.789063 13.804688 7.167969 21.160156zm0 0" fill="#7f5b53"/><path d="m208.640625 327.488281-12.375 18.519531-25.597656 38.398438-25.601563-38.398438-12.375-18.519531zm0 0" fill="#fdd7ad"/><path d="m145.066406 279.703125h51.199219v66.304687h-51.199219zm0 0" fill="#fdd7ad"/><path d="m145.066406 354.539062c-4.710937 0-8.53125-3.820312-8.53125-8.53125v-66.304687c0-4.710937 3.820313-8.53125 8.53125-8.53125 4.714844 0 8.535156 3.820313 8.535156 8.53125v66.304687c0 4.710938-3.820312 8.53125-8.535156 8.53125zm0 0" fill="#f09372"/><path d="m196.265625 354.539062c-4.710937 0-8.53125-3.820312-8.53125-8.53125v-66.304687c0-4.710937 3.820313-8.53125 8.53125-8.53125 4.714844 0 8.535156 3.820313 8.535156 8.53125v66.304687c0 4.710938-3.820312 8.53125-8.535156 8.53125zm0 0" fill="#f09372"/><path d="m341.332031 464.707031v13.566407c-.027343 9.414062-7.652343 17.039062-17.066406 17.066406h-307.199219c-9.414062-.027344-17.0390622-7.652344-17.066406-17.066406v-51.199219c.199219-47.253907 32.53125-88.3125 78.421875-99.585938h30.292969l55.722656 51.203125 6.230469 5.714844 5.972656-6.058594 50.429687-50.859375h35.839844c17.152344 4.105469 32.921875 12.636719 45.742188 24.75 2.300781 2.132813 4.519531 4.351563 6.65625 6.738281l18.6875 76.035157zm0 0" fill="#285680"/><path d="m196.265625 279.703125v16.980469c-16.917969 3.1875-34.28125 3.1875-51.199219 0v-16.980469zm0 0" fill="#f09372"/><path d="m179.199219 384.40625v110.933594h-17.066407v-110.933594c.019532-2.128906.84375-4.167969 2.304688-5.714844l6.230469 5.714844 5.972656-6.058594c1.609375 1.609375 2.527344 3.785156 2.558594 6.058594zm0 0" fill="#2c3e50"/><path d="m170.667969 384.40625-26.371094 32.957031c-1.753906 2.199219-4.480469 3.386719-7.285156 3.179688-2.804688-.203125-5.328125-1.78125-6.746094-4.210938l-48.480469-83.113281c-1.25-2.144531-1.507812-4.726562-.699218-7.074219.804687-2.347656 2.59375-4.226562 4.898437-5.148437l27.082031-10.828125c3.75-1.488281 8.03125-.132813 10.242188 3.242187l9.382812 14.078125 12.375 18.519531zm0 0" fill="#ecf0f1"/><path d="m259.546875 333.222656-48.480469 83.113282c-1.417968 2.429687-3.941406 4.003906-6.746094 4.210937-2.804687.207031-5.53125-.984375-7.289062-3.179687l-26.363281-32.960938 25.597656-38.398438 12.375-18.519531 9.386719-14.078125c2.210937-3.375 6.488281-4.730468 10.238281-3.242187l27.078125 10.832031c2.304688.921875 4.097656 2.800781 4.902344 5.148438.808594 2.347656.550781 4.929687-.699219 7.074218zm0 0" fill="#ecf0f1"/><path d="m48.640625 200.429688c-1.464844-4.007813-2.632813-8.113282-3.5-12.289063-.425781-1.878906-.765625-3.667969-1.023437-5.460937.339843 1.707031.683593 3.328124 1.023437 5.035156.933594 4.296875 2.101563 8.542968 3.5 12.714844zm0 0" fill="#fdd7ad"/><path d="m315.734375 141.207031c0 1.367188 0 11.347657-.085937 12.800781h-17.578126c-.257812-3.074218-.769531-6.144531-1.28125-9.214843-.511718-2.390625-1.023437-4.78125-1.707031-7.167969 0-.085938-.085937-.171875-.085937-.257812v-.085938c-5.679688-12.449219-13.0625-24.050781-21.929688-34.472656-70.65625 5.886718-108.886718-20.738282-125.609375-37.804688-4.175781-4.003906-7.84375-8.503906-10.921875-13.398437-1.175781 3.53125-2.8125 6.886719-4.867187 9.984375-7.847657 12.628906-27.21875 34.390625-71.507813 47.277344-2.902344.9375-5.886718 1.707031-8.960937 2.472656l-4.523438 24.578125v.082031c-.765625 2.902344-1.535156 5.804688-2.132812 8.792969-.511719 3.070312-1.023438 6.140625-1.277344 9.214843h-17.582031c-.082032-1.453124-.082032-11.433593-.082032-12.800781 1.199219-78.929687 66.132813-141.957031 145.066407-140.800781 78.929687-1.15625 143.863281 61.871094 145.066406 140.800781zm0 0" fill="#af8066"/><path d="m298.667969 165.015625c-.011719 4.046875-.242188 8.09375-.683594 12.117187-.425781 3.753907-1.023437 7.339844-1.792969 11.007813-1.253906 5.703125-2.964844 11.296875-5.121094 16.726563-.59375 1.363281-1.109374 2.644531-1.703124 3.925781-3.242188 7.339843-7.246094 14.316406-11.949219 20.820312-1.363281 1.792969-2.644531 3.496094-4.011719 5.203125-1.875 2.21875-3.839844 4.4375-5.800781 6.570313-2.046875 2.136719-4.097657 4.183593-6.316407 6.230469-2.046874 1.878906-4.179687 3.671874-6.3125 5.375-.34375.257812-.597656.515624-.9375.769531-4.554687 3.589843-9.34375 6.867187-14.335937 9.8125-4.773437 2.761719-9.703125 5.242187-14.765625 7.425781-.765625.339844-1.449219.597656-2.21875.9375-2.644531 1.023438-5.203125 2.046875-7.933594 2.902344-.085937.085937-.171875.085937-.34375.085937-2.375.867188-4.796875 1.609375-7.253906 2.21875-.941406.335938-1.914062.589844-2.898438.765625-.472656.15625-.960937.269532-1.453124.34375-1.789063.511719-3.582032.851563-5.375 1.195313-1.363282.253906-2.730469.511719-4.011719.679687-1.707031.34375-3.496094.597656-5.203125.769532-1.527344.253906-3.066406.425781-4.609375.511718-2.132813.253906-4.265625.339844-6.398438.425782-2.21875.085937-4.351562.171874-6.570312.171874s-4.351563-.085937-6.570313-.171874c-2.136718-.085938-4.269531-.171876-6.402344-.425782-1.542968-.085937-3.082031-.257812-4.605468-.511718-1.707032-.171876-3.5-.425782-5.207032-.769532-1.28125-.167968-2.644531-.425781-4.011718-.679687-1.792969-.34375-3.582032-.683594-5.375-1.195313-.492188-.074218-.976563-.1875-1.449219-.34375-1.015625-.175781-2.015625-.429687-2.988281-.765625-2.113282-.496093-4.195313-1.125-6.230469-1.878906-.847656-.207031-1.675781-.492187-2.472656-.851563-1.964844-.597656-3.925781-1.367187-5.890625-2.136718l-3.070313-1.277344c-2.304687-.9375-4.609375-2.046875-6.828125-3.15625-2.730468-1.367188-5.460937-2.816406-8.019531-4.355469-2.644531-1.535156-5.207031-3.15625-7.679687-4.863281-2.390626-1.621094-4.695313-3.328125-6.914063-5.117188-.167969-.085937-.339844-.257812-.511719-.34375-2.132812-1.707031-4.265625-3.582031-6.3125-5.375-.941406-.855468-1.878906-1.792968-2.816406-2.730468-2.046875-1.964844-4.097656-4.097656-5.972656-6.230469-8.039063-8.980469-14.605469-19.175781-19.457032-30.207031-.597656-1.367188-1.109374-2.730469-1.707031-4.097656l-1.535156-4.09375c-1.398437-4.171876-2.566406-8.417969-3.5-12.714844-.339844-1.707032-.683594-3.328125-1.023437-5.035156-.253907-1.878907-.597657-3.667969-.769532-5.546876-.441406-4.023437-.667968-8.070312-.679687-12.117187-.019531-3.679687.179687-7.355469.597656-11.007813.253906-3.074218.765625-6.144531 1.277344-9.214843.597656-2.988281 1.367187-5.890625 2.132812-8.792969v-.082031l4.523438-24.578125c3.074219-.765625 6.058593-1.535156 8.960937-2.472656 44.289063-12.886719 63.660156-34.648438 71.507813-47.277344 2.054687-3.097656 3.691406-6.453125 4.867187-9.984375 3.078125 4.894531 6.746094 9.394531 10.921875 13.398437 16.722657 17.066406 54.953125 43.691406 125.609375 37.804688 8.867188 10.421875 16.25 22.023437 21.929688 34.472656v.085938c0 .085937.085937.171874.085937.257812.597657 2.386719 1.195313 4.777344 1.707031 7.167969.511719 3.070312 1.023438 6.140625 1.28125 9.214843.414063 3.652344.613282 7.328126.597657 11.007813zm0 0" fill="#fdd7ad"/><path d="m213.332031 461.207031c0 4.714844-3.820312 8.535157-8.53125 8.535157-4.714843 0-8.535156-3.820313-8.535156-8.535157 0-4.710937 3.820313-8.53125 8.535156-8.53125 4.710938 0 8.53125 3.820313 8.53125 8.53125zm0 0" fill="#ecf0f1"/><path d="m492.289062 291.050781-121.003906-41.726562c-6.425781-2.292969-13.5-1.890625-19.625 1.109375-6.082031 3.003906-10.742187 8.273437-12.972656 14.675781l-7.253906 20.992187-22.78125 66.136719-25.601563 74.152344c-1.554687 4.429687.773438 9.28125 5.207031 10.839844 4.429688 1.554687 9.28125-.777344 10.835938-5.207031 1.554688-4.433594 6.386719-6.789063 10.835938-5.289063l24.066406 8.277344 87.890625 30.292969 1.023437.511718 16.214844 5.546875c.886719.273438 1.804688.414063 2.730469.425781 3.636719-.003906 6.882812-2.292968 8.105469-5.71875l52.910156-153.257812c3.019531-8.925781-1.695313-18.625-10.582032-21.761719zm0 0" fill="#955ba5"/><path d="m425.726562 457.625v.082031l-11.175781 32.257813-112.898437-38.996094c-7.890625-2.726562-12.660156-10.75-11.285156-18.984375 1.371093-8.234375 8.484374-14.277344 16.832031-14.296875 1.886719.011719 3.761719.332031 5.546875.9375zm0 0" fill="#fac176"/><g fill="#3d324c"><path d="m340.054688 400.511719c-2.761719-.003907-5.347657-1.339844-6.949219-3.585938-1.597657-2.25-2.015625-5.128906-1.117188-7.738281l33.421875-96.789062c.996094-2.882813 3.453125-5.011719 6.445313-5.59375 2.996093-.578126 6.070312.484374 8.066406 2.785156 2 2.304687 2.617187 5.496094 1.625 8.378906l-33.425781 96.789062c-1.1875 3.441407-4.425782 5.753907-8.066406 5.753907zm0 0"/><path d="m448.558594 347.703125c-.949219 0-1.886719-.160156-2.785156-.46875l-48.390626-16.714844c-2.882812-.992187-5.015624-3.449219-5.59375-6.441406-.578124-2.996094.480469-6.070313 2.78125-8.070313 2.304688-1.996093 5.496094-2.617187 8.378907-1.621093l48.390625 16.710937c3.949218 1.355469 6.335937 5.367188 5.648437 9.484375-.691406 4.113281-4.257812 7.125-8.429687 7.121094zm0 0"/><path d="m437.417969 379.96875c-.945313 0-1.886719-.160156-2.78125-.46875l-48.394531-16.714844c-2.898438-.980468-5.050782-3.4375-5.636719-6.441406-.589844-3.003906.476562-6.09375 2.792969-8.09375 2.3125-2.003906 5.523437-2.613281 8.410156-1.597656l48.394531 16.714844c3.945313 1.355468 6.332031 5.363281 5.644531 9.480468-.691406 4.113282-4.257812 7.128906-8.429687 7.121094zm0 0"/><path d="m426.273438 412.230469c-.945313 0-1.886719-.160157-2.78125-.46875l-48.390626-16.710938c-2.882812-.996093-5.015624-3.453125-5.597656-6.445312-.578125-2.992188.484375-6.070313 2.785156-8.066407 2.300782-2 5.496094-2.617187 8.378907-1.625l48.386719 16.714844c3.949218 1.355469 6.335937 5.363282 5.644531 9.480469-.6875 4.117187-4.253907 7.128906-8.425781 7.121094zm0 0"/></g><path d="m45.140625 188.140625h-19.539063c-9.414062-.027344-17.039062-7.652344-17.066406-17.066406.066406-9.398438 7.667969-17 17.066406-17.066407h17.664063c-.417969 3.652344-.617187 7.328126-.597656 11.007813.011719 4.046875.238281 8.09375.679687 12.117187.171875 1.878907.515625 3.667969.769532 5.546876.257812 1.792968.597656 3.582031 1.023437 5.460937zm0 0" fill="#f09372"/><path d="m332.800781 171.074219c-.027343 9.414062-7.652343 17.039062-17.066406 17.066406h-19.542969c.769532-3.667969 1.367188-7.253906 1.792969-11.007813.441406-4.023437.671875-8.070312.683594-12.117187.015625-3.679687-.183594-7.355469-.597657-11.007813h17.664063c9.394531.066407 16.996094 7.667969 17.066406 17.066407zm0 0" fill="#f09372"/><path d="m153.601562 154.007812c0 9.054688-3.59375 17.738282-9.996093 24.136719-6.402344 6.402344-15.085938 10-24.140625 9.996094-6.820313.039063-13.492188-2.015625-19.113282-5.886719-11.910156-8.019531-17.519531-22.636718-14.035156-36.5625 3.484375-13.925781 15.320313-24.179687 29.601563-25.640625 14.28125-1.460937 27.949219 6.175781 34.183593 19.109375 2.34375 4.59375 3.546876 9.6875 3.5 14.847656zm0 0" fill="#9fc9d3"/><path d="m256 154.007812c.003906 9.054688-3.59375 17.738282-9.996094 24.136719-6.398437 6.402344-15.082031 10-24.136718 9.996094-18.808594-.105469-34.027344-15.324219-34.132813-34.132813-.015625-15.929687 10.996094-29.746093 26.53125-33.28125 15.53125-3.539062 31.441406 4.152344 38.320313 18.519532 2.269531 4.585937 3.4375 9.640625 3.414062 14.761718zm0 0" fill="#9fc9d3"/><path d="m93.867188 154.007812c-.015626 4.707032-3.828126 8.519532-8.535157 8.53125-13.304687.0625-26.476562 2.640626-38.824219 7.597657-1.121093.625-2.386718.949219-3.671874.9375-.082032-1.964844-.167969-4.011719-.167969-6.058594-.019531-3.679687.179687-7.355469.597656-11.007813 0-.34375.082031-.683593.082031-1.023437 13.476563-4.835937 27.667969-7.375 41.984375-7.511719 4.707031.015625 8.519531 3.828125 8.535157 8.535156zm0 0" fill="#35495e"/><path d="m298.667969 165.015625c0 2.046875-.085938 4.09375-.171875 6.058594-1.285156.011719-2.550782-.3125-3.667969-.9375-12.347656-4.957031-25.523437-7.535157-38.828125-7.597657-4.710938 0-8.535156-3.820312-8.535156-8.53125 0-4.714843 3.824218-8.535156 8.535156-8.535156 14.316406.136719 28.507812 2.675782 41.984375 7.511719 0 .339844.085937.679687.085937 1.023437.414063 3.652344.613282 7.328126.597657 11.007813zm0 0" fill="#35495e"/><path d="m187.734375 162.539062c-2.265625.003907-4.4375-.894531-6.035156-2.5-2.980469-3.078124-6.828125-5.183593-11.03125-6.03125-4.214844.851563-8.074219 2.964844-11.058594 6.058594-3.355469 3.238282-8.6875 3.1875-11.976563-.117187-3.289062-3.300781-3.320312-8.636719-.066406-11.976563 6.167969-6.273437 14.34375-10.175781 23.101563-11.03125 8.753906.855469 16.929687 4.757813 23.097656 11.03125 2.441406 2.441406 3.171875 6.113282 1.851563 9.300782-1.324219 3.1875-4.433594 5.265624-7.882813 5.265624zm0 0" fill="#35495e"/><path d="m153.601562 154.007812c0 9.054688-3.59375 17.738282-9.996093 24.136719-6.402344 6.402344-15.085938 10-24.140625 9.996094-6.820313.039063-13.492188-2.015625-19.113282-5.886719 3.667969-17.066406 15.191407-39.167968 49.75-43.09375 2.34375 4.59375 3.546876 9.6875 3.5 14.847656zm0 0" fill="#67b9cc"/><path d="m256 154.007812c.003906 9.054688-3.59375 17.738282-9.996094 24.136719-6.398437 6.402344-15.082031 10-24.136718 9.996094-6.582032.007813-13.023438-1.921875-18.519532-5.546875 4.289063-24.167969 24.722656-42.15625 49.238282-43.347656 2.269531 4.585937 3.4375 9.640625 3.414062 14.761718zm0 0" fill="#67b9cc"/><path d="m119.464844 196.675781c-23.5625 0-42.664063-19.105469-42.664063-42.667969 0-23.566406 19.101563-42.667968 42.664063-42.667968 23.566406 0 42.667968 19.101562 42.667968 42.667968-.027343 23.550782-19.113281 42.636719-42.667968 42.667969zm0-68.269531c-14.136719 0-25.597656 11.460938-25.597656 25.601562 0 14.136719 11.460937 25.597657 25.597656 25.597657 14.140625 0 25.601562-11.460938 25.601562-25.597657-.015625-14.132812-11.46875-25.585937-25.601562-25.601562zm0 0" fill="#35495e"/><path d="m221.867188 196.675781c-23.566407 0-42.667969-19.105469-42.667969-42.667969 0-23.566406 19.101562-42.667968 42.667969-42.667968 23.5625 0 42.667968 19.101562 42.667968 42.667968-.03125 23.550782-19.117187 42.636719-42.667968 42.667969zm0-68.269531c-14.140626 0-25.601563 11.460938-25.601563 25.601562 0 14.136719 11.460937 25.597657 25.601563 25.597657 14.136718 0 25.597656-11.460938 25.597656-25.597657-.015625-14.132812-11.464844-25.585937-25.597656-25.601562zm0 0" fill="#35495e"/><path d="m430.691406 504.03125c-.945312 0-1.886718-.160156-2.78125-.46875l-129.058594-44.566406c-8.703124-2.945313-15.160156-10.320313-16.925781-19.335938-1.761719-9.011718 1.4375-18.28125 8.386719-24.285156 6.949219-6.007812 16.582031-7.828125 25.246094-4.777344l129.058594 44.566406c2.898437.984376 5.050781 3.441407 5.636718 6.445313.589844 3.003906-.476562 6.089844-2.792968 8.09375-2.3125 2-5.523438 2.609375-8.410157 1.59375l-129.058593-44.5625c-4.425782-1.449219-9.199219.917969-10.71875 5.320313-1.523438 4.402343.765624 9.210937 5.144531 10.804687l129.058593 44.566406c3.945313 1.355469 6.332032 5.367188 5.644532 9.484375-.691406 4.113282-4.257813 7.128906-8.429688 7.121094zm0 0" fill="#894b9d"/></svg>