<svg height="512pt" viewBox="-1 0 512 512.00104" width="512pt" xmlns="http://www.w3.org/2000/svg"><path d="m251.355469 28.628906c-125.453125 0-227.15625 101.699219-227.15625 227.152344s101.703125 227.152344 227.15625 227.152344 227.152343-101.699219 227.152343-227.152344-101.699218-227.152344-227.152343-227.152344zm0 411.632813c-101.722657 0-184.480469-82.757813-184.480469-184.480469s82.757812-184.476562 184.480469-184.476562c101.71875 0 184.476562 82.753906 184.476562 184.476562s-82.757812 184.480469-184.476562 184.480469zm0 0" fill="#1ed688"/><path d="m251.355469 50.484375c-113.203125 0-205.296875 92.09375-205.296875 205.296875s92.09375 205.296875 205.296875 205.296875c113.199219 0 205.292969-92.09375 205.292969-205.296875s-92.09375-205.296875-205.292969-205.296875zm0 389.777344c-101.722657 0-184.480469-82.757813-184.480469-184.480469s82.757812-184.476562 184.480469-184.476562c101.71875 0 184.476562 82.753906 184.476562 184.476562s-82.757812 184.480469-184.476562 184.480469zm0 0" fill="#1ab975"/><path d="m54.378906 145.117188c0 15.015624-12.171875 27.1875-27.191406 27.1875-15.015625 0-27.1875-12.171876-27.1875-27.1875 0-15.015626 12.171875-27.191407 27.1875-27.191407 15.019531 0 27.191406 12.175781 27.191406 27.191407zm0 0" fill="#e3a76f"/><path d="m190.519531 145.121094c0 15.015625-12.171875 27.1875-27.1875 27.1875s-27.191406-12.171875-27.191406-27.1875 12.175781-27.191406 27.191406-27.191406 27.1875 12.175781 27.1875 27.191406zm0 0" fill="#e3a76f"/><path d="m165.949219 38.058594v126.429687c0 32.875-38.476563 60.511719-61.292969 68.421875-4.277344 1.480469-8.003906 2.265625-10.824219 2.265625-8.9375 0-26.96875-7.910156-42.757812-20.707031-15.800781-12.789062-29.363281-30.464844-29.363281-49.980469v-126.429687c0-12.890625 10.453124-23.335938 23.335937-23.335938h97.566406c12.890625 0 23.335938 10.445313 23.335938 23.335938zm0 0" fill="#e3a76f"/><path d="m165.949219 38.058594v126.429687c0 28.449219-28.808594 52.972657-51.351563 64.1875-6.246094 3.105469-13.578125 3.128907-19.824218.027344-7.089844-3.523437-14.804688-8.367187-22.046876-14.234375-15.796874-12.789062-29.359374-30.464844-29.359374-49.980469v-126.429687c0-12.890625 10.449218-23.335938 23.335937-23.335938h75.914063c12.886718 0 23.332031 10.449219 23.332031 23.335938zm0 0" fill="#f2bb88"/><g fill="#ae583e"><path d="m140.761719 145.277344c0 4.71875-3.824219 8.546875-8.542969 8.546875s-8.542969-3.828125-8.542969-8.546875 3.824219-8.542969 8.542969-8.542969 8.542969 3.824219 8.542969 8.542969zm0 0"/><path d="m148.804688 124.394531c-.984376 0-1.980469-.269531-2.875-.832031-6.652344-4.183594-19.671876-2.714844-24.125-1.796875-2.929688.601563-5.789063-1.28125-6.398438-4.203125-.605469-2.925781 1.269531-5.789062 4.195312-6.398438 2.070313-.433593 20.570313-4.011718 32.089844 3.234376 2.53125 1.589843 3.292969 4.933593 1.699219 7.460937-1.027344 1.636719-2.785156 2.535156-4.585937 2.535156zm0 0"/><path d="m66.847656 145.277344c0 4.71875-3.828125 8.546875-8.546875 8.546875s-8.542969-3.828125-8.542969-8.546875 3.824219-8.542969 8.542969-8.542969 8.546875 3.824219 8.546875 8.542969zm0 0"/><path d="m41.714844 124.394531c-1.796875 0-3.558594-.898437-4.585938-2.535156-1.589844-2.527344-.832031-5.871094 1.703125-7.460937 11.515625-7.246094 30.015625-3.667969 32.089844-3.234376 2.925781.609376 4.804687 3.476563 4.191406 6.402344-.609375 2.925782-3.480469 4.804688-6.398437 4.195313-4.460938-.917969-17.476563-2.378907-24.121094 1.800781-.898438.5625-1.894531.832031-2.878906.832031zm0 0"/><path d="m95.261719 200.949219c-12.046875 0-21.847657-9.800781-21.847657-21.847657 0-2.988281 2.421876-5.414062 5.414063-5.414062 2.988281 0 5.410156 2.425781 5.410156 5.414062 0 6.078126 4.945313 11.023438 11.023438 11.023438 6.074219 0 11.019531-4.945312 11.019531-11.023438 0-2.988281 2.421875-5.414062 5.414062-5.414062 2.988282 0 5.414063 2.425781 5.414063 5.414062 0 12.046876-9.800781 21.847657-21.847656 21.847657zm0 0"/><path d="m176.488281 93.304688h-22.199219c-11.890624 0-21.53125-9.640626-21.53125-21.53125v-39.390626c0-11.890624 9.640626-21.53125 21.53125-21.53125h4.664063c11.890625 0 21.53125 9.640626 21.53125 21.53125v56.925782c0 2.207031-1.789063 3.996094-3.996094 3.996094zm0 0"/></g><path d="m167.378906 3.960938v7.246093c0 29.320313-58.652344 86.8125-136.179687 86.316407h-13.382813c-7.523437 0-13.628906-4.214844-13.628906-9.402344v-58.671875c0-16.261719 19.15625-29.449219 42.773438-29.449219h114.679687c.859375 0 1.679687.128906 2.410156.367188 1.964844.628906 3.328125 2 3.328125 3.59375zm0 0" fill="#c0694e"/><path d="m164.050781.367188c-13.425781 30.554687-66.148437 73.042968-132.851562 72.617187h-13.382813c-7.523437 0-13.628906-4.214844-13.628906-9.40625v-34.128906c0-16.261719 19.15625-29.449219 42.773438-29.449219h114.679687c.859375 0 1.679687.128906 2.410156.367188zm0 0" fill="#c97e67"/><path d="m160.824219 417.449219s-.695313 32.632812-36.367188 58.382812c-.910156.65625-1.203125 1.882813-.65625 2.867188 3.546875 6.421875 18.136719 28.425781 53.484375 33.300781 0 0 148.050782-.953125 148.050782 0 35.34375-4.871094 49.9375-26.878906 53.488281-33.296875.542969-.988281.25-2.210937-.660157-2.871094-24.300781-17.539062-32.375-45.492187-35.046874-58.382812zm0 0" fill="#f29500"/><path d="m199.988281 407.113281c0 15.039063-12.191406 27.230469-27.230469 27.230469-15.039062 0-27.230468-12.191406-27.230468-27.230469 0-15.039062 12.191406-27.230469 27.230468-27.230469 15.039063 0 27.230469 12.191407 27.230469 27.230469zm0 0" fill="#f2bb88"/><path d="m347.789062 407.117188c0 15.039062-12.191406 27.230468-27.230468 27.230468-15.039063 0-27.230469-12.191406-27.230469-27.230468 0-15.039063 12.191406-27.230469 27.230469-27.230469 15.039062 0 27.230468 12.191406 27.230468 27.230469zm0 0" fill="#f2bb88"/><path d="m322.109375 299.890625v126.625c0 19.546875-13.582031 37.25-29.40625 50.058594-10.867187 8.796875-22.785156 15.292969-32.085937 18.5-4.238282 1.460937-7.9375 2.242187-10.734376 2.242187-17.898437-.007812-72.230468-31.703125-72.230468-70.800781v-126.625c0-12.910156 10.460937-23.371094 23.375-23.371094h97.710937c12.910157 0 23.371094 10.460938 23.371094 23.371094zm0 0" fill="#f2bb88"/><path d="m322.109375 299.890625v126.625c0 19.546875-13.582031 37.25-29.40625 50.058594-10.867187 8.796875-22.785156 15.292969-32.085937 18.5-22.835938-7.871094-61.496094-35.582031-61.496094-68.558594v-126.625c0-12.910156 10.460937-23.371094 23.371094-23.371094h76.246093c12.910157 0 23.371094 10.460938 23.371094 23.371094zm0 0" fill="#f2d1a5"/><path d="m251.308594 455.347656c-10.902344 0-19.769532-8.871094-19.769532-19.773437 0-2.964844 2.402344-5.367188 5.367188-5.367188s5.367188 2.402344 5.367188 5.367188c0 4.984375 4.054687 9.039062 9.039062 9.039062s9.035156-4.054687 9.035156-9.039062c0-2.964844 2.40625-5.367188 5.367188-5.367188 2.964844 0 5.371094 2.402344 5.371094 5.367188-.003907 10.902343-8.871094 19.773437-19.777344 19.773437zm0 0" fill="#f29500"/><path d="m296.882812 403.9375c0 4.726562-3.832031 8.558594-8.558593 8.558594-4.726563 0-8.558594-3.832032-8.558594-8.558594s3.832031-8.558594 8.558594-8.558594c4.726562 0 8.558593 3.832032 8.558593 8.558594zm0 0" fill="#f29500"/><path d="m304.9375 391.554688c-.976562 0-1.964844-.265626-2.851562-.824219-6.675782-4.199219-19.734376-2.730469-24.203126-1.808594-2.898437.597656-5.738281-1.269531-6.339843-4.167969-.601563-2.898437 1.257812-5.738281 4.15625-6.34375 2.074219-.429687 20.582031-4.011718 32.101562 3.230469 2.507813 1.578125 3.265625 4.890625 1.6875 7.402344-1.019531 1.621093-2.765625 2.511719-4.550781 2.511719zm0 0" fill="#f29500"/><path d="m222.851562 403.9375c0 4.726562-3.832031 8.558594-8.554687 8.558594-4.726563 0-8.558594-3.832032-8.558594-8.558594s3.832031-8.558594 8.558594-8.558594c4.722656 0 8.554687 3.832032 8.554687 8.558594zm0 0" fill="#f29500"/><path d="m339.460938 322.121094v48.972656c0 4.207031-3.257813 7.632812-7.285157 7.632812-12.980469 0-24.753906-7.632812-30.046875-19.496093l-7.308594-16.335938c-2.304687-5.148437-9.703124-4.914062-11.660156.378907-3.410156 9.1875-8.960937 17.425781-16.203125 24.015624l-.558593.503907c-13.285157 12.109375-30.394532 18.511719-47.808594 18.511719-8.023438 0-16.113282-1.355469-23.914063-4.152344-4.65625-1.679688-9.554687 1.777344-9.554687 6.722656v63.015625c0 3.035156-1.234375 5.765625-3.214844 7.757813-1.992188 1.980468-4.734375 3.210937-7.765625 3.210937-6.054687 0-10.96875-4.914063-10.96875-10.96875 0-.214844 0-.324219-.011719-93.050781 0-39.679688-.03125-36.355469.023438-38.484375.875-31.804688 26.289062-56.859375 56.660156-56.859375h62.933594c30.710937-.003906 56.683594 25.726562 56.683594 58.625zm0 0" fill="#ffa90b"/><path d="m339.460938 322.121094v29.804687c-14.613282-2.464843-27.203126-11.203125-33.414063-23.703125l-10.164063-20.457031c-3.210937-6.457031-13.519531-6.15625-16.246093.46875-4.746094 11.503906-12.480469 21.8125-22.5625 30.082031l-.773438.636719c-18.496093 15.15625-42.332031 23.167969-66.5625 23.167969-8.882812 0-17.824219-1.085938-26.578125-3.28125 0-39.679688-.03125-36.355469.023438-38.484375.875-31.804688 26.289062-56.859375 56.660156-56.859375h62.933594c30.710937-.003906 56.683594 25.726562 56.683594 58.625zm0 0" fill="#ffb52d"/><path d="m373.847656 148.308594c0 14.941406-12.113281 27.050781-27.050781 27.050781-14.941406 0-27.050781-12.109375-27.050781-27.050781s12.109375-27.050782 27.050781-27.050782c14.9375 0 27.050781 12.109376 27.050781 27.050782zm0 0" fill="#f2bb88"/><path d="m509.300781 148.3125c0 14.941406-12.109375 27.050781-27.050781 27.050781-14.9375 0-27.050781-12.109375-27.050781-27.050781 0-14.9375 12.113281-27.050781 27.050781-27.050781 14.941406 0 27.050781 12.113281 27.050781 27.050781zm0 0" fill="#f2bb88"/><path d="m484.855469 41.789062v125.792969c0 32.710938-38.285157 60.207031-60.980469 68.078125-4.257812 1.472656-7.964844 2.253906-10.773438 2.253906-8.890624 0-26.828124-7.871093-42.539062-20.601562-15.722656-12.726562-29.214844-30.3125-29.214844-49.730469v-125.792969c0-12.824218 10.398438-23.214843 23.214844-23.214843h97.078125c12.824219 0 23.214844 10.390625 23.214844 23.214843zm0 0" fill="#f2bb88"/><path d="m484.855469 41.789062v125.792969c0 28.304688-28.664063 52.707031-51.09375 63.863281-6.210938 3.089844-13.507813 3.117188-19.722657.027344-7.054687-3.503906-14.730468-8.324218-21.933593-14.160156-15.722657-12.726562-29.214844-30.3125-29.214844-49.730469v-125.792969c0-12.824218 10.398437-23.214843 23.21875-23.214843h75.53125c12.820313 0 23.214844 10.394531 23.214844 23.214843zm0 0" fill="#f2d1a5"/><path d="m459.796875 148.472656c0 4.695313-3.804687 8.5-8.5 8.5s-8.503906-3.804687-8.503906-8.5c0-4.695312 3.808593-8.503906 8.503906-8.503906s8.5 3.808594 8.5 8.503906zm0 0" fill="#f29500"/><path d="m386.253906 148.472656c0 4.695313-3.808594 8.5-8.503906 8.5s-8.5-3.804687-8.5-8.5c0-4.695312 3.804688-8.503906 8.5-8.503906s8.503906 3.808594 8.503906 8.503906zm0 0" fill="#f29500"/><path d="m361.25 127.691406c-1.789062 0-3.542969-.894531-4.566406-2.519531-1.582032-2.519531-.824219-5.84375 1.691406-7.429687 11.460938-7.203126 29.867188-3.644532 31.929688-3.214844 2.914062.605468 4.78125 3.460937 4.175781 6.371094-.609375 2.914062-3.464844 4.777343-6.371094 4.175781-4.4375-.914063-17.382813-2.371094-24 1.789062-.890625.558594-1.878906.828125-2.859375.828125zm0 0" fill="#f29500"/><path d="m414.523438 203.859375c-11.984376 0-21.738282-9.75-21.738282-21.734375 0-2.976562 2.414063-5.386719 5.386719-5.386719 2.976563 0 5.386719 2.410157 5.386719 5.386719 0 6.046875 4.917968 10.964844 10.964844 10.964844 6.046874 0 10.964843-4.917969 10.964843-10.964844 0-2.976562 2.414063-5.386719 5.386719-5.386719 2.976562 0 5.386719 2.410157 5.386719 5.386719 0 11.984375-9.753907 21.734375-21.738281 21.734375zm0 0" fill="#f29500"/><path d="m495.503906 31.84375v102.050781c0 .738281-.996094 1.289063-2.039062 1.132813-23.121094-3.46875-42.160156-18.078125-50.785156-25.761719-1.105469-.984375-3.390626-.238281-2.953126.972656l6.734376 18.925781c.371093 1.03125-1.296876 1.824219-2.570313 1.230469-27.65625-12.875-51.75-42.621093-61.347656-55.605469-.851563-1.152343-3.390625-.605468-3.15625.671876l3.289062 17.628906c.191407.984375-1.40625 1.667968-2.59375 1.105468-51.925781-24.382812-53.582031-80.71875-53.582031-80.71875v-7.304687c0-2.207031 2.664062-3.984375 5.949219-3.984375h118.753906c24.464844 0 44.300781 13.277344 44.300781 29.65625zm0 0" fill="#f29500"/><path d="m495.503906 31.84375v62.53125c0 .726562-.996094 1.273438-2.039062 1.117188-23.121094-3.46875-42.160156-18.078126-50.785156-25.75-1.105469-.984376-3.390626-.234376-2.953126.972656l6.734376 18.929687c.371093 1.015625-1.296876 1.8125-2.570313 1.21875-27.65625-12.867187-51.75-42.621093-61.347656-55.597656-.851563-1.152344-3.390625-.613281-3.15625.671875l3.289062 17.628906c.191407.972656-1.40625 1.65625-2.59375 1.097656-27.484375-12.898437-40.886719-34.757812-47.40625-52.476562h118.527344c24.464844 0 44.300781 13.277344 44.300781 29.65625zm0 0" fill="#ffa90b"/></svg>